<svg width="166" height="34" viewBox="0 0 166 34" fill="none" xmlns="http://www.w3.org/2000/svg">
<path d="M98.0744 32.7675H103.734L106.026 27.2933H120.071L122.32 32.7675H131.856L128.875 25.8802L99.3006 21.4517L95.521 30.2141L98.0744 32.7675Z" fill="#C3083F"/>
<path d="M96.6864 32.288L94.5873 30.189L93.6819 32.288H96.6864Z" fill="#C3083F"/>
<path d="M93.2152 25.5843V22.3716H90.0024L93.2152 25.5843Z" fill="#C3083F"/>
<path d="M89.2619 23.7512L93.125 27.6143V31.2119H71.6086L79.6606 23.7512H89.2619Z" fill="#C3083F"/>
<path d="M86.8403 20.5886H93.0991V19.5229L84.4846 18.2329L86.8403 20.5886Z" fill="#C3083F"/>
<path d="M81.396 18.6095L83.8663 21.0797H73.4701V24.788H77.2967L69.2447 32.2487H65.1707V23.2232L78.8814 18.2329L81.396 18.6095Z" fill="#C3083F"/>
<path d="M83.7933 16.9874L92.9547 18.3593V12.7141L83.105 16.2991L83.7933 16.9874Z" fill="#C3083F"/>
<path d="M81.8303 16.5225L82.2305 16.9227L81.1678 16.7636L81.8303 16.5225Z" fill="#C3083F"/>
<path d="M83.353 15.2616L92.8783 11.7947H79.8861L83.353 15.2616Z" fill="#C3083F"/>
<path d="M76.9089 11.8886L80.5494 15.529L79.2932 15.9862L65.6299 13.9402V8.11572L73.9294 10.8661V11.8886H76.9089Z" fill="#C3083F"/>
<path d="M76.3102 8.21877H94.1795V0.758057H68.8495L76.3102 8.21877Z" fill="#C3083F"/>
<path d="M66.377 0.29834L74.3898 8.31118V9.78388L66.0903 7.03347V0.29834H66.377Z" fill="#C3083F"/>
<path d="M64.9924 5.36801C65.3536 5.8922 65.6432 6.46481 65.8614 7.08582L48.1558 1.21826H54.4415C57.0608 1.21826 59.2534 1.57143 61.0193 2.27777C62.7851 2.98411 64.1095 4.01419 64.9924 5.36801Z" fill="#C3083F"/>
<path d="M64.1293 7.16589L44.7934 0.758057H35.2798V9.11522L43.5793 10.358V8.21877H52.4527C53.6593 8.21877 54.5128 8.41007 55.0131 8.79267C55.5135 9.17527 55.7636 9.95519 55.7636 11.1324C55.7636 11.5222 55.7399 11.8687 55.6924 12.1719L63.8338 13.3911C64.2516 12.3506 64.4604 11.1563 64.4604 9.80803C64.4604 8.85255 64.3501 7.97183 64.1293 7.16589Z" fill="#C3083F"/>
<path d="M117.675 1.89919L117.181 0.758057H105.305L102.418 7.45218L117.675 1.89919Z" fill="#C3083F"/>
<path d="M62.262 14.2025L54.2156 12.9975C54.0909 13.4368 53.8967 13.7495 53.6331 13.9356C53.1328 14.2888 52.2793 14.4653 51.0727 14.4653H42.1993V11.1981L33.8998 9.95532V20.0158L55.9468 19.0413C55.6785 18.9506 55.3929 18.8674 55.09 18.7917V18.3502C56.9735 18.1148 58.5039 17.6586 59.6812 16.9817C60.8584 16.2753 61.7119 15.363 62.2417 14.2446L62.2533 14.2206L62.262 14.2025Z" fill="#C3083F"/>
<path d="M31.9792 7.44975C31.9808 7.69963 31.9725 7.94387 31.9543 8.18248L3.57163 4.11495L3.54871 0.477051L22.3546 0.358558C24.503 0.345022 26.2853 0.61339 27.7015 1.16366C29.1175 1.68451 30.182 2.47245 30.895 3.52749C31.608 4.58252 31.9694 5.88994 31.9792 7.44975Z" fill="#C3083F"/>
<path fill-rule="evenodd" clip-rule="evenodd" d="M29.096 10.0553L0.790283 5.81665V21.9892L9.04562 21.6243V19.7254H19.5524C20.5825 19.7254 21.2741 19.8578 21.6273 20.1227C21.8668 20.3023 22.0251 20.6105 22.1022 21.0472L30.1619 20.691C29.8104 19.6913 29.217 18.825 28.3817 18.0919C26.969 16.8264 24.7764 16.1348 21.8039 16.0171V15.5756C24.5115 15.4579 26.4098 14.781 27.4987 13.5449C28.3724 12.5793 28.9048 11.4161 29.096 10.0553ZM9.04562 12.9268V9.1744H18.4929C19.3464 9.1744 19.9497 9.32156 20.3029 9.61586C20.6855 9.91017 20.8768 10.3958 20.8768 11.0727C20.8768 11.7496 20.7297 12.2352 20.4354 12.5295C20.141 12.7944 19.5671 12.9268 18.7136 12.9268H9.04562Z" fill="#C3083F"/>
<path d="M79.31 16.9503L66.5519 15.0398V21.5939L79.31 16.9503Z" fill="#C3083F"/>
<path d="M96.9008 19.1278L126.071 23.496L120.409 10.4153L111.854 11.5918L112.713 13.7958L114.418 17.9456H106.561L108.298 13.7958L108.987 11.9862L99.4134 13.3027L96.9008 19.1278Z" fill="#C3083F"/>
<path d="M133.229 31.4384V25.1306L141.528 26.3734V31.4384H133.229Z" fill="#C3083F"/>
<path d="M131.736 24.3359L140.036 25.5787V20.6019H146.084L150.359 27.1246L161.347 28.7699L152.882 16.0548L160.426 5.35767L149.723 6.82959L145.995 12.5231H140.036V8.16176L131.736 9.30314V24.3359Z" fill="#C3083F"/>
<path d="M155.277 32.278L153.003 28.8096L163.997 30.4558L165.21 32.278H155.277Z" fill="#C3083F"/>
<path d="M61.4692 23.2114C60.9425 22.1991 60.365 21.3516 59.7368 20.6688C59.3933 20.2629 58.9257 19.9108 58.3337 19.6125L35.2798 20.6315V30.8666H40.4369L43.5793 29.7228V20.8012H46.9785C48.0675 20.8012 48.921 20.8895 49.539 21.0661C50.1571 21.2133 50.6574 21.4928 51.04 21.9049C51.4226 22.3169 51.7905 22.8908 52.1436 23.6266L53.3777 26.1565L61.4692 23.2114Z" fill="#C3083F"/>
<path d="M33.3654 23.384C33.3256 22.6955 33.2077 22.0561 33.0117 21.4659L24.8948 22.2959C24.9034 22.376 24.9101 22.4593 24.9151 22.5458C24.9627 23.3685 24.804 23.9378 24.439 24.2537C24.1017 24.5385 23.4336 24.7098 22.4346 24.7675L11.9453 25.3737L11.8445 23.6303L3.62397 24.4709L4.13416 33.2983L23.9228 32.1546C26.2733 32.0188 28.1489 31.5714 29.5496 30.8124C30.9796 30.0517 31.9969 29.0348 32.6013 27.7617C33.2058 26.4886 33.4605 25.0294 33.3654 23.384Z" fill="#C3083F"/>
<path d="M52.7545 27.6175L60.8514 24.6704L64.4291 31.9119H54.8493L52.7545 27.6175Z" fill="#C3083F"/>
<path d="M42.8693 31.2576L41.4439 32.5337L43.1127 31.865L42.8693 31.2576Z" fill="#C3083F"/>
<path d="M104.243 7.84843L119.934 2.1377L123.011 9.24853L114.474 10.4226L113.562 8.07866H112.988L111.965 10.7677L102.418 12.0806L104.243 7.84843Z" fill="#C3083F"/>
<path d="M150.703 5.08713L161.435 3.61128L163.771 0.29834H153.838L150.703 5.08713Z" fill="#C3083F"/>
<path d="M138.77 7.38515L130.47 8.52653V1.21826H138.77V7.38515Z" fill="#C3083F"/>
</svg>
