<svg width="67" height="26" viewBox="0 0 67 26" fill="none" xmlns="http://www.w3.org/2000/svg">
<path d="M62.7524 18.1536C61.6373 17.8696 60.6752 17.6293 60.6752 16.7117C60.6752 15.9907 61.2218 15.5319 62.0964 15.5319C62.9055 15.4882 63.6489 16.0344 63.8019 16.8428L65.9884 15.7941C65.3981 14.3522 63.9769 13.4783 62.162 13.4783C59.8006 13.4783 58.1607 14.9202 58.1607 16.9739C58.1607 19.4863 59.9755 19.967 61.5935 20.3821C62.7305 20.6661 63.6926 20.9283 63.6926 21.8677C63.6926 22.6542 63.0585 23.1567 62.0964 23.1567C61.1344 23.1567 60.3254 22.6324 60.1067 21.8459L57.9202 22.8946C58.5324 24.3365 60.0849 25.2104 62.009 25.2104C64.5672 25.2104 66.2071 23.7903 66.2071 21.5619C66.2071 19.0275 64.283 18.5469 62.7524 18.1536Z" fill="#F1F7F7"/>
<path d="M66.382 3.31909V4.47701H64.5235V5.56939H66.1415L65.8354 6.68361H64.5235V8.40957H63.2553V3.31909H66.382Z" fill="#F1F7F7"/>
<path d="M60.063 4.49885C60.8501 4.49885 61.4842 5.13243 61.4842 5.91894C61.4842 6.70545 60.8501 7.33903 60.063 7.33903C59.2758 7.33903 58.6417 6.70545 58.6417 5.91894C58.6417 5.13243 59.2758 4.49885 60.063 4.49885ZM60.063 8.56249C61.5279 8.56249 62.7087 7.36088 62.7087 5.89709C62.7087 4.43331 61.5061 3.25354 60.0411 3.25354C58.5761 3.25354 57.3954 4.45515 57.3954 5.89709C57.3954 7.38272 58.598 8.58434 60.063 8.56249Z" fill="#F1F7F7"/>
<path d="M36.7547 24.8827H39.1161V17.4327L44.4731 24.8827H46.9439V13.5438H44.5606V21.1031L39.2692 13.5438H36.2081L36.7547 14.658V24.8827Z" fill="#F1F7F7"/>
<path d="M54.9465 20.5569C54.6186 21.3652 53.9626 21.9988 53.1755 22.3484C52.76 22.5232 52.3227 22.6105 51.8635 22.6105H50.5079V15.8378H51.8635C52.3227 15.8378 52.76 15.9252 53.1755 16.1C53.9845 16.4277 54.6186 17.0831 54.9465 17.8915C55.2964 18.7654 55.2964 19.7048 54.9465 20.5569ZM54.1594 14.0026C53.4378 13.7186 52.6726 13.5657 51.9073 13.522H48.0371V24.8608H51.9073C53.4378 24.8608 54.9028 24.2928 56.0179 23.2441C56.5427 22.7416 56.98 22.1299 57.2642 21.4526C58.2044 19.3116 57.7015 16.821 56.0179 15.2042C55.4713 14.7017 54.8591 14.2866 54.1594 14.0026Z" fill="#F1F7F7"/>
<path d="M15.9172 24.8827H9.16089V13.5438H15.9172V15.7504H11.6317V18.0444H15.5455L14.9552 20.1855H11.6317V22.6761L15.9172 22.6979V24.8827Z" fill="#F1F7F7"/>
<path d="M31.354 15.7504H35.6396V13.5438H28.9051V24.8827H35.6396V22.6979L31.354 22.6761V20.1855H34.6775L35.2679 18.0444H31.354V15.7504Z" fill="#F1F7F7"/>
<path d="M39.9252 9.10873C39.7065 8.47516 39.5972 7.81973 39.619 7.1643L39.6628 0.173093H42.1117L42.0898 7.05507C42.0898 7.81973 42.2647 8.43146 42.6146 8.86841C43.4455 9.74231 44.8448 9.76416 45.6976 8.91211L45.7413 8.86841C46.113 8.43146 46.2879 7.81973 46.2879 7.05507L46.3098 0.151245H48.8024L48.7587 7.208C48.7587 7.86342 48.6713 8.51885 48.4526 9.15243C48.2558 9.69862 47.9278 10.2011 47.5343 10.6381C47.1188 11.0532 46.6378 11.3809 46.0912 11.5775C44.8448 12.0145 43.4892 12.0145 42.2429 11.5556C41.6963 11.3372 41.2152 11.0313 40.8217 10.5944C40.4281 10.1793 40.1219 9.67677 39.9252 9.10873Z" fill="#F1F7F7"/>
<path d="M27.6369 8.23481C27.3308 7.51384 27.1778 6.72733 27.1778 5.96267C27.1778 5.17616 27.3527 4.41149 27.6588 3.69052C27.9649 2.9914 28.4022 2.35782 28.9488 1.83348C29.4955 1.2873 30.1514 0.872192 30.8511 0.588174C31.5727 0.282309 32.3598 0.129376 33.1688 0.151223C34.2402 0.129364 35.3116 0.413394 36.2518 0.937735C37.1264 1.44023 37.848 2.18304 38.3071 3.10064L36.0769 4.14932C35.8145 3.62498 35.3991 3.18803 34.8962 2.88217C34.3714 2.5763 33.7592 2.44521 33.147 2.44521C32.6878 2.44521 32.2068 2.53261 31.7913 2.70739C31.3759 2.88217 31.0042 3.14434 30.6981 3.47205C30.3701 3.79976 30.1296 4.19302 29.9546 4.60812C29.5829 5.50387 29.5829 6.48701 29.9328 7.38276C30.2608 8.23481 30.9386 8.93393 31.7695 9.30534C32.2068 9.50197 32.6659 9.61121 33.147 9.58936C33.8466 9.61122 34.5463 9.39273 35.1148 8.99948C35.6396 8.62807 36.0113 8.06003 36.1644 7.42645H32.1193L33.1251 5.37278H38.7663C38.7882 5.80974 38.7663 6.74918 38.7444 6.94581C38.6788 7.47015 38.5476 7.99449 38.3509 8.49698C37.8042 9.85153 36.7328 10.9002 35.3772 11.4464C33.1469 12.3421 30.6106 11.8178 28.9051 10.1137C28.3585 9.56751 27.943 8.93393 27.6369 8.23481Z" fill="#F1F7F7"/>
<path d="M1.35499 10.376V1.35298L0.786499 0.173218H3.80389V9.32733H8.32998L7.69589 11.5558H0.786499L1.35499 10.376Z" fill="#F1F7F7"/>
<path d="M1.35499 23.7029V14.6799L0.786499 13.5001H3.80389V22.6542H8.32998L7.69589 24.8827H0.786499L1.35499 23.7029Z" fill="#F1F7F7"/>
<path d="M15.9172 11.5558H9.16089V0.216919H15.9172V2.42352H11.6317V4.71751H15.5455L14.9552 6.85857H11.6317V9.32734L15.9172 9.3492V11.5558Z" fill="#F1F7F7"/>
<path d="M56.6301 11.5558H49.8957V0.216919H56.652V2.42352H52.3664V4.71751H56.2803L55.6899 6.85857H52.3664V9.32734L56.652 9.3492V11.5558L56.6301 11.5558Z" fill="#F1F7F7"/>
<path d="M22.3893 3.36284L23.8105 7.18615H20.9025L22.3893 3.36284ZM19.2188 11.5557L20.0716 9.34906H24.6195L25.4941 11.5557H28.0524L23.4825 0.173096H19.9841L20.7275 1.65873L16.7043 11.5557H19.2188Z" fill="#F1F7F7"/>
<path d="M21.0337 25.0575C21.4491 25.1449 21.8646 25.1886 22.3019 25.1886C23.0671 25.2105 23.8324 25.0575 24.554 24.7735C25.9096 24.2273 26.981 23.1787 27.5276 21.8241C27.7244 21.3216 27.8556 20.7973 27.9212 20.2729C27.9649 19.7486 27.9649 19.2243 27.9431 18.6781H22.3019V18.6999L21.2961 20.7536H25.3192C25.1662 21.3872 24.7945 21.9552 24.2697 22.3266C23.7012 22.7417 23.0234 22.9383 22.3237 22.9165C22.1051 22.9165 21.9083 22.8946 21.6896 22.8509L21.1867 22.7199C21.0993 22.698 21.0337 22.6543 20.9462 22.6325C20.1153 22.2611 19.4375 21.5838 19.1095 20.7099C18.7597 19.8141 18.7597 18.8091 19.1314 17.9134C19.3063 17.4983 19.5687 17.105 19.8748 16.7773C20.1809 16.4496 20.5745 16.2093 20.9899 16.0345C21.4272 15.8597 21.8864 15.7723 22.3456 15.7723C22.9578 15.7505 23.57 15.9034 24.0948 16.2093C24.5977 16.5152 25.0131 16.9521 25.2755 17.4764L27.5058 16.4278C27.0466 15.5102 26.3469 14.7674 25.4504 14.2649C24.5102 13.7405 23.4607 13.4783 22.3674 13.4783C20.7932 13.4565 19.2845 14.0682 18.1475 15.1825C17.6008 15.7068 17.1635 16.3404 16.8574 17.0395C16.2233 18.4814 16.2233 20.1418 16.8356 21.5838C17.1417 22.2829 17.5571 22.9165 18.0819 23.4627C18.5629 23.9433 19.1314 24.3366 19.7436 24.6424C20.1736 24.836 20.6037 24.993 21.0337 25.0575Z" fill="#F1F7F7"/>
</svg>
