<svg width="96" height="37" viewBox="0 0 96 37" fill="none" xmlns="http://www.w3.org/2000/svg">
<path d="M90.1671 26.3263C88.5546 25.9158 87.1634 25.5685 87.1634 24.2422C87.1634 23.2001 87.9539 22.5369 89.2186 22.5369C90.3885 22.4738 91.4635 23.2632 91.6848 24.4316L94.8466 22.9159C93.9929 20.8317 91.9378 19.5685 89.3135 19.5685C85.8987 19.5685 83.5274 21.6527 83.5274 24.6211C83.5274 28.2526 86.1517 28.9474 88.4914 29.5473C90.1355 29.9579 91.5267 30.3368 91.5267 31.6947C91.5267 32.8315 90.6098 33.5578 89.2186 33.5578C87.8274 33.5578 86.6575 32.7999 86.3414 31.6631L83.1796 33.1789C84.0649 35.263 86.3097 36.5262 89.0921 36.5262C92.7914 36.5262 95.1628 34.4736 95.1628 31.2526C95.1628 27.5895 92.3804 26.8948 90.1671 26.3263Z" fill="#F1F7F7"/>
<path d="M95.4157 4.8844V6.55806H92.7281V8.13698H95.0679L94.6252 9.74748H92.7281V12.2422H90.8943V4.8844H95.4157Z" fill="#F1F7F7"/>
<path d="M86.2781 6.58965C87.4163 6.58965 88.3332 7.50542 88.3332 8.64225C88.3332 9.77907 87.4163 10.6948 86.2781 10.6948C85.1398 10.6948 84.2229 9.77907 84.2229 8.64225C84.2229 7.50542 85.1398 6.58965 86.2781 6.58965ZM86.2781 12.4632C88.3965 12.4632 90.1038 10.7264 90.1038 8.61067C90.1038 6.49491 88.3648 4.78967 86.2464 4.78967C84.128 4.78967 82.4207 6.52649 82.4207 8.61067C82.4207 10.758 84.1596 12.4948 86.2781 12.4632Z" fill="#F1F7F7"/>
<path d="M52.5733 36.0525H55.988V25.2842L63.7344 36.0525H67.3073V19.6633H63.8609V30.5894L56.2094 19.6633H51.7828L52.5733 21.2738V36.0525Z" fill="#F1F7F7"/>
<path d="M78.8795 29.8C78.4052 30.9684 77.4567 31.8842 76.3184 32.3894C75.7177 32.642 75.0853 32.7684 74.4213 32.7684H72.461V22.979H74.4213C75.0853 22.979 75.7177 23.1053 76.3184 23.358C77.4883 23.8317 78.4052 24.779 78.8795 25.9474C79.3853 27.2105 79.3853 28.5684 78.8795 29.8ZM77.7412 20.3264C76.6978 19.9159 75.5912 19.6949 74.4846 19.6317H68.8882V36.0209H74.4846C76.6978 36.0209 78.8162 35.1999 80.4287 33.6841C81.1876 32.9578 81.8199 32.0736 82.231 31.0947C83.5905 28 82.8633 24.4001 80.4287 22.0633C79.6383 21.337 78.753 20.737 77.7412 20.3264Z" fill="#F1F7F7"/>
<path d="M22.4415 36.0525H12.6715V19.6633H22.4415V22.8527H16.2443V26.1684H21.904L21.0503 29.2631H16.2443V32.8631L22.4415 32.8946V36.0525Z" fill="#F1F7F7"/>
<path d="M44.7637 22.8527H50.9609V19.6633H41.2225V36.0525H50.9609V32.8946L44.7637 32.8631V29.2631H49.5697L50.4234 26.1684H44.7637V22.8527Z" fill="#F1F7F7"/>
<path d="M57.1579 13.2527C56.8417 12.3369 56.6837 11.3896 56.7153 10.4422L56.7785 0.33712H60.3197L60.2881 10.2843C60.2881 11.3896 60.5411 12.2738 61.047 12.9054C62.2484 14.1685 64.272 14.2001 65.5051 12.9685L65.5683 12.9054C66.1058 12.2738 66.3588 11.3896 66.3588 10.2843L66.3904 0.305542H69.9949L69.9316 10.5054C69.9316 11.4527 69.8052 12.4001 69.489 13.3159C69.2044 14.1053 68.7301 14.8316 68.161 15.4632C67.5603 16.0632 66.8647 16.5369 66.0742 16.8211C64.272 17.4527 62.3117 17.4527 60.5095 16.7895C59.719 16.4737 59.0234 16.0316 58.4543 15.4C57.8852 14.8 57.4425 14.0738 57.1579 13.2527Z" fill="#F1F7F7"/>
<path d="M39.3886 11.9896C38.9459 10.9475 38.7246 9.81064 38.7246 8.70539C38.7246 7.56857 38.9776 6.46332 39.4202 5.42123C39.8629 4.41072 40.4952 3.49495 41.2857 2.73706C42.0761 1.9476 43.0247 1.34761 44.0364 0.937089C45.0798 0.49499 46.2181 0.273941 47.3879 0.30552C48.9372 0.273924 50.4865 0.684461 51.8461 1.44234C53.1108 2.16865 54.1542 3.24232 54.8182 4.56861L51.5931 6.08438C51.2137 5.3265 50.613 4.69493 49.8858 4.25283C49.1269 3.81073 48.2416 3.62126 47.3563 3.62126C46.6923 3.62126 45.9967 3.74758 45.396 4.0002C44.7953 4.25283 44.2578 4.63177 43.8151 5.10545C43.3408 5.57913 42.993 6.14754 42.7401 6.74753C42.2026 8.04225 42.2026 9.46328 42.7085 10.758C43.1827 11.9896 44.1629 13.0001 45.3644 13.5369C45.9967 13.8211 46.6607 13.979 47.3563 13.9474C48.3681 13.979 49.3799 13.6632 50.2019 13.0948C50.9608 12.558 51.4983 11.7369 51.7196 10.8212H45.8703L47.3247 7.85278H55.4821C55.5138 8.48435 55.4821 9.84222 55.4505 10.1264C55.3556 10.8843 55.1659 11.6422 54.8814 12.3685C54.0909 14.3264 52.5417 15.8421 50.5813 16.6316C47.3563 17.9263 43.6886 17.1684 41.2224 14.7053C40.432 13.9158 39.8312 13.0001 39.3886 11.9896Z" fill="#F1F7F7"/>
<path d="M1.38383 15.0842V2.04233L0.561768 0.337097H4.92505V13.5685H11.47L10.553 16.7895H0.561768L1.38383 15.0842Z" fill="#F1F7F7"/>
<path d="M1.38383 34.3472V21.3053L0.561768 19.6001H4.92505V32.8315H11.47L10.553 36.0525H0.561768L1.38383 34.3472Z" fill="#F1F7F7"/>
<path d="M22.4415 16.7897H12.6715V0.400452H22.4415V3.58988H16.2443V6.90562H21.904L21.0503 10.0003H16.2443V13.5687L22.4415 13.6003V16.7897Z" fill="#F1F7F7"/>
<path d="M81.314 16.7897H71.5757V0.400452H81.3456V3.58988H75.1485V6.90562H80.8081L79.9544 10.0003H75.1485V13.5687L81.3456 13.6003V16.7897L81.314 16.7897Z" fill="#F1F7F7"/>
<path d="M31.8004 4.94755L33.8556 10.4738H29.6504L31.8004 4.94755ZM27.2158 16.7895L28.4489 13.6001H35.0254L36.2901 16.7895H39.9894L33.3813 0.337097H28.3224L29.3974 2.48443L23.5797 16.7895H27.2158Z" fill="#F1F7F7"/>
<path d="M29.84 36.3052C30.4407 36.4315 31.0415 36.4946 31.6738 36.4946C32.7805 36.5262 33.8871 36.3052 34.9305 35.8946C36.8908 35.1052 38.4401 33.5894 39.2305 31.6315C39.5151 30.9052 39.7048 30.1474 39.7996 29.3895C39.8629 28.6316 39.8629 27.8737 39.8313 27.0842H31.6738V27.1158L30.2194 30.0842H36.0371C35.8158 31 35.2783 31.821 34.5194 32.3579C33.6974 32.9578 32.7172 33.242 31.7054 33.2105C31.3893 33.2105 31.1047 33.1789 30.7885 33.1157L30.0613 32.9263C29.9348 32.8947 29.84 32.8315 29.7135 32.7999C28.512 32.2631 27.5319 31.2842 27.0576 30.021C26.5517 28.7263 26.5517 27.2737 27.0892 25.979C27.3422 25.379 27.7216 24.8106 28.1642 24.3369C28.6069 23.8632 29.176 23.5159 29.7767 23.2632C30.4091 23.0106 31.0731 22.8843 31.7371 22.8843C32.6224 22.8527 33.5077 23.0738 34.2665 23.5159C34.9937 23.958 35.5945 24.5895 35.9739 25.3474L39.1989 23.8317C38.5349 22.5054 37.5232 21.4317 36.2268 20.7054C34.8672 19.9475 33.3496 19.5686 31.7687 19.5686C29.4922 19.537 27.3105 20.4212 25.6664 22.0317C24.876 22.7896 24.2436 23.7053 23.8009 24.7159C22.884 26.8 22.884 29.2 23.7693 31.2842C24.212 32.2947 24.8127 33.2105 25.5716 33.9999C26.2672 34.6947 27.0892 35.2631 27.9745 35.7052C28.5963 35.9849 29.2182 36.2119 29.84 36.3052Z" fill="#F1F7F7"/>
</svg>
