<svg width="1246" height="200" viewBox="0 0 1246 200" fill="none" xmlns="http://www.w3.org/2000/svg">
<path d="M527.05 46.744H509.194L480.202 2.67997H502.57L512.266 17.944L517.738 26.968H518.986L524.458 17.944L534.154 2.67997H556.618L527.05 46.744ZM527.146 67H509.098V36.472H527.146V67Z" fill="#F1F7F7"/>
<path d="M592.678 67.96C585.254 67.96 578.854 66.616 573.478 63.928C568.166 61.176 564.102 57.336 561.286 52.408C558.47 47.416 557.062 41.56 557.062 34.84C557.062 28.12 558.47 22.296 561.286 17.368C564.102 12.376 568.166 8.53597 573.478 5.84797C578.854 3.09597 585.254 1.71997 592.678 1.71997C600.358 1.71997 606.854 3.09597 612.166 5.84797C617.542 8.53597 621.638 12.376 624.454 17.368C627.27 22.296 628.678 28.12 628.678 34.84C628.678 41.56 627.27 47.416 624.454 52.408C621.638 57.336 617.542 61.176 612.166 63.928C606.854 66.616 600.358 67.96 592.678 67.96ZM592.678 50.68C597.03 50.68 600.422 50.264 602.854 49.432C605.286 48.536 606.982 46.936 607.942 44.632C608.966 42.328 609.478 39.064 609.478 34.84C609.478 30.552 608.966 27.288 607.942 25.048C606.982 22.744 605.286 21.176 602.854 20.344C600.422 19.448 597.03 19 592.678 19C588.326 19 584.966 19.448 582.598 20.344C580.23 21.176 578.566 22.744 577.606 25.048C576.71 27.288 576.262 30.552 576.262 34.84C576.262 39.064 576.71 42.328 577.606 44.632C578.566 46.936 580.23 48.536 582.598 49.432C584.966 50.264 588.326 50.68 592.678 50.68Z" fill="#F1F7F7"/>
<path d="M665.939 67.96C658.451 67.96 652.275 66.84 647.411 64.6C642.611 62.296 639.027 59.064 636.659 54.904C634.291 50.68 633.107 45.72 633.107 40.024V2.67997H651.155V38.584C651.155 41.656 651.539 44.056 652.307 45.784C653.075 47.512 654.515 48.728 656.627 49.432C658.803 50.136 661.907 50.488 665.939 50.488C670.035 50.488 673.139 50.136 675.251 49.432C677.363 48.728 678.803 47.512 679.571 45.784C680.339 44.056 680.723 41.656 680.723 38.584V2.67997H698.771V40.024C698.771 45.72 697.587 50.68 695.219 54.904C692.851 59.064 689.235 62.296 684.371 64.6C679.571 66.84 673.427 67.96 665.939 67.96Z" fill="#F1F7F7"/>
<path d="M722.226 67H704.178V2.67997H741.714C747.41 2.67997 752.178 3.44797 756.018 4.98397C759.858 6.51997 762.738 8.75997 764.658 11.704C766.642 14.584 767.634 18.136 767.634 22.36C767.634 25.752 767.026 28.696 765.81 31.192C764.658 33.624 762.802 35.608 760.242 37.144C757.682 38.616 754.354 39.608 750.258 40.12V41.08C753.586 41.912 755.954 43.16 757.362 44.824C758.834 46.424 760.178 48.44 761.394 50.872L769.362 67H748.53L740.85 51.256C740.082 49.656 739.282 48.408 738.45 47.512C737.618 46.616 736.53 46.008 735.186 45.688C733.842 45.304 731.986 45.112 729.618 45.112H722.226V67ZM722.226 18.904V31.672H741.522C744.146 31.672 746.002 31.288 747.09 30.52C748.178 29.752 748.722 27.992 748.722 25.24C748.722 22.68 748.178 20.984 747.09 20.152C746.002 19.32 744.146 18.904 741.522 18.904H722.226Z" fill="#F1F7F7"/>
<path d="M817.101 67H799.053V2.67997H817.101V67ZM854.253 67H804.045V50.776H854.253V67Z" fill="#F1F7F7"/>
<path d="M877.101 67H859.053V2.67997H877.101V67Z" fill="#F1F7F7"/>
<path d="M900.914 67H882.866V2.67997H907.346L919.154 29.368L925.49 45.976H926.738L932.786 29.368L944.018 2.67997H968.498V67H950.45V40.408L951.122 29.656H949.874L946.226 40.408L936.626 63.16H914.738L905.138 40.408L901.49 29.656H900.242L900.914 40.408V67Z" fill="#F1F7F7"/>
<path d="M992.32 67H974.272V2.67997H992.32V67Z" fill="#F1F7F7"/>
<path d="M1037.44 67H1019.4V2.67997H1037.44V67ZM1060.1 18.904H996.644V2.67997H1060.1V18.904Z" fill="#F1F7F7"/>
<path d="M1095.66 67.96C1089.13 67.96 1083.5 67.16 1078.76 65.56C1074.03 63.896 1070.38 61.368 1067.82 57.976C1065.26 54.52 1063.98 50.072 1063.98 44.632V44.056H1082.03V46.072C1082.03 47.48 1082.32 48.6 1082.89 49.432C1083.53 50.2 1084.81 50.744 1086.73 51.064C1088.65 51.384 1091.63 51.544 1095.66 51.544C1099.31 51.544 1102 51.448 1103.72 51.256C1105.45 51 1106.54 50.616 1106.99 50.104C1107.5 49.528 1107.76 48.76 1107.76 47.8C1107.76 46.648 1107.31 45.784 1106.41 45.208C1105.58 44.632 1103.85 44.184 1101.23 43.864L1081.07 41.176C1077.1 40.6 1073.77 39.544 1071.08 38.008C1068.4 36.408 1066.38 34.328 1065.04 31.768C1063.69 29.208 1063.02 26.2 1063.02 22.744C1063.02 20.184 1063.56 17.656 1064.65 15.16C1065.74 12.664 1067.5 10.424 1069.93 8.43997C1072.36 6.39197 1075.56 4.75997 1079.53 3.54397C1083.5 2.32797 1088.4 1.71997 1094.22 1.71997C1101.07 1.71997 1106.7 2.67997 1111.12 4.59997C1115.6 6.45597 1118.92 9.14397 1121.1 12.664C1123.34 16.12 1124.46 20.248 1124.46 25.048V25.624H1106.41V24.184C1106.41 22.648 1106.06 21.432 1105.36 20.536C1104.72 19.64 1103.37 19 1101.32 18.616C1099.34 18.232 1096.33 18.04 1092.3 18.04C1089.23 18.04 1086.89 18.2 1085.29 18.52C1083.69 18.776 1082.57 19.192 1081.93 19.768C1081.36 20.344 1081.07 21.112 1081.07 22.072C1081.07 22.712 1081.2 23.288 1081.45 23.8C1081.77 24.248 1082.25 24.6 1082.89 24.856C1083.6 25.112 1084.52 25.336 1085.68 25.528L1105.84 28.504C1111.08 29.272 1115.15 30.616 1118.03 32.536C1120.91 34.392 1122.92 36.6 1124.08 39.16C1125.23 41.72 1125.8 44.376 1125.8 47.128C1125.8 50.776 1124.78 54.2 1122.73 57.4C1120.75 60.536 1117.55 63.096 1113.13 65.08C1108.72 67 1102.89 67.96 1095.66 67.96Z" fill="#F1F7F7"/>
<path d="M41.2101 185H23.1621V120.68H41.2101V185ZM63.8661 136.904H0.410095V120.68H63.8661V136.904Z" fill="#F1F7F7"/>
<path d="M86.2731 185H68.2251V120.68H105.761C111.457 120.68 116.225 121.448 120.065 122.984C123.905 124.52 126.785 126.76 128.705 129.704C130.689 132.584 131.681 136.136 131.681 140.36C131.681 143.752 131.073 146.696 129.857 149.192C128.705 151.624 126.849 153.608 124.289 155.144C121.729 156.616 118.401 157.608 114.305 158.12V159.08C117.633 159.912 120.001 161.16 121.409 162.824C122.881 164.424 124.225 166.44 125.441 168.872L133.409 185H112.577L104.897 169.256C104.129 167.656 103.329 166.408 102.497 165.512C101.665 164.616 100.577 164.008 99.2331 163.688C97.8891 163.304 96.0331 163.112 93.6651 163.112H86.2731V185ZM86.2731 136.904V149.672H105.569C108.193 149.672 110.049 149.288 111.137 148.52C112.225 147.752 112.769 145.992 112.769 143.24C112.769 140.68 112.225 138.984 111.137 138.152C110.049 137.32 108.193 136.904 105.569 136.904H86.2731Z" fill="#F1F7F7"/>
<path d="M152.704 185H132.448L160.192 120.68H186.016L213.856 185H193.12L177.856 147.848L173.632 137H172.384L168.256 147.848L152.704 185ZM196.288 173.096H148.864V156.872H196.288V173.096Z" fill="#F1F7F7"/>
<path d="M233.836 185H215.788V120.68H233.836V185Z" fill="#F1F7F7"/>
<path d="M257.648 185H239.6V120.68H258.8L276.656 144.776L286.064 159.56H287.312L286.448 145.544V120.68H304.496V185H285.296L266.288 160.232L258.128 147.56H256.88L257.648 159.848V185Z" fill="#F1F7F7"/>
<path d="M355.148 185H337.1V120.68H355.148V185ZM392.3 185H342.092V168.776H392.3V185Z" fill="#F1F7F7"/>
<path d="M415.148 185H397.1V120.68H415.148V185Z" fill="#F1F7F7"/>
<path d="M488.689 185H467.089L452.113 162.152H433.681V144.584H451.921L467.569 120.68H489.169L466.897 152.264L488.689 185ZM438.961 185H420.913V120.68H438.961V185Z" fill="#F1F7F7"/>
<path d="M509.179 185H491.131V120.68H509.179V185ZM548.251 185H496.027V168.776H548.251V185ZM546.811 160.712H496.027V144.584H546.811V160.712ZM548.251 136.904H496.027V120.68H548.251V136.904Z" fill="#F1F7F7"/>
<path d="M596.61 185H576.354L604.098 120.68H629.922L657.762 185H637.026L621.762 147.848L617.538 137H616.29L612.162 147.848L596.61 185ZM640.194 173.096H592.77V156.872H640.194V173.096Z" fill="#F1F7F7"/>
<g filter="url(#filter0_dd_158_9)">
<path d="M721.066 185.96C713.642 185.96 707.274 184.616 701.962 181.928C696.65 179.176 692.586 175.336 689.77 170.408C686.954 165.416 685.546 159.56 685.546 152.84C685.546 146.12 686.954 140.296 689.77 135.368C692.586 130.376 696.65 126.536 701.962 123.848C707.274 121.096 713.642 119.72 721.066 119.72C728.298 119.72 734.474 120.808 739.594 122.984C744.778 125.16 748.746 128.296 751.498 132.392C754.25 136.488 755.626 141.416 755.626 147.176V148.808H735.466V147.176C735.466 143.528 734.442 140.936 732.394 139.4C730.346 137.8 726.666 137 721.354 137C717.002 137 713.61 137.448 711.178 138.344C708.81 139.176 707.146 140.744 706.186 143.048C705.226 145.288 704.746 148.552 704.746 152.84C704.746 157.064 705.226 160.328 706.186 162.632C707.146 164.936 708.81 166.536 711.178 167.432C713.61 168.264 717.002 168.68 721.354 168.68C726.666 168.68 730.346 167.912 732.394 166.376C734.442 164.776 735.466 162.152 735.466 158.504V156.872H755.626V158.504C755.626 164.2 754.25 169.128 751.498 173.288C748.746 177.384 744.778 180.52 739.594 182.696C734.474 184.872 728.298 185.96 721.066 185.96Z" fill="#C3083F"/>
<path d="M826.429 185H808.381V120.68H826.429V185ZM778.429 185H760.381V120.68H778.429V185ZM817.693 160.808H765.085V144.584H817.693V160.808Z" fill="#C3083F"/>
<path d="M848.61 185H828.354L856.098 120.68H881.922L909.762 185H889.026L873.762 147.848L869.538 137H868.29L864.162 147.848L848.61 185ZM892.194 173.096H844.77V156.872H892.194V173.096Z" fill="#C3083F"/>
<path d="M929.742 185H911.694V120.68H936.174L947.982 147.368L954.318 163.976H955.566L961.614 147.368L972.846 120.68H997.326V185H979.278V158.408L979.95 147.656H978.702L975.054 158.408L965.454 181.16H943.566L933.966 158.408L930.318 147.656H929.07L929.742 158.408V185Z" fill="#C3083F"/>
<path d="M1038.72 168.776H1009.15V152.552H1036.7C1039.9 152.552 1042.17 152.072 1043.52 151.112C1044.92 150.152 1045.63 148.008 1045.63 144.68C1045.63 141.416 1044.92 139.304 1043.52 138.344C1042.17 137.384 1039.9 136.904 1036.7 136.904H1009.15V120.68H1038.72C1043.84 120.68 1048.25 121.64 1051.96 123.56C1055.68 125.416 1058.52 128.136 1060.51 131.72C1062.56 135.24 1063.58 139.56 1063.58 144.68C1063.58 149.736 1062.56 154.088 1060.51 157.736C1058.52 161.32 1055.68 164.072 1051.96 165.992C1048.25 167.848 1043.84 168.776 1038.72 168.776ZM1021.15 185H1003.1V120.68H1021.15V185Z" fill="#C3083F"/>
<path d="M1085.46 185H1067.41V120.68H1085.46V185Z" fill="#C3083F"/>
<path d="M1125.88 185.96C1118.46 185.96 1112.06 184.616 1106.68 181.928C1101.37 179.176 1097.31 175.336 1094.49 170.408C1091.67 165.416 1090.27 159.56 1090.27 152.84C1090.27 146.12 1091.67 140.296 1094.49 135.368C1097.31 130.376 1101.37 126.536 1106.68 123.848C1112.06 121.096 1118.46 119.72 1125.88 119.72C1133.56 119.72 1140.06 121.096 1145.37 123.848C1150.75 126.536 1154.84 130.376 1157.66 135.368C1160.47 140.296 1161.88 146.12 1161.88 152.84C1161.88 159.56 1160.47 165.416 1157.66 170.408C1154.84 175.336 1150.75 179.176 1145.37 181.928C1140.06 184.616 1133.56 185.96 1125.88 185.96ZM1125.88 168.68C1130.23 168.68 1133.63 168.264 1136.06 167.432C1138.49 166.536 1140.19 164.936 1141.15 162.632C1142.17 160.328 1142.68 157.064 1142.68 152.84C1142.68 148.552 1142.17 145.288 1141.15 143.048C1140.19 140.744 1138.49 139.176 1136.06 138.344C1133.63 137.448 1130.23 137 1125.88 137C1121.53 137 1118.17 137.448 1115.8 138.344C1113.43 139.176 1111.77 140.744 1110.81 143.048C1109.91 145.288 1109.47 148.552 1109.47 152.84C1109.47 157.064 1109.91 160.328 1110.81 162.632C1111.77 164.936 1113.43 166.536 1115.8 167.432C1118.17 168.264 1121.53 168.68 1125.88 168.68Z" fill="#C3083F"/>
<path d="M1184.74 185H1166.69V120.68H1185.89L1203.75 144.776L1213.16 159.56H1214.41L1213.54 145.544V120.68H1231.59V185H1212.39L1193.38 160.232L1185.22 147.56H1183.97L1184.74 159.848V185Z" fill="#C3083F"/>
</g>
<path d="M314.288 70.6072H326.597L331.58 58.7032H362.122L367.013 70.6072H387.749L381.266 55.6304L316.955 46L308.736 65.0547L314.288 70.6072Z" fill="#C3083F"/>
<path d="M311.269 69.5645L306.705 65L304.736 69.5645H311.269Z" fill="#C3083F"/>
<path d="M303.722 54.9864V48H296.736L303.722 54.9864Z" fill="#C3083F"/>
<path d="M295.124 51L303.525 59.4006V67.224H256.736L274.246 51H295.124Z" fill="#C3083F"/>
<path d="M289.859 44.1227H303.469V41.8052L284.736 39L289.859 44.1227Z" fill="#C3083F"/>
<path d="M278.019 39.8189L283.391 45.1906H260.784V53.2546H269.105L251.595 69.4786H242.736V49.8519L272.551 39L278.019 39.8189Z" fill="#C3083F"/>
<path d="M283.233 36.2927L303.155 39.276V27L281.736 34.7959L283.233 36.2927Z" fill="#C3083F"/>
<path d="M278.965 35.2808L279.835 36.1511L277.524 35.805L278.965 35.2808Z" fill="#C3083F"/>
<path d="M282.275 32.5391L302.988 25H274.736L282.275 32.5391Z" fill="#C3083F"/>
<path d="M268.263 25.2044L276.18 33.1209L273.448 34.1151L243.736 29.6659V17L261.784 22.981V25.2044H268.263Z" fill="#C3083F"/>
<path d="M266.96 17.224H305.818V1H250.736L266.96 17.224Z" fill="#C3083F"/>
<path d="M245.359 0L262.784 17.4247V20.6272L244.736 14.6461V0H245.359Z" fill="#C3083F"/>
<path d="M242.349 11.024C243.134 12.1639 243.764 13.4091 244.238 14.7595L205.736 2H219.405C225.101 2 229.869 2.768 233.709 4.304C237.549 5.84 240.429 8.08 242.349 11.024Z" fill="#C3083F"/>
<path d="M240.472 14.9344L198.424 1H177.736V19.1734L195.784 21.876V17.224H215.08C217.704 17.224 219.56 17.64 220.648 18.472C221.736 19.304 222.28 21 222.28 23.56C222.28 24.4076 222.228 25.1611 222.125 25.8205L239.829 28.4716C240.738 26.2091 241.192 23.6119 241.192 20.68C241.192 18.6022 240.952 16.687 240.472 14.9344Z" fill="#C3083F"/>
<path d="M356.913 3.48149L355.839 1H330.015L323.736 15.557L356.913 3.48149Z" fill="#C3083F"/>
<path d="M236.412 30.2358L218.914 27.6156C218.643 28.5709 218.221 29.2508 217.648 29.6554C216.56 30.4234 214.704 30.8074 212.08 30.8074H192.784V23.7026L174.736 21V42.8774L222.679 40.7584C222.096 40.5611 221.475 40.3801 220.816 40.2154V39.2554C224.912 38.7434 228.24 37.7514 230.8 36.2794C233.36 34.7434 235.216 32.7594 236.368 30.3274L236.393 30.2752L236.412 30.2358Z" fill="#C3083F"/>
<path d="M170.561 15.5517C170.564 16.0951 170.546 16.6262 170.506 17.1451L108.786 8.29987L108.736 0.388916L149.631 0.131243C154.303 0.101807 158.179 0.685398 161.258 1.88202C164.337 3.01464 166.652 4.72809 168.203 7.02237C169.753 9.31664 170.539 12.1597 170.561 15.5517Z" fill="#C3083F"/>
<path fill-rule="evenodd" clip-rule="evenodd" d="M164.289 21.2174L102.736 12V47.1687L120.688 46.3753V42.2457H143.536C145.776 42.2457 147.28 42.5337 148.048 43.1097C148.569 43.5003 148.913 44.1705 149.08 45.1203L166.607 44.3457C165.843 42.1718 164.552 40.2878 162.736 38.6937C159.664 35.9417 154.896 34.4377 148.432 34.1817V33.2217C154.32 32.9657 158.448 31.4937 160.816 28.8057C162.716 26.7059 163.873 24.1764 164.289 21.2174ZM120.688 27.4617V19.3017H141.232C143.088 19.3017 144.4 19.6217 145.168 20.2617C146 20.9017 146.416 21.9577 146.416 23.4297C146.416 24.9017 146.096 25.9577 145.456 26.5977C144.816 27.1737 143.568 27.4617 141.712 27.4617H120.688Z" fill="#C3083F"/>
<path d="M273.485 36.2112L245.741 32.0566V46.3091L273.485 36.2112Z" fill="#C3083F"/>
<path d="M311.736 40.9463L375.169 50.4452L362.857 22L344.254 24.5585L346.12 29.3513L349.828 38.3753H332.742L336.52 29.3513L338.017 25.4161L317.2 28.279L311.736 40.9463Z" fill="#C3083F"/>
<path d="M390.736 67.7168V54L408.784 56.7026V67.7168H390.736Z" fill="#C3083F"/>
<path d="M387.491 52.2719L405.539 54.9745V44.1518H418.691L427.988 58.3362L451.881 61.9141L433.475 34.2638L449.878 11.002L426.604 14.2028L418.499 26.5838H405.539V17.0997L387.491 19.5818V52.2719Z" fill="#C3083F"/>
<path d="M438.68 69.5425L433.736 62L457.642 65.5798L460.28 69.5425H438.68Z" fill="#C3083F"/>
<path d="M234.687 49.8261C233.542 47.6248 232.286 45.7817 230.92 44.2969C230.173 43.4142 229.156 42.6486 227.869 42L177.736 44.2158V66.4729H188.951L195.784 63.9858V44.5849H203.176C205.544 44.5849 207.4 44.7769 208.744 45.1609C210.088 45.4809 211.176 46.0889 212.008 46.9849C212.84 47.8809 213.64 49.1289 214.408 50.7289L217.092 56.2304L234.687 49.8261Z" fill="#C3083F"/>
<path d="M173.575 50.2016C173.488 48.7044 173.232 47.314 172.806 46.0304L155.155 47.8353C155.173 48.0095 155.188 48.1907 155.199 48.3788C155.302 50.1679 154.957 51.4058 154.164 52.0928C153.43 52.7121 151.977 53.0846 149.805 53.2101L126.995 54.5284L126.776 50.7373L108.9 52.5652L110.009 71.7612L153.041 69.2742C158.153 68.9787 162.231 68.0058 165.277 66.3553C168.387 64.7011 170.599 62.4898 171.913 59.7213C173.228 56.9529 173.782 53.7796 173.575 50.2016Z" fill="#C3083F"/>
<path d="M215.736 59.4086L233.343 53L241.123 68.7474H220.291L215.736 59.4086Z" fill="#C3083F"/>
<path d="M194.241 67.324L191.141 70.0989L194.77 68.6449L194.241 67.324Z" fill="#C3083F"/>
<path d="M327.706 16.4185L361.825 4L368.518 19.4632L349.954 22.0162L347.969 16.9192H346.721L344.496 22.7668L323.736 25.6218L327.706 16.4185Z" fill="#C3083F"/>
<path d="M428.736 10.4137L452.073 7.2043L457.153 0H435.553L428.736 10.4137Z" fill="#C3083F"/>
<path d="M402.784 15.4105L384.736 17.8925V2H402.784V15.4105Z" fill="#C3083F"/>
<defs>
<filter id="filter0_dd_158_9" x="671.546" y="105.72" width="574.043" height="94.24" filterUnits="userSpaceOnUse" color-interpolation-filters="sRGB">
<feFlood flood-opacity="0" result="BackgroundImageFix"/>
<feColorMatrix in="SourceAlpha" type="matrix" values="0 0 0 0 0 0 0 0 0 0 0 0 0 0 0 0 0 0 127 0" result="hardAlpha"/>
<feOffset dx="-2" dy="-2"/>
<feGaussianBlur stdDeviation="6"/>
<feComposite in2="hardAlpha" operator="out"/>
<feColorMatrix type="matrix" values="0 0 0 0 0.764706 0 0 0 0 0.0313726 0 0 0 0 0.247059 0 0 0 0.5 0"/>
<feBlend mode="normal" in2="BackgroundImageFix" result="effect1_dropShadow_158_9"/>
<feColorMatrix in="SourceAlpha" type="matrix" values="0 0 0 0 0 0 0 0 0 0 0 0 0 0 0 0 0 0 127 0" result="hardAlpha"/>
<feOffset dx="2" dy="2"/>
<feGaussianBlur stdDeviation="6"/>
<feComposite in2="hardAlpha" operator="out"/>
<feColorMatrix type="matrix" values="0 0 0 0 0.764706 0 0 0 0 0.0313726 0 0 0 0 0.247059 0 0 0 0.5 0"/>
<feBlend mode="normal" in2="effect1_dropShadow_158_9" result="effect2_dropShadow_158_9"/>
<feBlend mode="normal" in="SourceGraphic" in2="effect2_dropShadow_158_9" result="shape"/>
</filter>
</defs>
</svg>
