<svg width="95" height="37" viewBox="0 0 95 37" fill="none" xmlns="http://www.w3.org/2000/svg">
<path d="M89.6671 26.3263C88.0546 25.9158 86.6634 25.5685 86.6634 24.2422C86.6634 23.2001 87.4539 22.5369 88.7186 22.5369C89.8885 22.4738 90.9635 23.2632 91.1848 24.4316L94.3466 22.9159C93.4929 20.8317 91.4378 19.5685 88.8135 19.5685C85.3987 19.5685 83.0274 21.6527 83.0274 24.6211C83.0274 28.2526 85.6517 28.9474 87.9914 29.5473C89.6355 29.9579 91.0267 30.3368 91.0267 31.6947C91.0267 32.8315 90.1098 33.5578 88.7186 33.5578C87.3274 33.5578 86.1575 32.7999 85.8414 31.6631L82.6796 33.1789C83.5649 35.263 85.8097 36.5262 88.5921 36.5262C92.2914 36.5262 94.6628 34.4736 94.6628 31.2526C94.6628 27.5895 91.8804 26.8948 89.6671 26.3263Z" fill="#F1F7F7"/>
<path d="M94.9157 4.8844V6.55806H92.2281V8.13698H94.5679L94.1252 9.74748H92.2281V12.2422H90.3943V4.8844H94.9157Z" fill="#F1F7F7"/>
<path d="M85.7781 6.58965C86.9163 6.58965 87.8332 7.50542 87.8332 8.64225C87.8332 9.77907 86.9163 10.6948 85.7781 10.6948C84.6398 10.6948 83.7229 9.77907 83.7229 8.64225C83.7229 7.50542 84.6398 6.58965 85.7781 6.58965ZM85.7781 12.4632C87.8965 12.4632 89.6038 10.7264 89.6038 8.61067C89.6038 6.49491 87.8648 4.78967 85.7464 4.78967C83.628 4.78967 81.9207 6.52649 81.9207 8.61067C81.9207 10.758 83.6596 12.4948 85.7781 12.4632Z" fill="#F1F7F7"/>
<path d="M52.0733 36.0525H55.488V25.2842L63.2344 36.0525H66.8073V19.6633H63.3609V30.5894L55.7094 19.6633H51.2828L52.0733 21.2738V36.0525Z" fill="#F1F7F7"/>
<path d="M78.3795 29.8C77.9052 30.9684 76.9567 31.8842 75.8184 32.3894C75.2177 32.642 74.5853 32.7684 73.9213 32.7684H71.961V22.979H73.9213C74.5853 22.979 75.2177 23.1053 75.8184 23.358C76.9883 23.8317 77.9052 24.779 78.3795 25.9474C78.8853 27.2105 78.8853 28.5684 78.3795 29.8ZM77.2412 20.3264C76.1978 19.9159 75.0912 19.6949 73.9846 19.6317H68.3882V36.0209H73.9846C76.1978 36.0209 78.3162 35.1999 79.9287 33.6841C80.6876 32.9578 81.3199 32.0736 81.731 31.0947C83.0905 28 82.3633 24.4001 79.9287 22.0633C79.1383 21.337 78.253 20.737 77.2412 20.3264Z" fill="#F1F7F7"/>
<path d="M21.9415 36.0525H12.1715V19.6633H21.9415V22.8527H15.7443V26.1684H21.404L20.5503 29.2631H15.7443V32.8631L21.9415 32.8946V36.0525Z" fill="#F1F7F7"/>
<path d="M44.2637 22.8527H50.4609V19.6633H40.7225V36.0525H50.4609V32.8946L44.2637 32.8631V29.2631H49.0697L49.9234 26.1684H44.2637V22.8527Z" fill="#F1F7F7"/>
<path d="M56.6579 13.2527C56.3417 12.3369 56.1837 11.3896 56.2153 10.4422L56.2785 0.33712H59.8197L59.7881 10.2843C59.7881 11.3896 60.0411 12.2738 60.547 12.9054C61.7484 14.1685 63.772 14.2001 65.0051 12.9685L65.0683 12.9054C65.6058 12.2738 65.8588 11.3896 65.8588 10.2843L65.8904 0.305542H69.4949L69.4316 10.5054C69.4316 11.4527 69.3052 12.4001 68.989 13.3159C68.7044 14.1053 68.2301 14.8316 67.661 15.4632C67.0603 16.0632 66.3647 16.5369 65.5742 16.8211C63.772 17.4527 61.8117 17.4527 60.0095 16.7895C59.219 16.4737 58.5234 16.0316 57.9543 15.4C57.3852 14.8 56.9425 14.0738 56.6579 13.2527Z" fill="#F1F7F7"/>
<path d="M38.8886 11.9896C38.4459 10.9475 38.2246 9.81064 38.2246 8.70539C38.2246 7.56857 38.4776 6.46332 38.9202 5.42123C39.3629 4.41072 39.9952 3.49495 40.7857 2.73706C41.5761 1.9476 42.5247 1.34761 43.5364 0.937089C44.5798 0.49499 45.7181 0.273941 46.8879 0.30552C48.4372 0.273924 49.9865 0.684461 51.3461 1.44234C52.6108 2.16865 53.6542 3.24232 54.3182 4.56861L51.0931 6.08438C50.7137 5.3265 50.113 4.69493 49.3858 4.25283C48.6269 3.81073 47.7416 3.62126 46.8563 3.62126C46.1923 3.62126 45.4967 3.74758 44.896 4.0002C44.2953 4.25283 43.7578 4.63177 43.3151 5.10545C42.8408 5.57913 42.493 6.14754 42.2401 6.74753C41.7026 8.04225 41.7026 9.46328 42.2085 10.758C42.6827 11.9896 43.6629 13.0001 44.8644 13.5369C45.4967 13.8211 46.1607 13.979 46.8563 13.9474C47.8681 13.979 48.8799 13.6632 49.7019 13.0948C50.4608 12.558 50.9983 11.7369 51.2196 10.8212H45.3703L46.8247 7.85278H54.9821C55.0138 8.48435 54.9821 9.84222 54.9505 10.1264C54.8556 10.8843 54.6659 11.6422 54.3814 12.3685C53.5909 14.3264 52.0417 15.8421 50.0813 16.6316C46.8563 17.9263 43.1886 17.1684 40.7224 14.7053C39.932 13.9158 39.3312 13.0001 38.8886 11.9896Z" fill="#F1F7F7"/>
<path d="M0.883835 15.0842V2.04233L0.0617676 0.337097H4.42505V13.5685H10.97L10.053 16.7895H0.0617676L0.883835 15.0842Z" fill="#F1F7F7"/>
<path d="M0.883835 34.3472V21.3053L0.0617676 19.6001H4.42505V32.8315H10.97L10.053 36.0525H0.0617676L0.883835 34.3472Z" fill="#F1F7F7"/>
<path d="M21.9415 16.7897H12.1715V0.400452H21.9415V3.58988H15.7443V6.90562H21.404L20.5503 10.0003H15.7443V13.5687L21.9415 13.6003V16.7897Z" fill="#F1F7F7"/>
<path d="M80.814 16.7897H71.0757V0.400452H80.8456V3.58988H74.6485V6.90562H80.3081L79.4544 10.0003H74.6485V13.5687L80.8456 13.6003V16.7897L80.814 16.7897Z" fill="#F1F7F7"/>
<path d="M31.3004 4.94755L33.3556 10.4738H29.1504L31.3004 4.94755ZM26.7158 16.7895L27.9489 13.6001H34.5254L35.7901 16.7895H39.4894L32.8813 0.337097H27.8224L28.8974 2.48443L23.0797 16.7895H26.7158Z" fill="#F1F7F7"/>
<path d="M29.34 36.3052C29.9407 36.4315 30.5415 36.4946 31.1738 36.4946C32.2805 36.5262 33.3871 36.3052 34.4305 35.8946C36.3908 35.1052 37.9401 33.5894 38.7305 31.6315C39.0151 30.9052 39.2048 30.1474 39.2996 29.3895C39.3629 28.6316 39.3629 27.8737 39.3313 27.0842H31.1738V27.1158L29.7194 30.0842H35.5371C35.3158 31 34.7783 31.821 34.0194 32.3579C33.1974 32.9578 32.2172 33.242 31.2054 33.2105C30.8893 33.2105 30.6047 33.1789 30.2885 33.1157L29.5613 32.9263C29.4348 32.8947 29.34 32.8315 29.2135 32.7999C28.012 32.2631 27.0319 31.2842 26.5576 30.021C26.0517 28.7263 26.0517 27.2737 26.5892 25.979C26.8422 25.379 27.2216 24.8106 27.6642 24.3369C28.1069 23.8632 28.676 23.5159 29.2767 23.2632C29.9091 23.0106 30.5731 22.8843 31.2371 22.8843C32.1224 22.8527 33.0077 23.0738 33.7665 23.5159C34.4937 23.958 35.0945 24.5895 35.4739 25.3474L38.6989 23.8317C38.0349 22.5054 37.0232 21.4317 35.7268 20.7054C34.3672 19.9475 32.8496 19.5686 31.2687 19.5686C28.9922 19.537 26.8105 20.4212 25.1664 22.0317C24.376 22.7896 23.7436 23.7053 23.3009 24.7159C22.384 26.8 22.384 29.2 23.2693 31.2842C23.712 32.2947 24.3127 33.2105 25.0716 33.9999C25.7672 34.6947 26.5892 35.2631 27.4745 35.7052C28.0963 35.9849 28.7182 36.2119 29.34 36.3052Z" fill="#F1F7F7"/>
</svg>
