<svg width="95" height="37" viewBox="0 0 95 37" fill="none" xmlns="http://www.w3.org/2000/svg">
<path d="M89.667 26.3263C88.0545 25.9158 86.6633 25.5685 86.6633 24.2422C86.6633 23.2001 87.4538 22.5369 88.7185 22.5369C89.8883 22.4738 90.9634 23.2632 91.1847 24.4316L94.3465 22.9159C93.4928 20.8317 91.4376 19.5685 88.8133 19.5685C85.3986 19.5685 83.0272 21.6527 83.0272 24.6211C83.0272 28.2526 85.6515 28.9474 87.9913 29.5473C89.6354 29.9579 91.0266 30.3368 91.0266 31.6947C91.0266 32.8315 90.1097 33.5578 88.7185 33.5578C87.3273 33.5578 86.1574 32.7999 85.8412 31.6631L82.6794 33.1789C83.5647 35.263 85.8096 36.5262 88.592 36.5262C92.2913 36.5262 94.6627 34.4736 94.6627 31.2526C94.6627 27.5895 91.8803 26.8948 89.667 26.3263Z" fill="#F1F7F7"/>
<path d="M94.9157 4.8844V6.55806H92.2281V8.13698H94.5679L94.1252 9.74748H92.2281V12.2422H90.3943V4.8844H94.9157Z" fill="#F1F7F7"/>
<path d="M85.7781 6.58965C86.9163 6.58965 87.8332 7.50542 87.8332 8.64225C87.8332 9.77907 86.9163 10.6948 85.7781 10.6948C84.6398 10.6948 83.7229 9.77907 83.7229 8.64225C83.7229 7.50542 84.6398 6.58965 85.7781 6.58965ZM85.7781 12.4632C87.8965 12.4632 89.6038 10.7264 89.6038 8.61067C89.6038 6.49491 87.8648 4.78967 85.7464 4.78967C83.628 4.78967 81.9207 6.52649 81.9207 8.61067C81.9207 10.758 83.6596 12.4948 85.7781 12.4632Z" fill="#F1F7F7"/>
<path d="M52.0734 36.0525H55.4882V25.2842L63.2346 36.0525H66.8074V19.6633H63.361V30.5894L55.7095 19.6633H51.283L52.0734 21.2738V36.0525Z" fill="#F1F7F7"/>
<path d="M78.3795 29.8C77.9052 30.9684 76.9567 31.8842 75.8184 32.3894C75.2177 32.642 74.5853 32.7684 73.9213 32.7684H71.961V22.979H73.9213C74.5853 22.979 75.2177 23.1053 75.8184 23.358C76.9883 23.8317 77.9052 24.779 78.3795 25.9474C78.8853 27.2105 78.8853 28.5684 78.3795 29.8ZM77.2412 20.3264C76.1978 19.9159 75.0912 19.6949 73.9846 19.6317H68.3882V36.0209H73.9846C76.1978 36.0209 78.3162 35.1999 79.9287 33.6841C80.6876 32.9578 81.3199 32.0736 81.731 31.0947C83.0905 28 82.3633 24.4001 79.9287 22.0633C79.1383 21.337 78.253 20.737 77.2412 20.3264Z" fill="#F1F7F7"/>
<path d="M21.9413 36.0525H12.1714V19.6633H21.9413V22.8527H15.7442V26.1684H21.4038L20.5502 29.2631H15.7442V32.8631L21.9413 32.8946V36.0525Z" fill="#F1F7F7"/>
<path d="M44.2636 22.8527H50.4607V19.6633H40.7224V36.0525H50.4607V32.8946L44.2636 32.8631V29.2631H49.0696L49.9232 26.1684H44.2636V22.8527Z" fill="#F1F7F7"/>
<path d="M56.658 13.2527C56.3419 12.3369 56.1838 11.3896 56.2154 10.4422L56.2786 0.33712H59.8198L59.7882 10.2843C59.7882 11.3896 60.0412 12.2738 60.5471 12.9054C61.7486 14.1685 63.7721 14.2001 65.0052 12.9685L65.0684 12.9054C65.606 12.2738 65.8589 11.3896 65.8589 10.2843L65.8905 0.305542H69.495L69.4317 10.5054C69.4317 11.4527 69.3053 12.4001 68.9891 13.3159C68.7045 14.1053 68.2303 14.8316 67.6611 15.4632C67.0604 16.0632 66.3648 16.5369 65.5743 16.8211C63.7721 17.4527 61.8118 17.4527 60.0096 16.7895C59.2191 16.4737 58.5235 16.0316 57.9544 15.4C57.3853 14.8 56.9426 14.0738 56.658 13.2527Z" fill="#F1F7F7"/>
<path d="M38.8886 11.9896C38.4459 10.9475 38.2246 9.81064 38.2246 8.70539C38.2246 7.56857 38.4776 6.46332 38.9202 5.42123C39.3629 4.41072 39.9952 3.49495 40.7857 2.73706C41.5761 1.9476 42.5247 1.34761 43.5364 0.937089C44.5798 0.49499 45.7181 0.273941 46.8879 0.30552C48.4372 0.273924 49.9865 0.684461 51.3461 1.44234C52.6108 2.16865 53.6542 3.24232 54.3182 4.56861L51.0931 6.08438C50.7137 5.3265 50.113 4.69493 49.3858 4.25283C48.6269 3.81073 47.7416 3.62126 46.8563 3.62126C46.1923 3.62126 45.4967 3.74758 44.896 4.0002C44.2953 4.25283 43.7578 4.63177 43.3151 5.10545C42.8408 5.57913 42.493 6.14754 42.2401 6.74753C41.7026 8.04225 41.7026 9.46328 42.2085 10.758C42.6827 11.9896 43.6629 13.0001 44.8644 13.5369C45.4967 13.8211 46.1607 13.979 46.8563 13.9474C47.8681 13.979 48.8799 13.6632 49.7019 13.0948C50.4608 12.558 50.9983 11.7369 51.2196 10.8212H45.3703L46.8247 7.85278H54.9821C55.0138 8.48435 54.9821 9.84222 54.9505 10.1264C54.8556 10.8843 54.6659 11.6422 54.3814 12.3685C53.5909 14.3264 52.0417 15.8421 50.0813 16.6316C46.8563 17.9263 43.1886 17.1684 40.7224 14.7053C39.932 13.9158 39.3312 13.0001 38.8886 11.9896Z" fill="#F1F7F7"/>
<path d="M0.883835 15.0842V2.04233L0.0617676 0.337097H4.42505V13.5685H10.97L10.053 16.7895H0.0617676L0.883835 15.0842Z" fill="#F1F7F7"/>
<path d="M0.883835 34.3472V21.3053L0.0617676 19.6001H4.42505V32.8315H10.97L10.053 36.0525H0.0617676L0.883835 34.3472Z" fill="#F1F7F7"/>
<path d="M21.9413 16.7897H12.1714V0.400452H21.9413V3.58988H15.7442V6.90562H21.4038L20.5502 10.0003H15.7442V13.5687L21.9413 13.6003V16.7897Z" fill="#F1F7F7"/>
<path d="M80.814 16.7897H71.0757V0.400452H80.8456V3.58988H74.6485V6.90562H80.3081L79.4544 10.0003H74.6485V13.5687L80.8456 13.6003V16.7897L80.814 16.7897Z" fill="#F1F7F7"/>
<path d="M31.3003 4.94755L33.3554 10.4738H29.1502L31.3003 4.94755ZM26.7157 16.7895L27.9488 13.6001H34.5253L35.79 16.7895H39.4893L32.8812 0.337097H27.8223L28.8973 2.48443L23.0796 16.7895H26.7157Z" fill="#F1F7F7"/>
<path d="M29.3401 36.3052C29.9408 36.4315 30.5416 36.4946 31.1739 36.4946C32.2806 36.5262 33.3872 36.3052 34.4306 35.8946C36.3909 35.1052 37.9402 33.5894 38.7306 31.6315C39.0152 30.9052 39.2049 30.1474 39.2998 29.3895C39.363 28.6316 39.363 27.8737 39.3314 27.0842H31.1739V27.1158L29.7195 30.0842H35.5372C35.3159 31 34.7784 31.821 34.0196 32.3579C33.1975 32.9578 32.2173 33.242 31.2056 33.2105C30.8894 33.2105 30.6048 33.1789 30.2886 33.1157L29.5614 32.9263C29.435 32.8947 29.3401 32.8315 29.2136 32.7999C28.0121 32.2631 27.032 31.2842 26.5577 30.021C26.0518 28.7263 26.0518 27.2737 26.5893 25.979C26.8423 25.379 27.2217 24.8106 27.6644 24.3369C28.107 23.8632 28.6761 23.5159 29.2769 23.2632C29.9092 23.0106 30.5732 22.8843 31.2372 22.8843C32.1225 22.8527 33.0078 23.0738 33.7666 23.5159C34.4938 23.958 35.0946 24.5895 35.474 25.3474L38.699 23.8317C38.035 22.5054 37.0233 21.4317 35.7269 20.7054C34.3674 19.9475 32.8497 19.5686 31.2688 19.5686C28.9923 19.537 26.8107 20.4212 25.1665 22.0317C24.3761 22.7896 23.7437 23.7053 23.3011 24.7159C22.3841 26.8 22.3841 29.2 23.2695 31.2842C23.7121 32.2947 24.3128 33.2105 25.0717 33.9999C25.7673 34.6947 26.5893 35.2631 27.4746 35.7052C28.0965 35.9849 28.7183 36.2119 29.3401 36.3052Z" fill="#F1F7F7"/>
</svg>
