<svg width="114" height="46" viewBox="0 0 114 46" fill="none" xmlns="http://www.w3.org/2000/svg">
<path d="M10.2135 36.2588H0V0H10.2135V36.2588Z" fill="#F1F7F7"/>
<path d="M28.6331 36.8C25.4821 36.8 22.6933 36.2408 20.2666 35.1224C17.8762 33.9678 16.011 32.3263 14.6709 30.1976C13.3309 28.069 12.6608 25.5435 12.6608 22.6212C12.6608 19.6627 13.3309 17.1373 14.6709 15.0447C16.011 12.9161 17.8762 11.2925 20.2666 10.1741C22.6933 9.01961 25.4821 8.44235 28.6331 8.44235C31.8203 8.44235 34.6091 9.01961 36.9995 10.1741C39.3899 11.2925 41.2551 12.9161 42.5952 15.0447C43.9353 17.1373 44.6053 19.6627 44.6053 22.6212C44.6053 25.5435 43.9353 28.069 42.5952 30.1976C41.2551 32.3263 39.3899 33.9678 36.9995 35.1224C34.6091 36.2408 31.8203 36.8 28.6331 36.8ZM28.6331 27.8165C30.951 27.8165 32.5084 27.4557 33.3052 26.7341C34.102 25.9765 34.5004 24.6055 34.5004 22.6212C34.5004 20.6369 34.102 19.2659 33.3052 18.5082C32.5084 17.7506 30.951 17.3718 28.6331 17.3718C26.3151 17.3718 24.7577 17.7506 23.9609 18.5082C23.1641 19.2659 22.7657 20.6369 22.7657 22.6212C22.7657 24.6055 23.1641 25.9765 23.9609 26.7341C24.7577 27.4557 26.3151 27.8165 28.6331 27.8165Z" fill="#F1F7F7"/>
<path d="M63.2485 46C60.0613 46 57.3449 45.5671 55.0994 44.7012C52.8539 43.8353 51.1335 42.5725 49.9383 40.9129C48.7431 39.2533 48.1455 37.2329 48.1455 34.8518H58.359C58.359 35.5733 58.4496 36.1325 58.6307 36.5294C58.848 36.9624 59.3369 37.251 60.0975 37.3953C60.8943 37.5396 62.1801 37.6118 63.9548 37.6118C65.4397 37.6118 66.5625 37.4855 67.323 37.2329C68.1198 37.0165 68.6631 36.5294 68.9529 35.7718C69.2426 35.0141 69.3875 33.8776 69.3875 32.3624V15.6941H70.0394V8.98353H79.601V31.6588C79.601 34.9059 78.9672 37.5757 77.6996 39.6682C76.4319 41.7969 74.5848 43.3843 72.1582 44.4306C69.7316 45.4769 66.7617 46 63.2485 46ZM59.2283 33.2282C56.5119 33.2282 54.212 32.7412 52.3287 31.7671C50.4453 30.7569 48.9966 29.3318 47.9825 27.4918C47.0046 25.6157 46.5157 23.3788 46.5157 20.7812C46.5157 18.2196 47.0227 16.0188 48.0368 14.1788C49.0872 12.3388 50.5902 10.9318 52.546 9.95765C54.5018 8.94745 56.8198 8.44235 59.4999 8.44235C62.2887 8.44235 64.5524 9.01961 66.2908 10.1741C68.0655 11.2925 69.134 13.0243 69.4961 15.3694H71.1803L70.4197 20.7271H69.3875C69.3875 19.7529 69.1521 19.0133 68.6812 18.5082C68.2466 18.0031 67.5585 17.6604 66.6168 17.48C65.6751 17.2996 64.4437 17.2094 62.9225 17.2094C61.3289 17.2094 60.0794 17.3357 59.1739 17.5882C58.3047 17.8047 57.689 18.1655 57.3268 18.6706C57.0008 19.1757 56.8379 19.8792 56.8379 20.7812C56.8379 21.6831 57.0008 22.4047 57.3268 22.9459C57.689 23.4871 58.3047 23.8839 59.1739 24.1365C60.0794 24.389 61.3289 24.5153 62.9225 24.5153C65.2043 24.5153 66.8522 24.3169 67.8663 23.92C68.8804 23.4871 69.3875 22.549 69.3875 21.1059H70.4197V26.6259H68.8442C68.482 28.6102 67.5404 30.2157 66.0192 31.4424C64.498 32.6329 62.2344 33.2282 59.2283 33.2282Z" fill="#F1F7F7"/>
<path d="M98.0278 36.8C94.8768 36.8 92.088 36.2408 89.6613 35.1224C87.2709 33.9678 85.4057 32.3263 84.0656 30.1976C82.7256 28.069 82.0555 25.5435 82.0555 22.6212C82.0555 19.6627 82.7256 17.1373 84.0656 15.0447C85.4057 12.9161 87.2709 11.2925 89.6613 10.1741C92.088 9.01961 94.8768 8.44235 98.0278 8.44235C101.215 8.44235 104.004 9.01961 106.394 10.1741C108.785 11.2925 110.65 12.9161 111.99 15.0447C113.33 17.1373 114 19.6627 114 22.6212C114 25.5435 113.33 28.069 111.99 30.1976C110.65 32.3263 108.785 33.9678 106.394 35.1224C104.004 36.2408 101.215 36.8 98.0278 36.8ZM98.0278 27.8165C100.346 27.8165 101.903 27.4557 102.7 26.7341C103.497 25.9765 103.895 24.6055 103.895 22.6212C103.895 20.6369 103.497 19.2659 102.7 18.5082C101.903 17.7506 100.346 17.3718 98.0278 17.3718C95.7098 17.3718 94.1524 17.7506 93.3556 18.5082C92.5588 19.2659 92.1604 20.6369 92.1604 22.6212C92.1604 24.6055 92.5588 25.9765 93.3556 26.7341C94.1524 27.4557 95.7098 27.8165 98.0278 27.8165Z" fill="#F1F7F7"/>
</svg>
