<svg width="85" height="35" viewBox="0 0 85 35" fill="none" xmlns="http://www.w3.org/2000/svg">
<path d="M7.61536 27.0351H0V0H7.61536V27.0351Z" fill="#F1F7F7"/>
<path d="M21.3492 27.4386C18.9998 27.4386 16.9204 27.0216 15.1111 26.1877C13.3288 25.3269 11.938 24.1029 10.9389 22.5158C9.93967 20.9287 9.44008 19.0456 9.44008 16.8667C9.44008 14.6608 9.93967 12.7778 10.9389 11.2175C11.938 9.63041 13.3288 8.41988 15.1111 7.58597C16.9204 6.72515 18.9998 6.29474 21.3492 6.29474C23.7256 6.29474 25.805 6.72515 27.5873 7.58597C29.3696 8.41988 30.7604 9.63041 31.7596 11.2175C32.7587 12.7778 33.2583 14.6608 33.2583 16.8667C33.2583 19.0456 32.7587 20.9287 31.7596 22.5158C30.7604 24.1029 29.3696 25.3269 27.5873 26.1877C25.805 27.0216 23.7256 27.4386 21.3492 27.4386ZM21.3492 20.7404C23.0775 20.7404 24.2387 20.4713 24.8328 19.9333C25.4269 19.3684 25.724 18.3462 25.724 16.8667C25.724 15.3871 25.4269 14.3649 24.8328 13.8C24.2387 13.2351 23.0775 12.9526 21.3492 12.9526C19.6209 12.9526 18.4597 13.2351 17.8656 13.8C17.2715 14.3649 16.9744 15.3871 16.9744 16.8667C16.9744 18.3462 17.2715 19.3684 17.8656 19.9333C18.4597 20.4713 19.6209 20.7404 21.3492 20.7404Z" fill="#F1F7F7"/>
<path d="M47.159 34.2982C44.7825 34.2982 42.7572 33.9754 41.0829 33.3298C39.4086 32.6842 38.1258 31.7427 37.2347 30.5053C36.3435 29.2678 35.898 27.7614 35.898 25.986H43.5133C43.5133 26.524 43.5808 26.9409 43.7158 27.2368C43.8779 27.5597 44.2424 27.7749 44.8095 27.8825C45.4037 27.9901 46.3623 28.0439 47.6856 28.0439C48.7928 28.0439 49.6299 27.9497 50.197 27.7614C50.7911 27.6 51.1962 27.2368 51.4122 26.6719C51.6283 26.107 51.7363 25.2596 51.7363 24.1298V11.7018H52.2224V6.69825H59.3516V23.6053C59.3516 26.0263 58.8791 28.017 57.9339 29.5772C56.9887 31.1643 55.6115 32.348 53.8022 33.1281C51.9928 33.9082 49.7784 34.2982 47.159 34.2982ZM44.1614 24.7754C42.1361 24.7754 40.4213 24.4123 39.017 23.686C37.6128 22.9327 36.5326 21.8702 35.7764 20.4982C35.0473 19.0994 34.6827 17.4316 34.6827 15.4947C34.6827 13.5848 35.0608 11.9439 35.8169 10.5719C36.6001 9.2 37.7208 8.15088 39.179 7.42456C40.6373 6.67135 42.3656 6.29474 44.364 6.29474C46.4433 6.29474 48.1311 6.72515 49.4274 7.58597C50.7506 8.41988 51.5472 9.71111 51.8173 11.4596H53.073L52.5059 15.4544H51.7363C51.7363 14.7281 51.5607 14.1766 51.2097 13.8C50.8856 13.4234 50.3725 13.1678 49.6704 13.0333C48.9683 12.8988 48.0501 12.8316 46.9159 12.8316C45.7277 12.8316 44.796 12.9257 44.1209 13.114C43.4728 13.2754 43.0137 13.5444 42.7437 13.9211C42.5006 14.2977 42.3791 14.8222 42.3791 15.4947C42.3791 16.1673 42.5006 16.7053 42.7437 17.1088C43.0137 17.5123 43.4728 17.8082 44.1209 17.9965C44.796 18.1848 45.7277 18.2789 46.9159 18.2789C48.6172 18.2789 49.8459 18.131 50.6021 17.8351C51.3582 17.5123 51.7363 16.8129 51.7363 15.7368H52.5059V19.8526H51.3312C51.0612 21.3322 50.359 22.5292 49.2248 23.4439C48.0906 24.3316 46.4028 24.7754 44.1614 24.7754Z" fill="#F1F7F7"/>
<path d="M73.0909 27.4386C70.7414 27.4386 68.6621 27.0216 66.8528 26.1877C65.0704 25.3269 63.6797 24.1029 62.6805 22.5158C61.6813 20.9287 61.1817 19.0456 61.1817 16.8667C61.1817 14.6608 61.6813 12.7778 62.6805 11.2175C63.6797 9.63041 65.0704 8.41988 66.8528 7.58597C68.6621 6.72515 70.7414 6.29474 73.0909 6.29474C75.4673 6.29474 77.5467 6.72515 79.329 7.58597C81.1113 8.41988 82.5021 9.63041 83.5012 11.2175C84.5004 12.7778 85 14.6608 85 16.8667C85 19.0456 84.5004 20.9287 83.5012 22.5158C82.5021 24.1029 81.1113 25.3269 79.329 26.1877C77.5467 27.0216 75.4673 27.4386 73.0909 27.4386ZM73.0909 20.7404C74.8192 20.7404 75.9804 20.4713 76.5745 19.9333C77.1686 19.3684 77.4657 18.3462 77.4657 16.8667C77.4657 15.3871 77.1686 14.3649 76.5745 13.8C75.9804 13.2351 74.8192 12.9526 73.0909 12.9526C71.3626 12.9526 70.2014 13.2351 69.6072 13.8C69.0131 14.3649 68.7161 15.3871 68.7161 16.8667C68.7161 18.3462 69.0131 19.3684 69.6072 19.9333C70.2014 20.4713 71.3626 20.7404 73.0909 20.7404Z" fill="#F1F7F7"/>
</svg>
