<svg width="36" height="36" viewBox="0 0 36 36" fill="none" xmlns="http://www.w3.org/2000/svg">
<path d="M17.9992 29.4859L9.75858 34.6837C9.39454 34.9263 9.01396 35.0302 8.61682 34.9956C8.21968 34.9609 7.87219 34.8223 7.57434 34.5798C7.27649 34.3372 7.04482 34.0343 6.87935 33.6712C6.71388 33.308 6.68078 32.9005 6.78007 32.4487L8.96431 22.6249L1.66694 16.0237C1.336 15.7118 1.12948 15.3563 1.04741 14.9571C0.965335 14.5579 0.989825 14.1684 1.12088 13.7886C1.25326 13.4075 1.45183 13.0956 1.71658 12.853C1.98134 12.6105 2.34538 12.4545 2.80871 12.3852L12.4393 11.5016L16.1624 2.24954C16.3279 1.83372 16.5847 1.52185 16.9328 1.31394C17.281 1.10603 17.6364 1.00208 17.9992 1.00208C18.3632 1.00208 18.7186 1.10603 19.0655 1.31394C19.4123 1.52185 19.6691 1.83372 19.8359 2.24954L23.5591 11.5016L33.1896 12.3852C33.6529 12.4545 34.017 12.6105 34.2817 12.853C34.5465 13.0956 34.745 13.4075 34.8774 13.7886C35.0098 14.1698 35.035 14.56 34.9529 14.9592C34.8708 15.3584 34.6636 15.7132 34.3314 16.0237L27.034 22.6249L29.2182 32.4487C29.3175 32.8991 29.2844 33.3066 29.119 33.6712C28.9535 34.0357 28.7218 34.3386 28.424 34.5798C28.1261 34.8223 27.7786 34.9609 27.3815 34.9956C26.9844 35.0302 26.6038 34.9263 26.2397 34.6837L17.9992 29.4859Z" fill="#C3083F" stroke="#C3083F" stroke-width="1.5"/>
</svg>
