<svg width="52" height="52" viewBox="0 0 52 52" fill="none" xmlns="http://www.w3.org/2000/svg">
<path d="M47.5153 7.66876L3.71784 51.4156C3.29927 51.8345 2.78502 52.029 2.17511 51.9991C1.56519 51.9721 1.04945 51.7477 0.62789 51.3258C0.206329 50.9038 -0.00295821 50.4041 3.15821e-05 49.8266C0.00302137 49.249 0.212308 48.7493 0.62789 48.3273L44.3446 4.49077H4.91077C4.27394 4.49077 3.74026 4.27531 3.30973 3.8444C2.8792 3.41348 2.66543 2.87933 2.66842 2.24193C2.67141 1.60454 2.88518 1.07188 3.30973 0.643959C3.73428 0.216037 4.26796 0.0020752 4.91077 0.0020752H48.3764C49.4019 0.0020752 50.2614 0.3492 50.9551 1.04345C51.6487 1.7377 51.997 2.59953 52 3.62894V47.1333C52 47.7707 51.7832 48.3034 51.3497 48.7313C50.9162 49.1592 50.384 49.3747 49.7532 49.3777C49.1223 49.3807 48.5901 49.1652 48.1566 48.7313C47.7231 48.2974 47.5078 47.7647 47.5108 47.1333L47.5153 7.66876Z" fill="#F1F7F7"/>
</svg>
