<svg width="37" height="37" viewBox="0 0 37 37" fill="none" xmlns="http://www.w3.org/2000/svg">
<path d="M21.4024 17.4743L17.7723 13.8462C17.5805 13.6544 17.4914 13.4249 17.5051 13.1576C17.5174 12.8918 17.6202 12.6622 17.8134 12.469C18.0053 12.2772 18.2431 12.1812 18.5267 12.1812C18.8104 12.1812 19.0433 12.2772 19.2256 12.469L24.0973 17.3407C24.4289 17.6723 24.5947 18.0594 24.5947 18.5021C24.5947 18.9447 24.4289 19.3318 24.0973 19.6635L19.1886 24.5742C18.9968 24.766 18.7672 24.862 18.5 24.862C18.2328 24.862 18.0032 24.766 17.8114 24.5742C17.6195 24.3823 17.5236 24.1439 17.5236 23.8589C17.5236 23.5752 17.6195 23.3422 17.8114 23.16L21.4024 19.5299H12.3333C12.0414 19.5299 11.7975 19.4312 11.6016 19.2339C11.4042 19.0365 11.3056 18.7919 11.3056 18.5C11.3056 18.2081 11.4042 17.9642 11.6016 17.7682C11.7975 17.5723 12.0414 17.4743 12.3333 17.4743H21.4024ZM18.5062 0.00207901C15.9491 0.00207901 13.5441 0.48719 11.2912 1.45741C9.03965 2.429 7.0807 3.7473 5.41433 5.4123C3.74796 7.07593 2.42898 9.03282 1.45739 11.283C0.485796 13.5331 0 15.9374 0 18.4959C0 21.053 0.485111 23.458 1.45533 25.7109C2.42693 27.9624 3.74522 29.9214 5.41022 31.5877C7.07385 33.2541 9.03074 34.5731 11.2809 35.5447C13.531 36.5163 15.9353 37.0021 18.4938 37.0021C21.0509 37.0021 23.4559 36.517 25.7088 35.5467C27.9603 34.5751 29.9193 33.2569 31.5857 31.5919C33.252 29.9282 34.571 27.9713 35.5426 25.7212C36.5142 23.471 37 21.0667 37 18.5082C37 15.9511 36.5149 13.5461 35.5447 11.2932C34.5731 9.04173 33.2548 7.08278 31.5898 5.41641C29.9261 3.75004 27.9693 2.43106 25.7191 1.45947C23.469 0.487873 21.0646 0.00207901 18.5062 0.00207901ZM18.5 2.05763C23.0907 2.05763 26.9792 3.65069 30.1653 6.8368C33.3514 10.0229 34.9444 13.9113 34.9444 18.5021C34.9444 23.0928 33.3514 26.9812 30.1653 30.1674C26.9792 33.3535 23.0907 34.9465 18.5 34.9465C13.9093 34.9465 10.0208 33.3535 6.83472 30.1674C3.64861 26.9812 2.05556 23.0928 2.05556 18.5021C2.05556 13.9113 3.64861 10.0229 6.83472 6.8368C10.0208 3.65069 13.9093 2.05763 18.5 2.05763Z" fill="#F1F7F7"/>
</svg>
