<svg width="38" height="36" viewBox="0 0 38 36" fill="none" xmlns="http://www.w3.org/2000/svg">
<path d="M18.9991 29.4859L10.2738 34.6837C9.88834 34.9263 9.48536 35.0302 9.06487 34.9956C8.64437 34.9609 8.27644 34.8223 7.96106 34.5798C7.64569 34.3372 7.4004 34.0343 7.22519 33.6712C7.04999 33.308 7.01495 32.9005 7.12007 32.4487L9.4328 22.6249L1.70617 16.0237C1.35576 15.7118 1.1371 15.3563 1.0502 14.9571C0.963296 14.5579 0.989226 14.1684 1.12799 13.7886C1.26816 13.4075 1.4784 13.0956 1.75874 12.853C2.03907 12.6105 2.42452 12.4545 2.9151 12.3852L13.1121 11.5016L17.0543 2.24954C17.2295 1.83372 17.5014 1.52185 17.8701 1.31394C18.2387 1.10603 18.6151 1.00208 18.9991 1.00208C19.3846 1.00208 19.7609 1.10603 20.1281 1.31394C20.4954 1.52185 20.7673 1.83372 20.9439 2.24954L24.8861 11.5016L35.0831 12.3852C35.5737 12.4545 35.9591 12.6105 36.2395 12.853C36.5198 13.0956 36.73 13.4075 36.8702 13.7886C37.0104 14.1698 37.037 14.56 36.9501 14.9592C36.8632 15.3584 36.6438 15.7132 36.292 16.0237L28.5654 22.6249L30.8781 32.4487C30.9833 32.8991 30.9482 33.3066 30.773 33.6712C30.5978 34.0357 30.3525 34.3386 30.0371 34.5798C29.7218 34.8223 29.3538 34.9609 28.9333 34.9956C28.5128 35.0302 28.1099 34.9263 27.7244 34.6837L18.9991 29.4859Z" fill="#C3083F" stroke="#C3083F" stroke-width="1.5"/>
</svg>
