<svg width="53" height="52" viewBox="0 0 53 52" fill="none" xmlns="http://www.w3.org/2000/svg">
<path d="M48.0153 7.66876L4.21784 51.4156C3.79927 51.8345 3.28502 52.029 2.67511 51.9991C2.06519 51.9721 1.54945 51.7477 1.12789 51.3258C0.706329 50.9038 0.497042 50.4041 0.500032 49.8266C0.503021 49.249 0.712308 48.7493 1.12789 48.3273L44.8446 4.49077H5.41077C4.77394 4.49077 4.24026 4.27531 3.80973 3.8444C3.3792 3.41348 3.16543 2.87933 3.16842 2.24193C3.17141 1.60454 3.38518 1.07188 3.80973 0.643959C4.23428 0.216037 4.76796 0.0020752 5.41077 0.0020752H48.8764C49.9019 0.0020752 50.7614 0.3492 51.4551 1.04345C52.1487 1.7377 52.497 2.59953 52.5 3.62894V47.1333C52.5 47.7707 52.2832 48.3034 51.8497 48.7313C51.4162 49.1592 50.884 49.3747 50.2532 49.3777C49.6223 49.3807 49.0901 49.1652 48.6566 48.7313C48.2231 48.2974 48.0078 47.7647 48.0108 47.1333L48.0153 7.66876Z" fill="#F1F7F7"/>
</svg>
