<svg width="29" height="30" viewBox="0 0 29 30" fill="none" xmlns="http://www.w3.org/2000/svg">
<path d="M9.56429 1.22423H2.15968C1.5869 1.22423 1.03757 1.44999 0.632555 1.85186C0.227537 2.25373 0 2.79878 0 3.3671V27.8571C0 28.4254 0.227537 28.9705 0.632555 29.3724C1.03757 29.7742 1.5869 30 2.15968 30H9.56429C9.8479 30 10.1287 29.9446 10.3908 29.8369C10.6528 29.7292 10.8909 29.5713 11.0914 29.3724C11.292 29.1734 11.451 28.9372 11.5596 28.6772C11.6681 28.4172 11.724 28.1385 11.724 27.8571V3.3671C11.724 3.0857 11.6681 2.80705 11.5596 2.54706C11.451 2.28707 11.292 2.05085 11.0914 1.85186C10.8909 1.65288 10.6528 1.49503 10.3908 1.38734C10.1287 1.27965 9.8479 1.22423 9.56429 1.22423ZM1.85115 7.95898H9.87282V23.2652H1.85115V7.95898ZM2.15968 3.06098H9.56429C9.64612 3.06098 9.72459 3.09323 9.78245 3.15064C9.84031 3.20805 9.87282 3.28591 9.87282 3.3671V6.12223H1.85115V3.3671C1.85115 3.28591 1.88366 3.20805 1.94152 3.15064C1.99938 3.09323 2.07785 3.06098 2.15968 3.06098ZM9.56429 28.1632H2.15968C2.07785 28.1632 1.99938 28.131 1.94152 28.0736C1.88366 28.0162 1.85115 27.9383 1.85115 27.8571V25.102H9.87282V27.8571C9.87282 27.9383 9.84031 28.0162 9.78245 28.0736C9.72459 28.131 9.64612 28.1632 9.56429 28.1632ZM28.9551 25.8673L23.8351 1.7079C23.7774 1.43133 23.665 1.16882 23.5046 0.935469C23.3442 0.702119 23.1389 0.502535 22.9005 0.348195C22.6621 0.193856 22.3953 0.0878063 22.1154 0.036146C21.8355 -0.0155142 21.5481 -0.011766 21.2697 0.0471754L14.0487 1.58699C13.4899 1.70887 13.002 2.04449 12.691 2.52103C12.3799 2.99756 12.2708 3.57657 12.3873 4.13242L17.5073 28.2872C17.5655 28.5648 17.6787 28.8281 17.8402 29.0619C18.0017 29.2958 18.2084 29.4955 18.4483 29.6495C18.7954 29.8748 19.2012 29.995 19.6161 29.9954C19.7717 29.9962 19.9269 29.9798 20.0788 29.9464L27.2999 28.4081C27.8566 28.2849 28.3422 27.9494 28.6518 27.474C28.9615 26.9987 29.0704 26.4216 28.9551 25.8673ZM16.1806 13.1141L24.0064 11.4457L26.1846 21.7254L18.3573 23.3892L16.1806 13.1141ZM15.1579 8.28347L22.9851 6.6105L23.6253 9.64267L15.7996 11.3111L15.1579 8.28347ZM14.439 3.38547L21.6585 1.84719C21.68 1.84512 21.7017 1.84512 21.7233 1.84719C21.781 1.84726 21.8373 1.86431 21.8853 1.89617C21.9207 1.91856 21.9511 1.94789 21.9748 1.98237C21.9984 2.01685 22.0146 2.05575 22.0225 2.09668L22.601 4.82426L14.7768 6.4804L14.1999 3.75894C14.1819 3.6776 14.1968 3.59248 14.2416 3.52201C14.2863 3.45154 14.3573 3.40139 14.439 3.38241V3.38547ZM26.905 26.6204L19.6839 28.1632C19.6453 28.1718 19.6053 28.1725 19.5663 28.1654C19.5274 28.1583 19.4903 28.1435 19.4572 28.1219C19.4217 28.0995 19.3913 28.0702 19.3677 28.0357C19.344 28.0012 19.3278 27.9623 19.3199 27.9214L18.7414 25.1938L26.5656 23.5254L27.1502 26.2392C27.1593 26.2801 27.1601 26.3223 27.1527 26.3634C27.1453 26.4045 27.1297 26.4438 27.1069 26.4789C27.0841 26.5141 27.0545 26.5444 27.0199 26.5681C26.9852 26.5919 26.9462 26.6086 26.905 26.6173V26.6204Z" fill="#F1F7F7"/>
</svg>
