<svg width="29" height="28" viewBox="0 0 29 28" fill="none" xmlns="http://www.w3.org/2000/svg">
<path d="M14.4994 22.7377L8.19774 26.7125C7.91936 26.898 7.62832 26.9775 7.32463 26.951C7.02093 26.9245 6.7552 26.8185 6.52743 26.633C6.29967 26.4475 6.12251 26.2159 5.99597 25.9382C5.86943 25.6605 5.84413 25.3489 5.92005 25.0033L7.59036 17.491L2.01001 12.443C1.75694 12.2045 1.59902 11.9327 1.53625 11.6274C1.47349 11.3221 1.49222 11.0243 1.59244 10.7339C1.69367 10.4424 1.84551 10.2039 2.04798 10.0184C2.25044 9.83293 2.52882 9.71369 2.88313 9.66069L10.2477 8.98498L13.0948 1.90988C13.2213 1.5919 13.4177 1.35341 13.6839 1.19442C13.9502 1.03543 14.222 0.955933 14.4994 0.955933C14.7777 0.955933 15.0495 1.03543 15.3148 1.19442C15.58 1.35341 15.7764 1.5919 15.9039 1.90988L18.751 8.98498L26.1156 9.66069C26.4699 9.71369 26.7483 9.83293 26.9507 10.0184C27.1532 10.2039 27.305 10.4424 27.4063 10.7339C27.5075 11.0254 27.5267 11.3237 27.464 11.629C27.4012 11.9343 27.2428 12.2056 26.9887 12.443L21.4083 17.491L23.0787 25.0033C23.1546 25.3478 23.1293 25.6594 23.0027 25.9382C22.8762 26.217 22.699 26.4486 22.4713 26.633C22.2435 26.8185 21.9778 26.9245 21.6741 26.951C21.3704 26.9775 21.0793 26.898 20.801 26.7125L14.4994 22.7377Z" fill="#C3083F" stroke="#C3083F" stroke-width="1.5"/>
</svg>
