<svg width="158" height="52" viewBox="0 0 158 52" fill="none" xmlns="http://www.w3.org/2000/svg">
<path d="M9.73941 26.2358L0.597046 0.69873H9.43966L12.9992 12.5022C13.0991 12.8239 13.2365 13.294 13.4113 13.9127C13.5862 14.5313 13.7735 15.187 13.9734 15.8799C14.1982 16.5728 14.3855 17.2038 14.5354 17.7729H14.8352C14.985 17.2533 15.1599 16.6594 15.3597 15.9913C15.5595 15.3231 15.7469 14.6798 15.9217 14.0611C16.1216 13.4178 16.2715 12.8981 16.3714 12.5022L19.9684 0.69873H28.4363L19.3314 26.2358H9.73941Z" fill="white"/>
<path d="M39.8174 26.6812C37.4444 26.6812 35.3836 26.3224 33.6351 25.6048C31.9115 24.8624 30.5751 23.7365 29.6259 22.2271C28.7017 20.7176 28.2396 18.7875 28.2396 16.4367C28.2396 14.1354 28.7017 12.23 29.6259 10.7205C30.5502 9.21108 31.8366 8.08517 33.4852 7.34282C35.1588 6.57572 37.1197 6.19217 39.3678 6.19217C41.7408 6.19217 43.7516 6.56334 45.4002 7.3057C47.0739 8.02331 48.3478 9.13685 49.2221 10.6463C50.0963 12.1558 50.5335 14.0859 50.5335 16.4367V17.6987H35.6959C35.6959 18.5895 35.8207 19.3566 36.0705 20C36.3453 20.6434 36.77 21.1383 37.3445 21.4847C37.944 21.8064 38.7183 21.9672 39.6675 21.9672C40.342 21.9672 40.904 21.893 41.3536 21.7445C41.8282 21.5961 42.2029 21.3981 42.4777 21.1506C42.7774 20.8784 42.9898 20.5691 43.1147 20.2227C43.2396 19.8763 43.302 19.5051 43.302 19.1092H50.5335C50.5335 20.2722 50.3086 21.3239 49.859 22.2642C49.4094 23.2045 48.735 24.0087 47.8357 24.6768C46.9365 25.3202 45.8124 25.8151 44.4635 26.1615C43.1396 26.508 41.5909 26.6812 39.8174 26.6812ZM35.7333 14.2096H43.0023C43.0023 13.69 42.9273 13.2322 42.7774 12.8363C42.6276 12.4156 42.4028 12.0692 42.103 11.797C41.8282 11.5 41.4785 11.2773 41.0539 11.1288C40.6542 10.9804 40.1921 10.9061 39.6675 10.9061C38.8432 10.9061 38.1563 11.0422 37.6068 11.3144C37.0572 11.5866 36.6326 11.9702 36.3328 12.4651C36.0331 12.9352 35.8332 13.5167 35.7333 14.2096Z" fill="white"/>
<path d="M62.5232 26.6812C61.1743 26.6812 59.9753 26.5327 58.9262 26.2358C57.902 25.9141 57.1027 25.3697 56.5282 24.6026C55.9536 23.8355 55.6664 22.7838 55.6664 21.4476V11.6485H52.8937V6.63758H55.9661L57.5773 0.69873H63.1227V6.63758H67.3191V11.6485H63.1227V19.1092C63.1227 19.9505 63.26 20.5939 63.5348 21.0393C63.8096 21.46 64.3716 21.6703 65.2209 21.6703H67.3191V26.0131C66.9195 26.1368 66.4199 26.2482 65.8204 26.3471C65.2459 26.4709 64.6589 26.5575 64.0594 26.607C63.4849 26.6565 62.9728 26.6812 62.5232 26.6812Z" fill="white"/>
<path d="M81.4574 26.6812C79.0844 26.6812 77.0236 26.3224 75.2751 25.6048C73.5515 24.8624 72.2152 23.7365 71.266 22.2271C70.3417 20.7176 69.8796 18.7875 69.8796 16.4367C69.8796 14.1354 70.3417 12.23 71.266 10.7205C72.1902 9.21108 73.4766 8.08517 75.1252 7.34282C76.7988 6.57572 78.7597 6.19217 81.0078 6.19217C83.3808 6.19217 85.3917 6.56334 87.0403 7.3057C88.7139 8.02331 89.9878 9.13685 90.8621 10.6463C91.7363 12.1558 92.1735 14.0859 92.1735 16.4367V17.6987H77.3359C77.3359 18.5895 77.4608 19.3566 77.7106 20C77.9853 20.6434 78.41 21.1383 78.9845 21.4847C79.584 21.8064 80.3584 21.9672 81.3076 21.9672C81.982 21.9672 82.544 21.893 82.9937 21.7445C83.4683 21.5961 83.8429 21.3981 84.1177 21.1506C84.4175 20.8784 84.6298 20.5691 84.7547 20.2227C84.8796 19.8763 84.942 19.5051 84.942 19.1092H92.1735C92.1735 20.2722 91.9487 21.3239 91.499 22.2642C91.0494 23.2045 90.375 24.0087 89.4757 24.6768C88.5765 25.3202 87.4524 25.8151 86.1036 26.1615C84.7797 26.508 83.231 26.6812 81.4574 26.6812ZM77.3733 14.2096H84.6423C84.6423 13.69 84.5673 13.2322 84.4175 12.8363C84.2676 12.4156 84.0428 12.0692 83.743 11.797C83.4683 11.5 83.1185 11.2773 82.6939 11.1288C82.2942 10.9804 81.8321 10.9061 81.3076 10.9061C80.4833 10.9061 79.7963 11.0422 79.2468 11.3144C78.6972 11.5866 78.2726 11.9702 77.9728 12.4651C77.6731 12.9352 77.4733 13.5167 77.3733 14.2096Z" fill="white"/>
<path d="M95.7702 26.2358V6.63758H101.878L102.365 9.60701H102.627C102.952 8.86465 103.364 8.23365 103.863 7.714C104.388 7.19435 104.987 6.8108 105.662 6.56334C106.336 6.29115 107.048 6.15505 107.798 6.15505C108.297 6.15505 108.747 6.20454 109.147 6.30352C109.546 6.4025 109.833 6.50148 110.008 6.60046V12.7991H107.61C106.811 12.7991 106.124 12.9105 105.55 13.1332C105 13.3312 104.55 13.6405 104.201 14.0611C103.876 14.4571 103.626 14.952 103.451 15.5459C103.301 16.115 103.226 16.7707 103.226 17.5131V26.2358H95.7702Z" fill="white"/>
<path d="M117.898 26.6812C116.874 26.6812 115.937 26.5822 115.088 26.3843C114.239 26.211 113.502 25.9141 112.877 25.4934C112.253 25.048 111.766 24.4789 111.416 23.786C111.091 23.0684 110.929 22.2023 110.929 21.1878C110.929 19.7278 111.229 18.54 111.828 17.6245C112.453 16.7089 113.352 16.0036 114.526 15.5087C115.7 15.0138 117.124 14.6798 118.797 14.5066C120.496 14.3086 122.432 14.2096 124.605 14.2096V13.2445C124.605 12.7002 124.468 12.2671 124.193 11.9454C123.943 11.599 123.606 11.3392 123.181 11.166C122.757 10.9927 122.269 10.9061 121.72 10.9061C121.295 10.9061 120.858 10.9556 120.408 11.0546C119.959 11.1536 119.584 11.3268 119.284 11.5742C119.01 11.8217 118.872 12.1681 118.872 12.6135V12.762H111.528C111.503 12.663 111.491 12.5764 111.491 12.5022C111.491 12.428 111.491 12.3414 111.491 12.2424C111.491 11.0299 111.878 9.97818 112.652 9.08736C113.452 8.17178 114.613 7.46654 116.137 6.97164C117.686 6.45199 119.584 6.19217 121.832 6.19217C123.656 6.19217 125.342 6.39013 126.891 6.78605C128.439 7.18197 129.688 7.8501 130.637 8.79041C131.587 9.70599 132.061 10.968 132.061 12.5764V20.2227C132.061 20.6186 132.161 20.9651 132.361 21.262C132.561 21.5342 132.861 21.6703 133.26 21.6703H134.609V25.9388C134.309 26.1121 133.81 26.2729 133.11 26.4214C132.436 26.5946 131.637 26.6812 130.712 26.6812C129.713 26.6812 128.839 26.5822 128.09 26.3843C127.34 26.1863 126.728 25.9017 126.254 25.5305C125.804 25.1594 125.492 24.7263 125.317 24.2314H125.055C124.53 24.7016 123.918 25.1222 123.219 25.4934C122.544 25.8646 121.77 26.1492 120.896 26.3471C120.021 26.5698 119.022 26.6812 117.898 26.6812ZM120.933 22.0786C121.408 22.0786 121.857 22.0167 122.282 21.893C122.732 21.7445 123.131 21.5589 123.481 21.3362C123.831 21.0888 124.105 20.8042 124.305 20.4825C124.505 20.1361 124.605 19.7649 124.605 19.369V17.6987C123.131 17.6987 121.932 17.81 121.008 18.0327C120.109 18.2555 119.447 18.5524 119.022 18.9236C118.598 19.2948 118.385 19.7278 118.385 20.2227C118.385 20.7176 118.51 21.1012 118.76 21.3734C119.01 21.6455 119.322 21.8311 119.697 21.9301C120.096 22.0291 120.508 22.0786 120.933 22.0786Z" fill="white"/>
<path d="M137.044 26.2358V6.63758H143.152L143.639 9.60701H143.901C144.426 8.8399 145.038 8.2089 145.737 7.714C146.436 7.19435 147.211 6.8108 148.06 6.56334C148.909 6.31589 149.784 6.19217 150.683 6.19217C152.257 6.19217 153.543 6.48911 154.542 7.08299C155.566 7.65213 156.328 8.4811 156.828 9.56989C157.327 10.6587 157.577 11.9825 157.577 13.5415V26.2358H150.121V14.4323C150.121 14.0117 150.058 13.6405 149.934 13.3188C149.834 12.9724 149.684 12.6754 149.484 12.428C149.284 12.1805 149.022 11.9949 148.697 11.8712C148.397 11.7227 148.035 11.6485 147.61 11.6485C146.986 11.6485 146.436 11.797 145.962 12.0939C145.512 12.3661 145.15 12.7373 144.875 13.2074C144.625 13.6528 144.501 14.1601 144.501 14.7293V26.2358H137.044Z" fill="white"/>
<path d="M1.55989 50.981V38.2496H4.8384L7.33007 45.9701C7.40501 46.1928 7.47994 46.4464 7.55488 46.731C7.62982 47.0156 7.69851 47.2878 7.76096 47.5476C7.8359 47.8074 7.8921 48.0363 7.92957 48.2343H8.07944C8.10442 48.0487 8.14814 47.826 8.21058 47.5662C8.27303 47.3063 8.33548 47.0341 8.39793 46.7496C8.47287 46.465 8.5478 46.199 8.62274 45.9515L11.1331 38.2496H14.3555V50.981H12.2759V44.0028C12.2759 43.5327 12.2822 43.044 12.2947 42.5367C12.3072 42.0294 12.3197 41.5778 12.3321 41.1819C12.3446 40.786 12.3509 40.5323 12.3509 40.421H12.201C12.176 40.5571 12.1136 40.7922 12.0137 41.1262C11.9262 41.4479 11.8326 41.7943 11.7326 42.1655C11.6327 42.5367 11.5391 42.8584 11.4516 43.1306L8.84755 50.981H6.99285L4.38878 43.1491C4.31384 42.9141 4.23266 42.6357 4.14523 42.314C4.0578 41.9923 3.97038 41.6644 3.88295 41.3304C3.79552 40.9963 3.72058 40.6932 3.65814 40.421H3.50826C3.52075 40.7179 3.527 41.0829 3.527 41.5159C3.53949 41.949 3.55198 42.3882 3.56446 42.8336C3.57695 43.2667 3.5832 43.6564 3.5832 44.0028V50.981H1.55989Z" fill="white"/>
<path d="M17.1413 39.5301V37.5629H19.0897V39.5301H17.1413ZM17.1413 50.981V41.219H19.0897V50.981H17.1413Z" fill="white"/>
<path d="M25.5208 51.2037C24.5342 51.2037 23.7098 51.0243 23.0479 50.6655C22.386 50.2943 21.8864 49.7314 21.5491 48.9766C21.2244 48.2219 21.0621 47.263 21.0621 46.1C21.0621 44.937 21.2307 43.9843 21.5679 43.2419C21.9051 42.4872 22.4047 41.9242 23.0666 41.5531C23.7411 41.1819 24.5654 40.9963 25.5396 40.9963C26.214 40.9963 26.801 41.0829 27.3006 41.2561C27.8002 41.417 28.2248 41.6644 28.5745 41.9985C28.9242 42.3202 29.1803 42.7223 29.3426 43.2048C29.5175 43.6873 29.6049 44.2379 29.6049 44.8566H27.6378C27.6378 44.3369 27.5629 43.91 27.413 43.576C27.2631 43.2419 27.0321 42.9945 26.7198 42.8336C26.4076 42.6604 26.0017 42.5738 25.5021 42.5738C24.9775 42.5738 24.5342 42.6975 24.172 42.945C23.8098 43.1801 23.535 43.5451 23.3476 44.04C23.1603 44.5225 23.0666 45.1597 23.0666 45.9515V46.267C23.0666 47.0218 23.1541 47.6528 23.3289 48.16C23.5163 48.6549 23.791 49.0261 24.1532 49.2736C24.5279 49.5087 25.0025 49.6262 25.577 49.6262C26.0766 49.6262 26.4763 49.5396 26.776 49.3664C27.0883 49.1808 27.3193 48.921 27.4692 48.5869C27.6316 48.2405 27.7128 47.826 27.7128 47.3434H29.6049C29.6049 47.925 29.5175 48.4508 29.3426 48.921C29.1803 49.3911 28.9242 49.7994 28.5745 50.1458C28.2373 50.4799 27.8127 50.7397 27.3006 50.9253C26.7885 51.1109 26.1953 51.2037 25.5208 51.2037Z" fill="white"/>
<path d="M31.5763 50.981V37.5629H33.5246V42.3882H33.6558C33.8931 42.0913 34.1616 41.8438 34.4614 41.6459C34.7611 41.4355 35.0983 41.2747 35.473 41.1633C35.8477 41.052 36.2599 40.9963 36.7095 40.9963C37.334 40.9963 37.8835 41.1077 38.3581 41.3304C38.8327 41.5407 39.2012 41.8871 39.4634 42.3697C39.7382 42.8522 39.8756 43.5018 39.8756 44.3183V50.981H37.9272V44.6153C37.9272 44.2441 37.8773 43.9348 37.7773 43.6873C37.6899 43.4399 37.5588 43.2419 37.3839 43.0935C37.2091 42.945 37.003 42.8398 36.7657 42.778C36.5284 42.7161 36.2661 42.6852 35.9788 42.6852C35.5292 42.6852 35.1171 42.7903 34.7424 43.0007C34.3802 43.211 34.0867 43.5079 33.8619 43.8915C33.6371 44.275 33.5246 44.7328 33.5246 45.2648V50.981H31.5763Z" fill="white"/>
<path d="M44.8073 51.2037C44.495 51.2037 44.1578 51.1666 43.7956 51.0923C43.4334 51.0181 43.0899 50.882 42.7652 50.684C42.453 50.4861 42.1969 50.2139 41.9971 49.8675C41.7973 49.5087 41.6974 49.0447 41.6974 48.4755C41.6974 47.8074 41.8535 47.2568 42.1657 46.8238C42.478 46.3908 42.9151 46.0505 43.4771 45.8031C44.0392 45.5556 44.7073 45.3824 45.4817 45.2834C46.2685 45.1844 47.1241 45.1349 48.0483 45.1349V44.1699C48.0483 43.8482 47.9921 43.5636 47.8797 43.3162C47.7798 43.0687 47.5862 42.8769 47.2989 42.7408C47.0242 42.6047 46.6245 42.5367 46.0999 42.5367C45.5754 42.5367 45.1632 42.6047 44.8635 42.7408C44.5762 42.8646 44.3701 43.0254 44.2452 43.2234C44.1328 43.409 44.0766 43.6131 44.0766 43.8358V44.1142H42.2032C42.1907 44.0523 42.1845 43.9905 42.1845 43.9286C42.1845 43.8667 42.1845 43.7925 42.1845 43.7059C42.1845 43.1244 42.3468 42.6357 42.6715 42.2397C43.0088 41.8315 43.4771 41.5221 44.0766 41.3118C44.6761 41.1015 45.3693 40.9963 46.1561 40.9963C47.0054 40.9963 47.7111 41.12 48.2731 41.3675C48.8476 41.6026 49.2785 41.9428 49.5658 42.3882C49.853 42.8336 49.9967 43.3718 49.9967 44.0028V48.9581C49.9967 49.1932 50.0529 49.3602 50.1653 49.4592C50.2902 49.5581 50.4338 49.6076 50.5962 49.6076H51.2706V50.9068C51.1207 50.9686 50.9334 51.0305 50.7086 51.0923C50.4838 51.1542 50.2215 51.1851 49.9217 51.1851C49.5845 51.1851 49.2973 51.1233 49.06 50.9996C48.8351 50.8882 48.6478 50.7274 48.4979 50.517C48.3605 50.2943 48.2669 50.0469 48.2169 49.7747H48.1045C47.8797 50.0592 47.6049 50.3129 47.2802 50.5356C46.968 50.7459 46.6058 50.9068 46.1936 51.0181C45.7814 51.1418 45.3193 51.2037 44.8073 51.2037ZM45.3506 49.6076C45.7377 49.6076 46.0937 49.552 46.4184 49.4406C46.7556 49.3169 47.0429 49.1498 47.2802 48.9395C47.5175 48.7168 47.7048 48.457 47.8422 48.16C47.9796 47.8507 48.0483 47.5167 48.0483 47.1579V46.5083C47.1865 46.5083 46.4309 46.5578 45.7814 46.6568C45.132 46.7557 44.6262 46.9413 44.264 47.2135C43.9018 47.4734 43.7207 47.8384 43.7207 48.3085C43.7207 48.5931 43.7831 48.8343 43.908 49.0323C44.0329 49.2179 44.2203 49.3602 44.47 49.4592C44.7198 49.5581 45.0133 49.6076 45.3506 49.6076Z" fill="white"/>
<path d="M56.6999 51.2037C55.6883 51.2037 54.839 51.0243 54.152 50.6655C53.4776 50.2943 52.9655 49.7314 52.6158 48.9766C52.2661 48.2219 52.0913 47.263 52.0913 46.1C52.0913 44.9246 52.2661 43.9657 52.6158 43.2234C52.9655 42.4686 53.4838 41.9119 54.1708 41.5531C54.8577 41.1819 55.7132 40.9963 56.7374 40.9963C57.6741 40.9963 58.4547 41.1757 59.0792 41.5345C59.7161 41.8809 60.197 42.413 60.5217 43.1306C60.8465 43.8482 61.0088 44.7514 61.0088 45.8402V46.5825H54.0958C54.1208 47.2754 54.227 47.8569 54.4143 48.3271C54.6017 48.7849 54.8827 49.1251 55.2574 49.3478C55.6445 49.5581 56.1316 49.6633 56.7186 49.6633C57.0808 49.6633 57.4056 49.62 57.6928 49.5334C57.9801 49.4344 58.2236 49.2983 58.4235 49.1251C58.6233 48.9395 58.7794 48.723 58.8918 48.4755C59.0042 48.2157 59.0604 47.925 59.0604 47.6033H60.9713C60.9713 48.1848 60.8714 48.6982 60.6716 49.1437C60.4718 49.5891 60.1783 49.9664 59.7911 50.2758C59.4164 50.5727 58.9668 50.8016 58.4422 50.9624C57.9176 51.1233 57.3369 51.2037 56.6999 51.2037ZM54.1333 45.1721H58.9668C58.9668 44.6895 58.9106 44.2874 58.7982 43.9657C58.6982 43.6317 58.5484 43.3595 58.3485 43.1491C58.1487 42.9388 57.9114 42.7903 57.6366 42.7037C57.3619 42.6047 57.0496 42.5552 56.6999 42.5552C56.1754 42.5552 55.7257 42.648 55.351 42.8336C54.9888 43.0192 54.7078 43.31 54.508 43.7059C54.3082 44.0895 54.1833 44.5782 54.1333 45.1721Z" fill="white"/>
<path d="M62.9892 50.981V37.5629H64.9376V50.981H62.9892Z" fill="white"/>
<path d="M70.1525 50.981L75.192 38.2496H77.8711L82.9293 50.981H80.6812L79.5384 48.0301H73.4497L72.3069 50.981H70.1525ZM74.1242 46.267H78.8452L77.4027 42.5367C77.3652 42.4253 77.309 42.2707 77.2341 42.0727C77.1591 41.8748 77.078 41.6582 76.9905 41.4232C76.9156 41.1881 76.8344 40.953 76.747 40.7179C76.6721 40.4705 76.6034 40.2478 76.5409 40.0498H76.4285C76.3536 40.2849 76.2599 40.5633 76.1475 40.8849C76.0351 41.2066 75.9227 41.5159 75.8103 41.8129C75.7104 42.1098 75.6229 42.3511 75.548 42.5367L74.1242 46.267Z" fill="white"/>
<path d="M84.3215 50.981V41.219H85.9327L86.1013 42.7965H86.2137C86.3261 42.4872 86.4697 42.1964 86.6446 41.9242C86.8319 41.652 87.0692 41.4293 87.3565 41.2561C87.6562 41.0829 88.0184 40.9963 88.4431 40.9963C88.6429 40.9963 88.8178 41.0149 88.9676 41.052C89.13 41.0891 89.2549 41.12 89.3423 41.1448V42.9635H88.6866C88.287 42.9635 87.931 43.0254 87.6188 43.1491C87.319 43.2729 87.063 43.4584 86.8507 43.7059C86.6508 43.941 86.501 44.2317 86.401 44.5782C86.3136 44.9246 86.2699 45.3143 86.2699 45.7474V50.981H84.3215Z" fill="white"/>
<path d="M94.5306 51.2037C93.5439 51.2037 92.7196 51.0243 92.0576 50.6655C91.3957 50.2943 90.8961 49.7314 90.5589 48.9766C90.2342 48.2219 90.0718 47.263 90.0718 46.1C90.0718 44.937 90.2404 43.9843 90.5776 43.2419C90.9148 42.4872 91.4144 41.9242 92.0764 41.5531C92.7508 41.1819 93.5751 40.9963 94.5493 40.9963C95.2237 40.9963 95.8108 41.0829 96.3103 41.2561C96.8099 41.417 97.2346 41.6644 97.5843 41.9985C97.934 42.3202 98.19 42.7223 98.3524 43.2048C98.5272 43.6873 98.6147 44.2379 98.6147 44.8566H96.6476C96.6476 44.3369 96.5726 43.91 96.4227 43.576C96.2729 43.2419 96.0418 42.9945 95.7296 42.8336C95.4173 42.6604 95.0114 42.5738 94.5118 42.5738C93.9873 42.5738 93.5439 42.6975 93.1817 42.945C92.8195 43.1801 92.5447 43.5451 92.3574 44.04C92.17 44.5225 92.0764 45.1597 92.0764 45.9515V46.267C92.0764 47.0218 92.1638 47.6528 92.3387 48.16C92.526 48.6549 92.8008 49.0261 93.163 49.2736C93.5377 49.5087 94.0123 49.6262 94.5868 49.6262C95.0864 49.6262 95.486 49.5396 95.7858 49.3664C96.098 49.1808 96.3291 48.921 96.4789 48.5869C96.6413 48.2405 96.7225 47.826 96.7225 47.3434H98.6147C98.6147 47.925 98.5272 48.4508 98.3524 48.921C98.19 49.3911 97.934 49.7994 97.5843 50.1458C97.2471 50.4799 96.8224 50.7397 96.3103 50.9253C95.7983 51.1109 95.205 51.2037 94.5306 51.2037Z" fill="white"/>
<path d="M100.586 50.981V37.5629H102.534V42.3882H102.666C102.903 42.0913 103.171 41.8438 103.471 41.6459C103.771 41.4355 104.108 41.2747 104.483 41.1633C104.857 41.052 105.27 40.9963 105.719 40.9963C106.344 40.9963 106.893 41.1077 107.368 41.3304C107.842 41.5407 108.211 41.8871 108.473 42.3697C108.748 42.8522 108.885 43.5018 108.885 44.3183V50.981H106.937V44.6153C106.937 44.2441 106.887 43.9348 106.787 43.6873C106.7 43.4399 106.569 43.2419 106.394 43.0935C106.219 42.945 106.013 42.8398 105.775 42.778C105.538 42.7161 105.276 42.6852 104.989 42.6852C104.539 42.6852 104.127 42.7903 103.752 43.0007C103.39 43.211 103.096 43.5079 102.872 43.8915C102.647 44.275 102.534 44.7328 102.534 45.2648V50.981H100.586Z" fill="white"/>
<path d="M115.409 51.2037C114.398 51.2037 113.548 51.0243 112.862 50.6655C112.187 50.2943 111.675 49.7314 111.325 48.9766C110.976 48.2219 110.801 47.263 110.801 46.1C110.801 44.9246 110.976 43.9657 111.325 43.2234C111.675 42.4686 112.193 41.9119 112.88 41.5531C113.567 41.1819 114.423 40.9963 115.447 40.9963C116.384 40.9963 117.164 41.1757 117.789 41.5345C118.426 41.8809 118.906 42.413 119.231 43.1306C119.556 43.8482 119.718 44.7514 119.718 45.8402V46.5825H112.805C112.83 47.2754 112.936 47.8569 113.124 48.3271C113.311 48.7849 113.592 49.1251 113.967 49.3478C114.354 49.5581 114.841 49.6633 115.428 49.6633C115.79 49.6633 116.115 49.62 116.402 49.5334C116.69 49.4344 116.933 49.2983 117.133 49.1251C117.333 48.9395 117.489 48.723 117.601 48.4755C117.714 48.2157 117.77 47.925 117.77 47.6033H119.681C119.681 48.1848 119.581 48.6982 119.381 49.1437C119.181 49.5891 118.888 49.9664 118.501 50.2758C118.126 50.5727 117.676 50.8016 117.152 50.9624C116.627 51.1233 116.046 51.2037 115.409 51.2037ZM112.843 45.1721H117.676C117.676 44.6895 117.62 44.2874 117.508 43.9657C117.408 43.6317 117.258 43.3595 117.058 43.1491C116.858 42.9388 116.621 42.7903 116.346 42.7037C116.071 42.6047 115.759 42.5552 115.409 42.5552C114.885 42.5552 114.435 42.648 114.061 42.8336C113.698 43.0192 113.417 43.31 113.218 43.7059C113.018 44.0895 112.893 44.5782 112.843 45.1721Z" fill="white"/>
<path d="M121.699 50.981V41.219H123.31L123.479 42.7965H123.591C123.703 42.4872 123.847 42.1964 124.022 41.9242C124.209 41.652 124.446 41.4293 124.734 41.2561C125.033 41.0829 125.396 40.9963 125.82 40.9963C126.02 40.9963 126.195 41.0149 126.345 41.052C126.507 41.0891 126.632 41.12 126.72 41.1448V42.9635H126.064C125.664 42.9635 125.308 43.0254 124.996 43.1491C124.696 43.2729 124.44 43.4584 124.228 43.7059C124.028 43.941 123.878 44.2317 123.778 44.5782C123.691 44.9246 123.647 45.3143 123.647 45.7474V50.981H121.699Z" fill="white"/>
</svg>
