<svg width="61" height="60" viewBox="0 0 61 60" fill="none" xmlns="http://www.w3.org/2000/svg">
<path d="M17.5519 0.00195312H42.7519C52.3519 0.00195312 60.1519 7.80195 60.1519 17.402V42.602C60.1519 47.2167 58.3186 51.6425 55.0555 54.9056C51.7924 58.1687 47.3666 60.002 42.7519 60.002H17.5519C7.95186 60.002 0.151855 52.202 0.151855 42.602V17.402C0.151855 12.7872 1.98506 8.36143 5.2482 5.0983C8.51133 1.83516 12.9371 0.00195313 17.5519 0.00195312ZM16.9519 6.00195C14.0875 6.00195 11.3405 7.13981 9.3151 9.1652C7.28971 11.1906 6.15186 13.9376 6.15186 16.802V43.202C6.15186 49.172 10.9819 54.002 16.9519 54.002H43.3519C46.2162 54.002 48.9632 52.8641 50.9886 50.8387C53.014 48.8133 54.1519 46.0663 54.1519 43.202V16.802C54.1519 10.832 49.3219 6.00195 43.3519 6.00195H16.9519ZM45.9019 10.502C46.8964 10.502 47.8502 10.897 48.5535 11.6003C49.2568 12.3036 49.6519 13.2574 49.6519 14.252C49.6519 15.2465 49.2568 16.2003 48.5535 16.9036C47.8502 17.6069 46.8964 18.002 45.9019 18.002C44.9073 18.002 43.9535 17.6069 43.2502 16.9036C42.5469 16.2003 42.1519 15.2465 42.1519 14.252C42.1519 13.2574 42.5469 12.3036 43.2502 11.6003C43.9535 10.897 44.9073 10.502 45.9019 10.502ZM30.1519 15.002C34.1301 15.002 37.9454 16.5823 40.7585 19.3954C43.5715 22.2084 45.1519 26.0237 45.1519 30.002C45.1519 33.9802 43.5715 37.7955 40.7585 40.6086C37.9454 43.4216 34.1301 45.002 30.1519 45.002C26.1736 45.002 22.3583 43.4216 19.5453 40.6086C16.7322 37.7955 15.1519 33.9802 15.1519 30.002C15.1519 26.0237 16.7322 22.2084 19.5453 19.3954C22.3583 16.5823 26.1736 15.002 30.1519 15.002ZM30.1519 21.002C27.7649 21.002 25.4757 21.9502 23.7879 23.638C22.1001 25.3258 21.1519 27.615 21.1519 30.002C21.1519 32.3889 22.1001 34.6781 23.7879 36.3659C25.4757 38.0537 27.7649 39.002 30.1519 39.002C32.5388 39.002 34.828 38.0537 36.5158 36.3659C38.2036 34.6781 39.1519 32.3889 39.1519 30.002C39.1519 27.615 38.2036 25.3258 36.5158 23.638C34.828 21.9502 32.5388 21.002 30.1519 21.002Z" fill="#F1F7F7"/>
</svg>
