<svg width="30" height="28" viewBox="0 0 30 28" fill="none" xmlns="http://www.w3.org/2000/svg">
<path d="M14.9993 22.7377L8.45535 26.7125C8.16625 26.898 7.86402 26.9775 7.54865 26.951C7.23328 26.9245 6.95733 26.8185 6.7208 26.633C6.48427 26.4475 6.3003 26.2159 6.1689 25.9382C6.03749 25.6605 6.01121 25.3489 6.09005 25.0033L7.8246 17.491L2.02963 12.443C1.76682 12.2045 1.60283 11.9327 1.53765 11.6274C1.47247 11.3221 1.49192 11.0243 1.59599 10.7339C1.70112 10.4424 1.8588 10.2039 2.06905 10.0184C2.2793 9.83293 2.56839 9.71369 2.93633 9.66069L10.5841 8.98498L13.5407 1.90988C13.6721 1.5919 13.8761 1.35341 14.1526 1.19442C14.429 1.03543 14.7113 0.955933 14.9993 0.955933C15.2884 0.955933 15.5707 1.03543 15.8461 1.19442C16.1215 1.35341 16.3255 1.5919 16.4579 1.90988L19.4145 8.98498L27.0623 9.66069C27.4303 9.71369 27.7194 9.83293 27.9296 10.0184C28.1399 10.2039 28.2975 10.4424 28.4027 10.7339C28.5078 11.0254 28.5278 11.3237 28.4626 11.629C28.3974 11.9343 28.2329 12.2056 27.969 12.443L22.1741 17.491L23.9086 25.0033C23.9874 25.3478 23.9612 25.6594 23.8298 25.9382C23.6984 26.217 23.5144 26.4486 23.2779 26.633C23.0413 26.8185 22.7654 26.9245 22.45 26.951C22.1346 26.9775 21.8324 26.898 21.5433 26.7125L14.9993 22.7377Z" fill="#C3083F" stroke="#C3083F" stroke-width="1.5"/>
</svg>
