<svg width="46" height="47" viewBox="0 0 46 47" fill="none" xmlns="http://www.w3.org/2000/svg">
<path d="M26.6084 22.6782L22.0953 18.1676C21.8568 17.9291 21.7461 17.6437 21.7631 17.3115C21.7784 16.981 21.9062 16.6956 22.1464 16.4554C22.385 16.2169 22.6806 16.0976 23.0332 16.0976C23.3859 16.0976 23.6755 16.2169 23.9021 16.4554L29.9588 22.512C30.3711 22.9243 30.5772 23.4056 30.5772 23.9559C30.5772 24.5062 30.3711 24.9875 29.9588 25.3998L23.8561 31.505C23.6176 31.7436 23.3322 31.8628 23 31.8628C22.6678 31.8628 22.3824 31.7436 22.1439 31.505C21.9054 31.2665 21.7861 30.9701 21.7861 30.6157C21.7861 30.263 21.9054 29.9734 22.1439 29.7468L26.6084 25.2337H15.3333C14.9704 25.2337 14.6672 25.111 14.4236 24.8657C14.1782 24.6204 14.0556 24.3163 14.0556 23.9534C14.0556 23.5905 14.1782 23.2872 14.4236 23.0436C14.6672 22.8 14.9704 22.6782 15.3333 22.6782H26.6084ZM23.0077 0.955932C19.8286 0.955932 16.8386 1.55904 14.0377 2.76527C11.2385 3.97319 8.80304 5.61215 6.73133 7.68215C4.65963 9.75045 3.01982 12.1833 1.81189 14.9808C0.603963 17.7783 0 20.7675 0 23.9483C0 27.1274 0.603111 30.1174 1.80933 32.9183C3.01726 35.7175 4.65622 38.1529 6.72622 40.2246C8.79452 42.2963 11.2274 43.9361 14.0249 45.144C16.8224 46.352 19.8115 46.9559 22.9923 46.9559C26.1714 46.9559 29.1614 46.3528 31.9623 45.1466C34.7615 43.9387 37.197 42.2997 39.2687 40.2297C41.3404 38.1614 42.9802 35.7285 44.1881 32.931C45.396 30.1336 46 27.1444 46 23.9636C46 20.7845 45.3969 17.7945 44.1907 14.9936C42.9827 12.1944 41.3438 9.75897 39.2738 7.68727C37.2055 5.61556 34.7726 3.97575 31.9751 2.76782C29.1776 1.55989 26.1885 0.955932 23.0077 0.955932ZM23 3.51149C28.7074 3.51149 33.5417 5.49205 37.5028 9.45316C41.4639 13.4143 43.4444 18.2485 43.4444 23.9559C43.4444 29.6633 41.4639 34.4976 37.5028 38.4587C33.5417 42.4198 28.7074 44.4004 23 44.4004C17.2926 44.4004 12.4583 42.4198 8.49722 38.4587C4.53611 34.4976 2.55556 29.6633 2.55556 23.9559C2.55556 18.2485 4.53611 13.4143 8.49722 9.45316C12.4583 5.49205 17.2926 3.51149 23 3.51149Z" fill="#F1F7F7"/>
</svg>
