<svg width="103" height="103" viewBox="0 0 103 103" fill="none" xmlns="http://www.w3.org/2000/svg">
<path d="M43.4202 48.641L53.5257 38.5412C54.0597 38.0072 54.3077 37.3682 54.2696 36.6243C54.2352 35.8842 53.9491 35.2452 53.4112 34.7074C52.8771 34.1733 52.2153 33.9062 51.4256 33.9062C50.6359 33.9062 49.9874 34.1733 49.4801 34.7074L35.9184 48.269C34.9952 49.1922 34.5336 50.2699 34.5336 51.5021C34.5336 52.7343 34.9952 53.8119 35.9184 54.7351L49.5831 68.4055C50.1171 68.9396 50.7561 69.2066 51.5 69.2066C52.2439 69.2066 52.8829 68.9396 53.4169 68.4055C53.951 67.8714 54.2181 67.2077 54.2181 66.4142C54.2181 65.6245 53.951 64.976 53.4169 64.4686L43.4202 54.3632H68.6667C69.4792 54.3632 70.1583 54.0885 70.7038 53.5392C71.2531 52.9899 71.5278 52.3089 71.5278 51.4963C71.5278 50.6838 71.2531 50.0048 70.7038 49.4592C70.1583 48.9137 69.4792 48.641 68.6667 48.641H43.4202ZM51.4828 0.0020752C58.6013 0.0020752 65.2963 1.35252 71.5678 4.05341C77.8356 6.75811 83.2889 10.428 87.9277 15.063C92.5665 19.6941 96.2382 25.1417 98.9429 31.4056C101.648 37.6696 103 44.3626 103 51.4849C103 58.6034 101.65 65.2984 98.9487 71.5699C96.244 77.8376 92.5741 83.2909 87.9391 87.9297C83.3079 92.5686 77.8604 96.2403 71.5964 98.945C65.3325 101.65 58.6394 103.002 51.5172 103.002C44.3987 103.002 37.7037 101.652 31.4322 98.9507C25.1644 96.246 19.7112 92.5762 15.0723 87.9412C10.4335 83.31 6.76176 77.8624 4.05705 71.5985C1.35235 65.3346 0 58.6415 0 51.5192C0 44.4008 1.35044 37.7058 4.05133 31.4342C6.75603 25.1665 10.4259 19.7132 15.0609 15.0744C19.6921 10.4356 25.1396 6.76383 31.4036 4.05913C37.6675 1.35442 44.3606 0.0020752 51.4828 0.0020752ZM51.5 5.7243C38.7204 5.7243 27.8958 10.159 19.0264 19.0285C10.1569 27.8979 5.72222 38.7224 5.72222 51.5021C5.72222 64.2817 10.1569 75.1062 19.0264 83.9757C27.8958 92.8451 38.7204 97.2799 51.5 97.2799C64.2796 97.2799 75.1042 92.8451 83.9736 83.9757C92.8431 75.1062 97.2778 64.2817 97.2778 51.5021C97.2778 38.7224 92.8431 27.8979 83.9736 19.0285C75.1042 10.159 64.2796 5.7243 51.5 5.7243Z" fill="#F1F7F7"/>
</svg>
