<svg width="60" height="60" viewBox="0 0 60 60" fill="none" xmlns="http://www.w3.org/2000/svg">
<path d="M30 0.00195312C13.5 0.00195312 0 13.5261 0 30.1827C0 45.2429 10.98 57.7429 25.32 60.002V38.9176H17.7V30.1827H25.32V23.5261C25.32 15.9658 29.79 11.8092 36.66 11.8092C39.93 11.8092 43.3499 12.3815 43.3499 12.3815V19.8212H39.57C35.85 19.8212 34.68 22.1405 34.68 24.52V30.1827H43.0199L41.6699 38.9176H34.68V60.002C41.7493 58.881 48.1866 55.2595 52.8297 49.7913C57.4729 44.3231 60.016 37.3684 59.9999 30.1827C59.9999 13.5261 46.4999 0.00195312 30 0.00195312Z" fill="#F1F7F7"/>
</svg>
