<svg width="30" height="30" viewBox="0 0 30 30" fill="none" xmlns="http://www.w3.org/2000/svg">
<path d="M16.7308 22.5C16.7308 22.8423 16.6293 23.1769 16.4391 23.4616C16.2489 23.7462 15.9786 23.968 15.6623 24.099C15.3461 24.23 14.9981 24.2643 14.6623 24.1975C14.3266 24.1307 14.0182 23.9659 13.7762 23.7238C13.5341 23.4818 13.3693 23.1734 13.3025 22.8377C13.2357 22.5019 13.27 22.1539 13.401 21.8377C13.532 21.5214 13.7538 21.2511 14.0384 21.0609C14.3231 20.8707 14.6577 20.7692 15 20.7692C15.459 20.7692 15.8993 20.9516 16.2238 21.2762C16.5484 21.6007 16.7308 22.041 16.7308 22.5ZM15 6.92308C11.8183 6.92308 9.23077 9.2524 9.23077 12.1154V12.6923C9.23077 12.9983 9.35234 13.2918 9.56873 13.5082C9.78512 13.7246 10.0786 13.8462 10.3846 13.8462C10.6906 13.8462 10.9841 13.7246 11.2005 13.5082C11.4169 13.2918 11.5385 12.9983 11.5385 12.6923V12.1154C11.5385 10.5288 13.0918 9.23077 15 9.23077C16.9082 9.23077 18.4615 10.5288 18.4615 12.1154C18.4615 13.7019 16.9082 15 15 15C14.694 15 14.4005 15.1216 14.1841 15.3379C13.9677 15.5543 13.8462 15.8478 13.8462 16.1538V17.3077C13.8462 17.6137 13.9677 17.9072 14.1841 18.1236C14.4005 18.34 14.694 18.4615 15 18.4615C15.306 18.4615 15.5995 18.34 15.8159 18.1236C16.0323 17.9072 16.1538 17.6137 16.1538 17.3077V17.2038C18.7846 16.7207 20.7692 14.6221 20.7692 12.1154C20.7692 9.2524 18.1817 6.92308 15 6.92308ZM30 15C30 17.9667 29.1203 20.8668 27.472 23.3335C25.8238 25.8003 23.4811 27.7229 20.7403 28.8582C17.9994 29.9935 14.9834 30.2906 12.0736 29.7118C9.16393 29.133 6.49119 27.7044 4.3934 25.6066C2.29562 23.5088 0.867006 20.8361 0.288227 17.9264C-0.290551 15.0166 0.00649927 12.0006 1.14181 9.25975C2.27713 6.51886 4.19971 4.17618 6.66645 2.52796C9.13319 0.879735 12.0333 0 15 0C18.977 0.00419974 22.7898 1.5859 25.602 4.39804C28.4141 7.21017 29.9958 11.023 30 15ZM27.6923 15C27.6923 12.4897 26.9479 10.0358 25.5533 7.94853C24.1586 5.86129 22.1764 4.23449 19.8571 3.27384C17.5379 2.31319 14.9859 2.06184 12.5239 2.55157C10.0618 3.04131 7.80024 4.25013 6.02519 6.02518C4.25014 7.80023 3.04131 10.0618 2.55158 12.5239C2.06184 14.9859 2.31319 17.5379 3.27384 19.8571C4.23449 22.1763 5.8613 24.1586 7.94854 25.5533C10.0358 26.9479 12.4897 27.6923 15 27.6923C18.365 27.6885 21.5912 26.35 23.9706 23.9706C26.35 21.5912 27.6885 18.365 27.6923 15Z" fill="#F1F7F7"/>
</svg>
