<svg width="80" height="60" viewBox="0 0 80 60" fill="none" xmlns="http://www.w3.org/2000/svg">
<path d="M67.0984 5.04121C61.8906 2.65081 56.3907 0.956497 50.7406 0.00195312C50.0207 1.24198 49.2216 2.92299 48.66 4.24217C42.6515 3.36231 36.5468 3.36231 30.5383 4.24217C29.9767 2.92299 29.1324 1.24198 28.454 0.00195312C22.7988 0.94524 17.295 2.63999 12.0887 5.04121C1.73499 20.3211 -1.06544 35.2429 0.336657 49.9611C6.40339 54.4154 13.1805 57.8103 20.3806 60.002C21.9981 57.8186 23.4303 55.5038 24.6623 53.0819C22.2991 52.2 20.064 51.122 17.9006 49.8405C18.4622 49.441 19.02 49 19.5401 48.559C32.5811 54.5217 46.7039 54.5217 59.5828 48.559C60.1444 49 60.6646 49.441 61.2224 49.8405C59.0627 51.122 56.8239 52.2 54.4644 53.0819C55.6952 55.5037 57.1261 57.8184 58.7423 60.002C65.9451 57.8168 72.7233 54.4214 78.7863 49.9611C80.5088 32.9249 76.065 18.1199 67.1022 5.04121M26.4564 40.8814C22.5365 40.8814 19.3366 37.3196 19.3366 32.9626C19.3366 28.6017 22.4574 25.04 26.4602 25.04C30.4177 25.04 33.6591 28.6017 33.5762 32.9626C33.5762 37.3196 30.4177 40.8814 26.4564 40.8814ZM52.742 40.8776C48.8221 40.8776 45.6184 37.3159 45.6184 32.9588C45.6184 28.598 48.7392 25.0362 52.742 25.0362C56.6995 25.0362 59.9409 28.598 59.8618 32.9588C59.8618 37.3159 56.741 40.8739 52.7382 40.8739" fill="#F1F7F7"/>
</svg>
