<svg width="30" height="28" viewBox="0 0 30 28" fill="none" xmlns="http://www.w3.org/2000/svg">
<path d="M14.9993 22.7377L8.21295 26.7125C7.91315 26.898 7.59973 26.9775 7.27267 26.951C6.94562 26.9245 6.65945 26.8185 6.41416 26.633C6.16887 26.4475 5.97809 26.2159 5.84182 25.9382C5.70555 25.6605 5.67829 25.3489 5.76005 25.0033L7.55885 17.491L1.54925 12.443C1.2767 12.2045 1.10663 11.9327 1.03904 11.6274C0.971452 11.3221 0.99162 11.0243 1.09955 10.7339C1.20857 10.4424 1.37209 10.2039 1.59013 10.0184C1.80816 9.83293 2.10796 9.71369 2.48952 9.66069L10.4206 8.98498L13.4867 1.90988C13.623 1.5919 13.8344 1.35341 14.1212 1.19442C14.4079 1.03543 14.7006 0.955933 14.9993 0.955933C15.2991 0.955933 15.5918 1.03543 15.8774 1.19442C16.1631 1.35341 16.3746 1.5919 16.5119 1.90988L19.578 8.98498L27.5091 9.66069C27.8906 9.71369 28.1904 9.83293 28.4085 10.0184C28.6265 10.2039 28.79 10.4424 28.8991 10.7339C29.0081 11.0254 29.0288 11.3237 28.9612 11.629C28.8936 11.9343 28.723 12.2056 28.4494 12.443L22.4398 17.491L24.2386 25.0033C24.3203 25.3478 24.2931 25.6594 24.1568 25.9382C24.0205 26.217 23.8297 26.4486 23.5844 26.633C23.3392 26.8185 23.053 26.9245 22.7259 26.951C22.3989 26.9775 22.0855 26.898 21.7857 26.7125L14.9993 22.7377Z" fill="#C3083F" stroke="#C3083F" stroke-width="1.5"/>
</svg>
