<svg width="228" height="73" viewBox="0 0 228 73" fill="none" xmlns="http://www.w3.org/2000/svg">
<path d="M13.7203 36.9134L0.5 0.0020752H13.2868L18.434 17.0628C18.5785 17.5278 18.7772 18.2074 19.03 19.1015C19.2829 19.9957 19.5538 20.9435 19.8427 21.945C20.1678 22.9465 20.4387 23.8585 20.6555 24.6812H21.0889C21.3056 23.93 21.5585 23.0716 21.8475 22.1059C22.1364 21.1402 22.4073 20.2103 22.6602 19.3161C22.9491 18.3862 23.1659 17.6351 23.3104 17.0628L28.5118 0.0020752H40.7568L27.5907 36.9134H13.7203Z" fill="white"/>
<path d="M57.2143 37.5572C53.7829 37.5572 50.8029 37.0386 48.2744 36.0013C45.7821 34.9283 43.8496 33.3009 42.477 31.1192C41.1405 28.9374 40.4723 26.1476 40.4723 22.7497C40.4723 19.4234 41.1405 16.6694 42.477 14.4876C43.8135 12.3058 45.6737 10.6785 48.0577 9.60546C50.4778 8.49669 53.3133 7.9423 56.5642 7.9423C59.9956 7.9423 62.9034 8.4788 65.2874 9.5518C67.7075 10.589 69.5496 12.1985 70.8139 14.3803C72.0781 16.5621 72.7102 19.3519 72.7102 22.7497V24.5739H51.2544C51.2544 25.8615 51.435 26.9702 51.7962 27.9002C52.1935 28.8301 52.8076 29.5454 53.6384 30.0462C54.5053 30.5111 55.625 30.7436 56.9976 30.7436C57.9729 30.7436 58.7856 30.6363 59.4358 30.4217C60.1221 30.2071 60.6639 29.921 61.0612 29.5633C61.4947 29.1699 61.8017 28.7228 61.9823 28.2221C62.1629 27.7213 62.2532 27.1848 62.2532 26.6126H72.7102C72.7102 28.2936 72.3851 29.8137 71.7349 31.1728C71.0848 32.532 70.1095 33.6944 68.8092 34.6601C67.5088 35.59 65.8834 36.3054 63.9328 36.8061C62.0184 37.3068 59.7789 37.5572 57.2143 37.5572ZM51.3086 19.5307H61.8198C61.8198 18.7796 61.7114 18.1179 61.4947 17.5457C61.2779 16.9376 60.9529 16.4369 60.5194 16.0435C60.1221 15.6143 59.6164 15.2924 59.0023 15.0778C58.4244 14.8632 57.7562 14.7559 56.9976 14.7559C55.8056 14.7559 54.8123 14.9526 54.0176 15.346C53.223 15.7395 52.6089 16.2938 52.1755 17.0092C51.742 17.6887 51.4531 18.5293 51.3086 19.5307Z" fill="white"/>
<path d="M90.0478 37.5572C88.0973 37.5572 86.3635 37.3426 84.8464 36.9134C83.3655 36.4484 82.2096 35.6616 81.3788 34.5528C80.548 33.444 80.1326 31.9239 80.1326 29.9925V15.8289H76.1232V8.5861H80.5661L82.8959 0.0020752H90.9147V8.5861H96.983V15.8289H90.9147V26.6126C90.9147 27.8286 91.1134 28.7586 91.5107 29.4024C91.908 30.0104 92.7208 30.3144 93.9489 30.3144H96.983V36.5915C96.4051 36.7703 95.6827 36.9313 94.8158 37.0743C93.985 37.2532 93.1362 37.3784 92.2693 37.4499C91.4385 37.5214 90.698 37.5572 90.0478 37.5572Z" fill="white"/>
<path d="M117.428 37.5572C113.996 37.5572 111.016 37.0386 108.488 36.0013C105.995 34.9283 104.063 33.3009 102.69 31.1192C101.354 28.9374 100.686 26.1476 100.686 22.7497C100.686 19.4234 101.354 16.6694 102.69 14.4876C104.027 12.3058 105.887 10.6785 108.271 9.60546C110.691 8.49669 113.527 7.9423 116.777 7.9423C120.209 7.9423 123.117 8.4788 125.501 9.5518C127.921 10.589 129.763 12.1985 131.027 14.3803C132.291 16.5621 132.923 19.3519 132.923 22.7497V24.5739H111.468C111.468 25.8615 111.648 26.9702 112.009 27.9002C112.407 28.8301 113.021 29.5454 113.852 30.0462C114.719 30.5111 115.838 30.7436 117.211 30.7436C118.186 30.7436 118.999 30.6363 119.649 30.4217C120.335 30.2071 120.877 29.921 121.274 29.5633C121.708 29.1699 122.015 28.7228 122.196 28.2221C122.376 27.7213 122.466 27.1848 122.466 26.6126H132.923C132.923 28.2936 132.598 29.8137 131.948 31.1728C131.298 32.532 130.323 33.6944 129.022 34.6601C127.722 35.59 126.097 36.3054 124.146 36.8061C122.232 37.3068 119.992 37.5572 117.428 37.5572ZM111.522 19.5307H122.033C122.033 18.7796 121.925 18.1179 121.708 17.5457C121.491 16.9376 121.166 16.4369 120.733 16.0435C120.335 15.6143 119.83 15.2924 119.216 15.0778C118.638 14.8632 117.969 14.7559 117.211 14.7559C116.019 14.7559 115.026 14.9526 114.231 15.346C113.436 15.7395 112.822 16.2938 112.389 17.0092C111.955 17.6887 111.666 18.5293 111.522 19.5307Z" fill="white"/>
<path d="M138.124 36.9134V8.5861H146.956L147.66 12.8781H148.04C148.509 11.8051 149.105 10.8931 149.828 10.142C150.586 9.39085 151.453 8.83647 152.428 8.4788C153.404 8.08537 154.433 7.88865 155.517 7.88865C156.239 7.88865 156.889 7.96018 157.467 8.10325C158.045 8.24632 158.461 8.38938 158.713 8.53245V17.492H155.246C154.09 17.492 153.097 17.653 152.266 17.9749C151.471 18.261 150.821 18.7081 150.315 19.3161C149.846 19.8884 149.484 20.6037 149.232 21.4621C149.015 22.2848 148.907 23.2326 148.907 24.3056V36.9134H138.124Z" fill="white"/>
<path d="M170.122 37.5572C168.641 37.5572 167.287 37.4141 166.059 37.128C164.831 36.8776 163.765 36.4484 162.862 35.8404C161.959 35.1966 161.255 34.3739 160.749 33.3725C160.279 32.3352 160.045 31.0834 160.045 29.617C160.045 27.5067 160.478 25.7899 161.345 24.4666C162.248 23.1432 163.548 22.1238 165.246 21.4085C166.944 20.6932 169.003 20.2103 171.423 19.9599C173.879 19.6738 176.678 19.5307 179.821 19.5307V18.1358C179.821 17.349 179.622 16.723 179.225 16.2581C178.864 15.7573 178.376 15.3818 177.762 15.1314C177.148 14.8811 176.444 14.7559 175.649 14.7559C175.035 14.7559 174.403 14.8274 173.753 14.9705C173.102 15.1135 172.561 15.3639 172.127 15.7216C171.73 16.0792 171.531 16.58 171.531 17.2238V17.4384H160.912C160.875 17.2953 160.857 17.1701 160.857 17.0628C160.857 16.9555 160.857 16.8303 160.857 16.6873C160.857 14.9347 161.417 13.4146 162.537 12.127C163.693 10.8036 165.372 9.78429 167.576 9.06895C169.815 8.31785 172.561 7.9423 175.811 7.9423C178.448 7.9423 180.886 8.22843 183.126 8.8007C185.365 9.37297 187.171 10.3387 188.544 11.6978C189.917 13.0212 190.603 14.8453 190.603 17.1701V28.2221C190.603 28.7943 190.747 29.2951 191.036 29.7243C191.325 30.1177 191.759 30.3144 192.337 30.3144H194.287V36.4842C193.854 36.7346 193.131 36.967 192.12 37.1816C191.145 37.432 189.989 37.5572 188.652 37.5572C187.208 37.5572 185.943 37.4141 184.86 37.128C183.776 36.8419 182.891 36.4305 182.205 35.894C181.555 35.3575 181.103 34.7316 180.85 34.0163H180.471C179.712 34.6959 178.827 35.3039 177.816 35.8404C176.841 36.3769 175.721 36.7882 174.457 37.0743C173.193 37.3962 171.748 37.5572 170.122 37.5572ZM174.511 30.9046C175.197 30.9046 175.848 30.8152 176.462 30.6363C177.112 30.4217 177.69 30.1535 178.195 29.8316C178.701 29.4739 179.098 29.0626 179.387 28.5976C179.676 28.0969 179.821 27.5604 179.821 26.9881V24.5739C177.69 24.5739 175.956 24.7348 174.619 25.0567C173.319 25.3786 172.362 25.8078 171.748 26.3443C171.134 26.8808 170.827 27.5067 170.827 28.2221C170.827 28.9374 171.007 29.4918 171.369 29.8852C171.73 30.2787 172.181 30.5469 172.723 30.69C173.301 30.833 173.897 30.9046 174.511 30.9046Z" fill="white"/>
<path d="M197.809 36.9134V8.5861H206.64L207.345 12.8781H207.724C208.482 11.7693 209.367 10.8573 210.379 10.142C211.39 9.39085 212.51 8.83647 213.738 8.4788C214.966 8.12113 216.23 7.9423 217.531 7.9423C219.806 7.9423 221.666 8.3715 223.111 9.2299C224.592 10.0525 225.694 11.2507 226.416 12.8245C227.139 14.3982 227.5 16.3117 227.5 18.565V36.9134H216.718V19.8526C216.718 19.2446 216.628 18.7081 216.447 18.2431C216.303 17.7424 216.086 17.3132 215.797 16.9555C215.508 16.5979 215.129 16.3296 214.659 16.1508C214.226 15.9362 213.702 15.8289 213.088 15.8289C212.185 15.8289 211.39 16.0435 210.704 16.4727C210.054 16.8661 209.53 17.4026 209.133 18.0822C208.771 18.726 208.591 19.4592 208.591 20.2818V36.9134H197.809Z" fill="white"/>
<path d="M1.89231 72.6802V54.2782H6.63318L10.2362 65.4374C10.3446 65.7593 10.453 66.1259 10.5613 66.5372C10.6697 66.9485 10.769 67.342 10.8593 67.7175C10.9677 68.0931 11.049 68.4239 11.1031 68.7101H11.3199C11.356 68.4418 11.4192 68.1199 11.5095 67.7444C11.5998 67.3688 11.6901 66.9754 11.7804 66.564C11.8888 66.1527 11.9971 65.7682 12.1055 65.4106L15.7357 54.2782H20.3952V72.6802H17.3882V62.5939C17.3882 61.9144 17.3972 61.208 17.4153 60.4748C17.4333 59.7415 17.4514 59.0888 17.4695 58.5165C17.4875 57.9443 17.4965 57.5776 17.4965 57.4167H17.2798C17.2437 57.6134 17.1534 57.9532 17.0089 58.436C16.8825 58.901 16.747 59.4018 16.6026 59.9383C16.4581 60.4748 16.3226 60.9397 16.1962 61.3332L12.4306 72.6802H9.74861L5.98301 61.36C5.87464 61.0202 5.75725 60.6178 5.63083 60.1529C5.5044 59.6879 5.37798 59.214 5.25156 58.7311C5.12513 58.2483 5.01677 57.8101 4.92647 57.4167H4.70974C4.7278 57.8459 4.73683 58.3735 4.73683 58.9994C4.75489 59.6253 4.77296 60.2602 4.79102 60.904C4.80908 61.5299 4.81811 62.0932 4.81811 62.5939V72.6802H1.89231Z" fill="white"/>
<path d="M24.4237 56.1291V53.2856H27.2411V56.1291H24.4237ZM24.4237 72.6802V58.5702H27.2411V72.6802H24.4237Z" fill="white"/>
<path d="M36.5409 73.0021C35.1141 73.0021 33.9221 72.7428 32.9649 72.2241C32.0077 71.6876 31.2853 70.8739 30.7976 69.7831C30.3281 68.6922 30.0933 67.3062 30.0933 65.6252C30.0933 63.9441 30.3371 62.5671 30.8247 61.4941C31.3124 60.4032 32.0348 59.5895 32.992 59.053C33.9673 58.5165 35.1592 58.2483 36.568 58.2483C37.5432 58.2483 38.3921 58.3735 39.1145 58.6238C39.8369 58.8563 40.451 59.214 40.9566 59.6968C41.4623 60.1618 41.8326 60.743 42.0674 61.4405C42.3202 62.1379 42.4466 62.9337 42.4466 63.8279H39.6021C39.6021 63.0768 39.4938 62.4598 39.277 61.977C39.0603 61.4941 38.7262 61.1364 38.2747 60.904C37.8232 60.6536 37.2362 60.5284 36.5138 60.5284C35.7552 60.5284 35.1141 60.7072 34.5903 61.0649C34.0666 61.4047 33.6693 61.9323 33.3983 62.6476C33.1274 63.345 32.992 64.266 32.992 65.4106V65.8666C32.992 66.9575 33.1184 67.8695 33.3713 68.6028C33.6422 69.3181 34.0395 69.8546 34.5632 70.2123C35.1051 70.552 35.7914 70.7219 36.6221 70.7219C37.3446 70.7219 37.9225 70.5968 38.3559 70.3464C38.8075 70.0781 39.1416 69.7026 39.3583 69.2197C39.5931 68.719 39.7105 68.1199 39.7105 67.4224H42.4466C42.4466 68.263 42.3202 69.023 42.0674 69.7026C41.8326 70.3821 41.4623 70.9723 40.9566 71.473C40.469 71.9559 39.855 72.3314 39.1145 72.5997C38.374 72.8679 37.5161 73.0021 36.5409 73.0021Z" fill="white"/>
<path d="M45.2973 72.6802V53.2856H48.1147V60.2602H48.3044C48.6475 59.831 49.0358 59.4733 49.4693 59.1871C49.9027 58.8831 50.3903 58.6506 50.9322 58.4897C51.474 58.3287 52.07 58.2483 52.7201 58.2483C53.6232 58.2483 54.4178 58.4092 55.1041 58.7311C55.7904 59.0351 56.3232 59.5359 56.7025 60.2333C57.0998 60.9308 57.2985 61.8697 57.2985 63.05V72.6802H54.481V63.4792C54.481 62.9427 54.4088 62.4956 54.2643 62.1379C54.1379 61.7802 53.9483 61.4941 53.6954 61.2795C53.4426 61.0649 53.1446 60.9129 52.8014 60.8235C52.4583 60.7341 52.079 60.6894 51.6636 60.6894C51.0134 60.6894 50.4174 60.8414 49.8756 61.1454C49.3519 61.4494 48.9274 61.8786 48.6024 62.433C48.2773 62.9874 48.1147 63.6491 48.1147 64.418V72.6802H45.2973Z" fill="white"/>
<path d="M64.4299 73.0021C63.9784 73.0021 63.4907 72.9484 62.967 72.8411C62.4432 72.7338 61.9466 72.5371 61.477 72.251C61.0255 71.9648 60.6552 71.5714 60.3663 71.0707C60.0773 70.552 59.9328 69.8814 59.9328 69.0588C59.9328 68.0931 60.1586 67.2973 60.6101 66.6713C61.0616 66.0454 61.6937 65.5536 62.5064 65.196C63.3192 64.8383 64.2854 64.5879 65.4051 64.4449C66.543 64.3018 67.7801 64.2303 69.1166 64.2303V62.8354C69.1166 62.3704 69.0353 61.9591 68.8727 61.6014C68.7283 61.2437 68.4483 60.9665 68.0329 60.7698C67.6356 60.5731 67.0577 60.4748 66.2991 60.4748C65.5406 60.4748 64.9446 60.5731 64.5111 60.7698C64.0958 60.9487 63.7978 61.1811 63.6172 61.4673C63.4546 61.7355 63.3733 62.0306 63.3733 62.3525V62.7549H60.6643C60.6462 62.6655 60.6372 62.576 60.6372 62.4866C60.6372 62.3972 60.6372 62.2899 60.6372 62.1647C60.6372 61.3242 60.872 60.6178 61.3415 60.0456C61.8292 59.4554 62.5064 59.0083 63.3733 58.7043C64.2402 58.4003 65.2426 58.2483 66.3804 58.2483C67.6085 58.2483 68.6289 58.4271 69.4417 58.7848C70.2724 59.1246 70.8955 59.6163 71.3109 60.2602C71.7263 60.904 71.934 61.6819 71.934 62.5939V69.7562C71.934 70.096 72.0153 70.3374 72.1778 70.4805C72.3584 70.6236 72.5661 70.6951 72.8009 70.6951H73.7762V72.5729C73.5594 72.6623 73.2885 72.7517 72.9634 72.8411C72.6384 72.9305 72.2591 72.9752 71.8256 72.9752C71.338 72.9752 70.9226 72.8858 70.5795 72.707C70.2544 72.546 69.9835 72.3136 69.7667 72.0095C69.5681 71.6876 69.4326 71.33 69.3604 70.9365H69.1978C68.8727 71.3479 68.4754 71.7145 68.0059 72.0364C67.5543 72.3404 67.0306 72.5729 66.4346 72.7338C65.8386 72.9127 65.1704 73.0021 64.4299 73.0021ZM65.2155 70.6951C65.7754 70.6951 66.2901 70.6146 66.7597 70.4537C67.2473 70.2748 67.6627 70.0334 68.0059 69.7294C68.349 69.4075 68.6199 69.032 68.8186 68.6028C69.0172 68.1557 69.1166 67.6728 69.1166 67.1542V66.2153C67.8704 66.2153 66.7777 66.2869 65.8386 66.4299C64.8994 66.573 64.168 66.8412 63.6442 67.2347C63.1205 67.6102 62.8586 68.1378 62.8586 68.8174C62.8586 69.2287 62.9489 69.5774 63.1295 69.8635C63.3101 70.1318 63.581 70.3374 63.9422 70.4805C64.3035 70.6236 64.7279 70.6951 65.2155 70.6951Z" fill="white"/>
<path d="M81.6272 73.0021C80.1643 73.0021 78.9362 72.7428 77.9428 72.2241C76.9676 71.6876 76.2271 70.8739 75.7214 69.7831C75.2157 68.6922 74.9629 67.3062 74.9629 65.6252C74.9629 63.9263 75.2157 62.5403 75.7214 61.4673C76.2271 60.3764 76.9766 59.5716 77.9699 59.053C78.9632 58.5165 80.2004 58.2483 81.6814 58.2483C83.0359 58.2483 84.1647 58.5076 85.0677 59.0262C85.9888 59.5269 86.6841 60.2959 87.1537 61.3332C87.6232 62.3704 87.858 63.6759 87.858 65.2496V66.3226H77.8616C77.8977 67.3241 78.0512 68.1646 78.3221 68.8442C78.593 69.5059 78.9994 69.9977 79.5412 70.3196C80.1011 70.6236 80.8054 70.7756 81.6543 70.7756C82.178 70.7756 82.6476 70.713 83.063 70.5878C83.4784 70.4447 83.8305 70.248 84.1195 69.9977C84.4085 69.7294 84.6342 69.4165 84.7968 69.0588C84.9593 68.6832 85.0406 68.263 85.0406 67.798H87.8038C87.8038 68.6385 87.6594 69.3807 87.3704 70.0245C87.0814 70.6683 86.657 71.2137 86.0971 71.6608C85.5553 72.09 84.9051 72.4209 84.1466 72.6533C83.3881 72.8858 82.5483 73.0021 81.6272 73.0021ZM77.9157 64.2839H84.9051C84.9051 63.5865 84.8239 63.0053 84.6613 62.5403C84.5168 62.0574 84.3001 61.664 84.0112 61.36C83.7222 61.056 83.379 60.8414 82.9817 60.7162C82.5844 60.5731 82.1329 60.5016 81.6272 60.5016C80.8686 60.5016 80.2185 60.6357 79.6766 60.904C79.1529 61.1722 78.7465 61.5925 78.4576 62.1647C78.1686 62.7191 77.988 63.4255 77.9157 64.2839Z" fill="white"/>
<path d="M90.7218 72.6802V53.2856H93.5392V72.6802H90.7218Z" fill="white"/>
<path d="M101.08 72.6802L108.368 54.2782H112.242L119.556 72.6802H116.305L114.653 68.415H105.848L104.196 72.6802H101.08ZM106.823 65.8666H113.65L111.564 60.4748C111.51 60.3138 111.429 60.0903 111.32 59.8041C111.212 59.518 111.095 59.205 110.968 58.8652C110.86 58.5255 110.743 58.1857 110.616 57.8459C110.508 57.4882 110.408 57.1663 110.318 56.8802H110.156C110.047 57.22 109.912 57.6224 109.749 58.0873C109.587 58.5523 109.424 58.9994 109.262 59.4286C109.117 59.8578 108.991 60.2065 108.882 60.4748L106.823 65.8666Z" fill="white"/>
<path d="M121.569 72.6802V58.5702H123.899L124.143 60.8503H124.305C124.468 60.4032 124.676 59.983 124.928 59.5895C125.199 59.1961 125.543 58.8742 125.958 58.6238C126.391 58.3735 126.915 58.2483 127.529 58.2483C127.818 58.2483 128.071 58.2751 128.288 58.3288C128.522 58.3824 128.703 58.4271 128.829 58.4629V61.0917H127.881C127.303 61.0917 126.789 61.1811 126.337 61.36C125.904 61.5388 125.533 61.8071 125.226 62.1647C124.937 62.5045 124.721 62.9248 124.576 63.4255C124.45 63.9262 124.387 64.4896 124.387 65.1155V72.6802H121.569Z" fill="white"/>
<path d="M136.332 73.0021C134.905 73.0021 133.713 72.7428 132.756 72.2241C131.799 71.6876 131.076 70.8739 130.589 69.7831C130.119 68.6922 129.884 67.3062 129.884 65.6252C129.884 63.9441 130.128 62.5671 130.616 61.4941C131.103 60.4032 131.826 59.5895 132.783 59.053C133.758 58.5165 134.95 58.2483 136.359 58.2483C137.334 58.2483 138.183 58.3735 138.906 58.6238C139.628 58.8563 140.242 59.214 140.748 59.6968C141.253 60.1618 141.624 60.743 141.858 61.4405C142.111 62.1379 142.238 62.9337 142.238 63.8279H139.393C139.393 63.0768 139.285 62.4598 139.068 61.977C138.851 61.4941 138.517 61.1364 138.066 60.904C137.614 60.6536 137.027 60.5284 136.305 60.5284C135.546 60.5284 134.905 60.7072 134.381 61.0649C133.858 61.4047 133.46 61.9323 133.189 62.6476C132.919 63.345 132.783 64.266 132.783 65.4106V65.8666C132.783 66.9575 132.909 67.8695 133.162 68.6028C133.433 69.3181 133.831 69.8546 134.354 70.2123C134.896 70.552 135.582 70.7219 136.413 70.7219C137.136 70.7219 137.714 70.5968 138.147 70.3464C138.599 70.0781 138.933 69.7026 139.149 69.2197C139.384 68.719 139.502 68.1199 139.502 67.4224H142.238C142.238 68.263 142.111 69.023 141.858 69.7026C141.624 70.3821 141.253 70.9723 140.748 71.473C140.26 71.9559 139.646 72.3314 138.906 72.5997C138.165 72.8679 137.307 73.0021 136.332 73.0021Z" fill="white"/>
<path d="M145.088 72.6802V53.2856H147.906V60.2602H148.095C148.439 59.831 148.827 59.4733 149.26 59.1871C149.694 58.8831 150.181 58.6506 150.723 58.4897C151.265 58.3287 151.861 58.2483 152.511 58.2483C153.414 58.2483 154.209 58.4092 154.895 58.7311C155.581 59.0351 156.114 59.5359 156.494 60.2333C156.891 60.9308 157.09 61.8697 157.09 63.05V72.6802H154.272V63.4792C154.272 62.9427 154.2 62.4956 154.055 62.1379C153.929 61.7802 153.739 61.4941 153.486 61.2795C153.234 61.0649 152.936 60.9129 152.592 60.8235C152.249 60.7341 151.87 60.6894 151.455 60.6894C150.805 60.6894 150.208 60.8414 149.667 61.1454C149.143 61.4494 148.719 61.8786 148.393 62.433C148.068 62.9874 147.906 63.6491 147.906 64.418V72.6802H145.088Z" fill="white"/>
<path d="M166.524 73.0021C165.061 73.0021 163.833 72.7428 162.839 72.2241C161.864 71.6876 161.124 70.8739 160.618 69.7831C160.112 68.6922 159.859 67.3062 159.859 65.6252C159.859 63.9263 160.112 62.5403 160.618 61.4673C161.124 60.3764 161.873 59.5716 162.866 59.053C163.86 58.5165 165.097 58.2483 166.578 58.2483C167.932 58.2483 169.061 58.5076 169.964 59.0262C170.885 59.5269 171.581 60.2959 172.05 61.3332C172.52 62.3704 172.755 63.6759 172.755 65.2496V66.3226H162.758C162.794 67.3241 162.948 68.1646 163.219 68.8442C163.489 69.5059 163.896 69.9977 164.438 70.3196C164.998 70.6236 165.702 70.7756 166.551 70.7756C167.074 70.7756 167.544 70.713 167.959 70.5878C168.375 70.4447 168.727 70.248 169.016 69.9977C169.305 69.7294 169.531 69.4165 169.693 69.0588C169.856 68.6832 169.937 68.263 169.937 67.798H172.7C172.7 68.6385 172.556 69.3807 172.267 70.0245C171.978 70.6683 171.553 71.2137 170.994 71.6608C170.452 72.09 169.802 72.4209 169.043 72.6533C168.285 72.8858 167.445 73.0021 166.524 73.0021ZM162.812 64.2839H169.802C169.802 63.5865 169.72 63.0053 169.558 62.5403C169.413 62.0574 169.197 61.664 168.908 61.36C168.619 61.056 168.276 60.8414 167.878 60.7162C167.481 60.5731 167.029 60.5016 166.524 60.5016C165.765 60.5016 165.115 60.6357 164.573 60.904C164.049 61.1722 163.643 61.5925 163.354 62.1647C163.065 62.7191 162.884 63.4255 162.812 64.2839Z" fill="white"/>
<path d="M175.618 72.6802V58.5702H177.948L178.192 60.8503H178.354C178.517 60.4032 178.725 59.983 178.978 59.5895C179.248 59.1961 179.592 58.8742 180.007 58.6238C180.44 58.3735 180.964 58.2483 181.578 58.2483C181.867 58.2483 182.12 58.2751 182.337 58.3288C182.572 58.3824 182.752 58.4271 182.879 58.4629V61.0917H181.93C181.352 61.0917 180.838 61.1811 180.386 61.36C179.953 61.5388 179.583 61.8071 179.276 62.1647C178.987 62.5045 178.77 62.9248 178.625 63.4255C178.499 63.9262 178.436 64.4896 178.436 65.1155V72.6802H175.618Z" fill="white"/>
</svg>
