<svg width="37" height="36" viewBox="0 0 37 36" fill="none" xmlns="http://www.w3.org/2000/svg">
<path d="M18.4992 29.4859L10.2586 34.6837C9.89454 34.9263 9.51396 35.0302 9.11682 34.9956C8.71968 34.9609 8.37219 34.8223 8.07434 34.5798C7.77649 34.3372 7.54482 34.0343 7.37935 33.6712C7.21388 33.308 7.18078 32.9005 7.28007 32.4487L9.46431 22.6249L2.16694 16.0237C1.836 15.7118 1.62948 15.3563 1.54741 14.9571C1.46533 14.5579 1.48982 14.1684 1.62088 13.7886C1.75326 13.4075 1.95183 13.0956 2.21658 12.853C2.48134 12.6105 2.84538 12.4545 3.30871 12.3852L12.9393 11.5016L16.6624 2.24954C16.8279 1.83372 17.0847 1.52185 17.4328 1.31394C17.781 1.10603 18.1364 1.00208 18.4992 1.00208C18.8632 1.00208 19.2186 1.10603 19.5655 1.31394C19.9123 1.52185 20.1691 1.83372 20.3359 2.24954L24.0591 11.5016L33.6896 12.3852C34.1529 12.4545 34.517 12.6105 34.7817 12.853C35.0465 13.0956 35.245 13.4075 35.3774 13.7886C35.5098 14.1698 35.535 14.56 35.4529 14.9592C35.3708 15.3584 35.1636 15.7132 34.8314 16.0237L27.534 22.6249L29.7182 32.4487C29.8175 32.8991 29.7844 33.3066 29.619 33.6712C29.4535 34.0357 29.2218 34.3386 28.924 34.5798C28.6261 34.8223 28.2786 34.9609 27.8815 34.9956C27.4844 35.0302 27.1038 34.9263 26.7397 34.6837L18.4992 29.4859Z" fill="#C3083F" stroke="#C3083F" stroke-width="1.5"/>
</svg>
