<svg width="39" height="36" viewBox="0 0 39 36" fill="none" xmlns="http://www.w3.org/2000/svg">
<path d="M19.4991 29.4859L10.7738 34.6837C10.3883 34.9263 9.98536 35.0302 9.56487 34.9956C9.14437 34.9609 8.77644 34.8223 8.46106 34.5798C8.14569 34.3372 7.9004 34.0343 7.72519 33.6712C7.54999 33.308 7.51495 32.9005 7.62007 32.4487L9.9328 22.6249L2.20617 16.0237C1.85576 15.7118 1.6371 15.3563 1.5502 14.9571C1.4633 14.5579 1.48923 14.1684 1.62799 13.7886C1.76816 13.4075 1.9784 13.0956 2.25874 12.853C2.53907 12.6105 2.92452 12.4545 3.4151 12.3852L13.6121 11.5016L17.5543 2.24954C17.7295 1.83372 18.0014 1.52185 18.3701 1.31394C18.7387 1.10603 19.1151 1.00208 19.4991 1.00208C19.8846 1.00208 20.2609 1.10603 20.6281 1.31394C20.9954 1.52185 21.2673 1.83372 21.4439 2.24954L25.3861 11.5016L35.5831 12.3852C36.0737 12.4545 36.4591 12.6105 36.7395 12.853C37.0198 13.0956 37.23 13.4075 37.3702 13.7886C37.5104 14.1698 37.537 14.56 37.4501 14.9592C37.3632 15.3584 37.1438 15.7132 36.792 16.0237L29.0654 22.6249L31.3781 32.4487C31.4833 32.8991 31.4482 33.3066 31.273 33.6712C31.0978 34.0357 30.8525 34.3386 30.5371 34.5798C30.2218 34.8223 29.8538 34.9609 29.4333 34.9956C29.0128 35.0302 28.6099 34.9263 28.2244 34.6837L19.4991 29.4859Z" fill="#C3083F" stroke="#C3083F" stroke-width="1.5"/>
</svg>
