<svg width="103" height="103" viewBox="0 0 103 103" fill="none" xmlns="http://www.w3.org/2000/svg">
<path d="M59.5798 48.641L49.4743 38.5412C48.9403 38.0072 48.6923 37.3682 48.7304 36.6243C48.7648 35.8842 49.0509 35.2452 49.5888 34.7074C50.1229 34.1733 50.7847 33.9062 51.5744 33.9062C52.3641 33.9062 53.0126 34.1733 53.5199 34.7074L67.0816 48.269C68.0048 49.1922 68.4664 50.2699 68.4664 51.5021C68.4664 52.7343 68.0048 53.8119 67.0816 54.7351L53.4169 68.4055C52.8829 68.9396 52.2439 69.2066 51.5 69.2066C50.7561 69.2066 50.1171 68.9396 49.5831 68.4055C49.049 67.8714 48.7819 67.2077 48.7819 66.4142C48.7819 65.6245 49.049 64.976 49.5831 64.4686L59.5798 54.3632H34.3333C33.5208 54.3632 32.8417 54.0885 32.2962 53.5392C31.7469 52.9899 31.4722 52.3089 31.4722 51.4963C31.4722 50.6838 31.7469 50.0048 32.2962 49.4592C32.8417 48.9137 33.5208 48.641 34.3333 48.641H59.5798ZM51.5172 0.0020752C44.3987 0.0020752 37.7037 1.35252 31.4322 4.05341C25.1644 6.75811 19.7111 10.428 15.0723 15.063C10.4335 19.6941 6.76176 25.1417 4.05706 31.4056C1.35235 37.6696 0 44.3626 0 51.4849C0 58.6034 1.35044 65.2984 4.05133 71.5699C6.75604 77.8376 10.4259 83.2909 15.0609 87.9297C19.6921 92.5686 25.1396 96.2403 31.4036 98.945C37.6675 101.65 44.3606 103.002 51.4828 103.002C58.6013 103.002 65.2963 101.652 71.5678 98.9507C77.8356 96.246 83.2888 92.5762 87.9277 87.9412C92.5665 83.31 96.2382 77.8624 98.9429 71.5985C101.648 65.3346 103 58.6415 103 51.5192C103 44.4008 101.65 37.7058 98.9487 31.4342C96.244 25.1665 92.5741 19.7132 87.9391 15.0744C83.3079 10.4356 77.8604 6.76383 71.5964 4.05913C65.3325 1.35442 58.6394 0.0020752 51.5172 0.0020752ZM51.5 5.7243C64.2796 5.7243 75.1042 10.159 83.9736 19.0285C92.8431 27.8979 97.2778 38.7224 97.2778 51.5021C97.2778 64.2817 92.8431 75.1062 83.9736 83.9757C75.1042 92.8451 64.2796 97.2799 51.5 97.2799C38.7204 97.2799 27.8958 92.8451 19.0264 83.9757C10.1569 75.1062 5.72222 64.2817 5.72222 51.5021C5.72222 38.7224 10.1569 27.8979 19.0264 19.0285C27.8958 10.159 38.7204 5.7243 51.5 5.7243Z" fill="#F1F7F7"/>
</svg>
