<svg width="46" height="47" viewBox="0 0 46 47" fill="none" xmlns="http://www.w3.org/2000/svg">
<path d="M19.3916 22.6782L23.9047 18.1676C24.1432 17.9291 24.2539 17.6437 24.2369 17.3115C24.2216 16.981 24.0938 16.6956 23.8536 16.4554C23.615 16.2169 23.3194 16.0976 22.9668 16.0976C22.6141 16.0976 22.3245 16.2169 22.0979 16.4554L16.0412 22.512C15.6289 22.9243 15.4228 23.4056 15.4228 23.9559C15.4228 24.5062 15.6289 24.9875 16.0412 25.3998L22.1439 31.505C22.3824 31.7436 22.6678 31.8628 23 31.8628C23.3322 31.8628 23.6176 31.7436 23.8561 31.505C24.0946 31.2665 24.2139 30.9701 24.2139 30.6157C24.2139 30.263 24.0946 29.9734 23.8561 29.7468L19.3916 25.2337H30.6667C31.0296 25.2337 31.3328 25.111 31.5764 24.8657C31.8218 24.6204 31.9444 24.3163 31.9444 23.9534C31.9444 23.5905 31.8218 23.2872 31.5764 23.0436C31.3328 22.8 31.0296 22.6782 30.6667 22.6782H19.3916ZM22.9923 0.955932C26.1714 0.955932 29.1614 1.55904 31.9623 2.76527C34.7615 3.97319 37.197 5.61215 39.2687 7.68215C41.3404 9.75045 42.9802 12.1833 44.1881 14.9808C45.396 17.7783 46 20.7675 46 23.9483C46 27.1274 45.3969 30.1174 44.1907 32.9183C42.9827 35.7175 41.3438 38.1529 39.2738 40.2246C37.2055 42.2963 34.7726 43.9361 31.9751 45.144C29.1776 46.352 26.1885 46.9559 23.0077 46.9559C19.8286 46.9559 16.8386 46.3528 14.0377 45.1466C11.2385 43.9387 8.80304 42.2997 6.73133 40.2297C4.65963 38.1614 3.01981 35.7285 1.81189 32.931C0.603962 30.1336 -4.76837e-07 27.1444 -4.76837e-07 23.9636C-4.76837e-07 20.7845 0.603111 17.7945 1.80933 14.9936C3.01726 12.1944 4.65622 9.75897 6.72622 7.68727C8.79452 5.61556 11.2274 3.97575 14.0249 2.76782C16.8224 1.55989 19.8115 0.955932 22.9923 0.955932ZM23 3.51149C17.2926 3.51149 12.4583 5.49205 8.49722 9.45316C4.53611 13.4143 2.55556 18.2485 2.55556 23.9559C2.55556 29.6633 4.53611 34.4976 8.49722 38.4587C12.4583 42.4198 17.2926 44.4004 23 44.4004C28.7074 44.4004 33.5417 42.4198 37.5028 38.4587C41.4639 34.4976 43.4444 29.6633 43.4444 23.9559C43.4444 18.2485 41.4639 13.4143 37.5028 9.45316C33.5417 5.49205 28.7074 3.51149 23 3.51149Z" fill="#F1F7F7"/>
</svg>
