<svg width="227" height="73" viewBox="0 0 227 73" fill="none" xmlns="http://www.w3.org/2000/svg">
<path d="M13.2203 36.9134L0 0.0020752H12.7868L17.934 17.0628C18.0785 17.5278 18.2772 18.2074 18.53 19.1015C18.7829 19.9957 19.0538 20.9435 19.3427 21.945C19.6678 22.9465 19.9387 23.8585 20.1555 24.6812H20.5889C20.8056 23.93 21.0585 23.0716 21.3475 22.1059C21.6364 21.1402 21.9073 20.2103 22.1602 19.3161C22.4491 18.3862 22.6659 17.6351 22.8104 17.0628L28.0118 0.0020752H40.2568L27.0907 36.9134H13.2203Z" fill="white"/>
<path d="M56.7143 37.5572C53.2829 37.5572 50.3029 37.0386 47.7744 36.0013C45.2821 34.9283 43.3496 33.3009 41.977 31.1192C40.6405 28.9374 39.9723 26.1476 39.9723 22.7497C39.9723 19.4234 40.6405 16.6694 41.977 14.4876C43.3135 12.3058 45.1737 10.6785 47.5577 9.60546C49.9778 8.49669 52.8133 7.9423 56.0642 7.9423C59.4956 7.9423 62.4034 8.4788 64.7874 9.5518C67.2075 10.589 69.0496 12.1985 70.3139 14.3803C71.5781 16.5621 72.2102 19.3519 72.2102 22.7497V24.5739H50.7544C50.7544 25.8615 50.935 26.9702 51.2962 27.9002C51.6935 28.8301 52.3076 29.5454 53.1384 30.0462C54.0053 30.5111 55.125 30.7436 56.4976 30.7436C57.4729 30.7436 58.2856 30.6363 58.9358 30.4217C59.6221 30.2071 60.1639 29.921 60.5612 29.5633C60.9947 29.1699 61.3017 28.7228 61.4823 28.2221C61.6629 27.7213 61.7532 27.1848 61.7532 26.6126H72.2102C72.2102 28.2936 71.8851 29.8137 71.2349 31.1728C70.5848 32.532 69.6095 33.6944 68.3092 34.6601C67.0088 35.59 65.3834 36.3054 63.4328 36.8061C61.5184 37.3068 59.2789 37.5572 56.7143 37.5572ZM50.8086 19.5307H61.3198C61.3198 18.7796 61.2114 18.1179 60.9947 17.5457C60.7779 16.9376 60.4529 16.4369 60.0194 16.0435C59.6221 15.6143 59.1164 15.2924 58.5023 15.0778C57.9244 14.8632 57.2562 14.7559 56.4976 14.7559C55.3056 14.7559 54.3123 14.9526 53.5176 15.346C52.723 15.7395 52.1089 16.2938 51.6755 17.0092C51.242 17.6887 50.9531 18.5293 50.8086 19.5307Z" fill="white"/>
<path d="M89.5478 37.5572C87.5973 37.5572 85.8635 37.3426 84.3464 36.9134C82.8655 36.4484 81.7096 35.6616 80.8788 34.5528C80.048 33.444 79.6326 31.9239 79.6326 29.9925V15.8289H75.6232V8.5861H80.0661L82.3959 0.0020752H90.4147V8.5861H96.483V15.8289H90.4147V26.6126C90.4147 27.8286 90.6134 28.7586 91.0107 29.4024C91.408 30.0104 92.2208 30.3144 93.4489 30.3144H96.483V36.5915C95.9051 36.7703 95.1827 36.9313 94.3158 37.0743C93.485 37.2532 92.6362 37.3784 91.7693 37.4499C90.9385 37.5214 90.198 37.5572 89.5478 37.5572Z" fill="white"/>
<path d="M116.928 37.5572C113.496 37.5572 110.516 37.0386 107.988 36.0013C105.495 34.9283 103.563 33.3009 102.19 31.1192C100.854 28.9374 100.186 26.1476 100.186 22.7497C100.186 19.4234 100.854 16.6694 102.19 14.4876C103.527 12.3058 105.387 10.6785 107.771 9.60546C110.191 8.49669 113.027 7.9423 116.277 7.9423C119.709 7.9423 122.617 8.4788 125.001 9.5518C127.421 10.589 129.263 12.1985 130.527 14.3803C131.791 16.5621 132.423 19.3519 132.423 22.7497V24.5739H110.968C110.968 25.8615 111.148 26.9702 111.509 27.9002C111.907 28.8301 112.521 29.5454 113.352 30.0462C114.219 30.5111 115.338 30.7436 116.711 30.7436C117.686 30.7436 118.499 30.6363 119.149 30.4217C119.835 30.2071 120.377 29.921 120.774 29.5633C121.208 29.1699 121.515 28.7228 121.696 28.2221C121.876 27.7213 121.966 27.1848 121.966 26.6126H132.423C132.423 28.2936 132.098 29.8137 131.448 31.1728C130.798 32.532 129.823 33.6944 128.522 34.6601C127.222 35.59 125.597 36.3054 123.646 36.8061C121.732 37.3068 119.492 37.5572 116.928 37.5572ZM111.022 19.5307H121.533C121.533 18.7796 121.425 18.1179 121.208 17.5457C120.991 16.9376 120.666 16.4369 120.233 16.0435C119.835 15.6143 119.33 15.2924 118.716 15.0778C118.138 14.8632 117.469 14.7559 116.711 14.7559C115.519 14.7559 114.526 14.9526 113.731 15.346C112.936 15.7395 112.322 16.2938 111.889 17.0092C111.455 17.6887 111.166 18.5293 111.022 19.5307Z" fill="white"/>
<path d="M137.624 36.9134V8.5861H146.456L147.16 12.8781H147.54C148.009 11.8051 148.605 10.8931 149.328 10.142C150.086 9.39085 150.953 8.83647 151.928 8.4788C152.904 8.08537 153.933 7.88865 155.017 7.88865C155.739 7.88865 156.389 7.96018 156.967 8.10325C157.545 8.24632 157.961 8.38938 158.213 8.53245V17.492H154.746C153.59 17.492 152.597 17.653 151.766 17.9749C150.971 18.261 150.321 18.7081 149.815 19.3161C149.346 19.8884 148.984 20.6037 148.732 21.4621C148.515 22.2848 148.407 23.2326 148.407 24.3056V36.9134H137.624Z" fill="white"/>
<path d="M169.622 37.5572C168.141 37.5572 166.787 37.4141 165.559 37.128C164.331 36.8776 163.265 36.4484 162.362 35.8404C161.459 35.1966 160.755 34.3739 160.249 33.3725C159.779 32.3352 159.545 31.0834 159.545 29.617C159.545 27.5067 159.978 25.7899 160.845 24.4666C161.748 23.1432 163.048 22.1238 164.746 21.4085C166.444 20.6932 168.503 20.2103 170.923 19.9599C173.379 19.6738 176.178 19.5307 179.321 19.5307V18.1358C179.321 17.349 179.122 16.723 178.725 16.2581C178.364 15.7573 177.876 15.3818 177.262 15.1314C176.648 14.8811 175.944 14.7559 175.149 14.7559C174.535 14.7559 173.903 14.8274 173.253 14.9705C172.602 15.1135 172.061 15.3639 171.627 15.7216C171.23 16.0792 171.031 16.58 171.031 17.2238V17.4384H160.412C160.375 17.2953 160.357 17.1701 160.357 17.0628C160.357 16.9555 160.357 16.8303 160.357 16.6873C160.357 14.9347 160.917 13.4146 162.037 12.127C163.193 10.8036 164.872 9.78429 167.076 9.06895C169.315 8.31785 172.061 7.9423 175.311 7.9423C177.948 7.9423 180.386 8.22843 182.626 8.8007C184.865 9.37297 186.671 10.3387 188.044 11.6978C189.417 13.0212 190.103 14.8453 190.103 17.1701V28.2221C190.103 28.7943 190.247 29.2951 190.536 29.7243C190.825 30.1177 191.259 30.3144 191.837 30.3144H193.787V36.4842C193.354 36.7346 192.631 36.967 191.62 37.1816C190.645 37.432 189.489 37.5572 188.152 37.5572C186.708 37.5572 185.443 37.4141 184.36 37.128C183.276 36.8419 182.391 36.4305 181.705 35.894C181.055 35.3575 180.603 34.7316 180.35 34.0163H179.971C179.212 34.6959 178.327 35.3039 177.316 35.8404C176.341 36.3769 175.221 36.7882 173.957 37.0743C172.693 37.3962 171.248 37.5572 169.622 37.5572ZM174.011 30.9046C174.697 30.9046 175.348 30.8152 175.962 30.6363C176.612 30.4217 177.19 30.1535 177.695 29.8316C178.201 29.4739 178.598 29.0626 178.887 28.5976C179.176 28.0969 179.321 27.5604 179.321 26.9881V24.5739C177.19 24.5739 175.456 24.7348 174.119 25.0567C172.819 25.3786 171.862 25.8078 171.248 26.3443C170.634 26.8808 170.327 27.5067 170.327 28.2221C170.327 28.9374 170.507 29.4918 170.869 29.8852C171.23 30.2787 171.681 30.5469 172.223 30.69C172.801 30.833 173.397 30.9046 174.011 30.9046Z" fill="white"/>
<path d="M197.309 36.9134V8.5861H206.14L206.845 12.8781H207.224C207.982 11.7693 208.867 10.8573 209.879 10.142C210.89 9.39085 212.01 8.83647 213.238 8.4788C214.466 8.12113 215.73 7.9423 217.031 7.9423C219.306 7.9423 221.166 8.3715 222.611 9.2299C224.092 10.0525 225.194 11.2507 225.916 12.8245C226.639 14.3982 227 16.3117 227 18.565V36.9134H216.218V19.8526C216.218 19.2446 216.128 18.7081 215.947 18.2431C215.803 17.7424 215.586 17.3132 215.297 16.9555C215.008 16.5979 214.629 16.3296 214.159 16.1508C213.726 15.9362 213.202 15.8289 212.588 15.8289C211.685 15.8289 210.89 16.0435 210.204 16.4727C209.554 16.8661 209.03 17.4026 208.633 18.0822C208.271 18.726 208.091 19.4592 208.091 20.2818V36.9134H197.309Z" fill="white"/>
<path d="M1.39231 72.6802V54.2782H6.13318L9.73624 65.4374C9.84461 65.7593 9.95297 66.1259 10.0613 66.5372C10.1697 66.9485 10.269 67.342 10.3593 67.7175C10.4677 68.0931 10.549 68.4239 10.6031 68.7101H10.8199C10.856 68.4418 10.9192 68.1199 11.0095 67.7444C11.0998 67.3688 11.1901 66.9754 11.2804 66.564C11.3888 66.1527 11.4971 65.7682 11.6055 65.4106L15.2357 54.2782H19.8952V72.6802H16.8882V62.5939C16.8882 61.9144 16.8972 61.208 16.9153 60.4748C16.9333 59.7415 16.9514 59.0888 16.9695 58.5165C16.9875 57.9443 16.9965 57.5776 16.9965 57.4167H16.7798C16.7437 57.6134 16.6534 57.9532 16.5089 58.436C16.3825 58.901 16.247 59.4018 16.1026 59.9383C15.9581 60.4748 15.8226 60.9397 15.6962 61.3332L11.9306 72.6802H9.24861L5.48301 61.36C5.37464 61.0202 5.25725 60.6178 5.13083 60.1529C5.0044 59.6879 4.87798 59.214 4.75156 58.7311C4.62513 58.2483 4.51677 57.8101 4.42647 57.4167H4.20974C4.2278 57.8459 4.23683 58.3735 4.23683 58.9994C4.25489 59.6253 4.27296 60.2602 4.29102 60.904C4.30908 61.5299 4.31811 62.0932 4.31811 62.5939V72.6802H1.39231Z" fill="white"/>
<path d="M23.9237 56.1291V53.2856H26.7411V56.1291H23.9237ZM23.9237 72.6802V58.5702H26.7411V72.6802H23.9237Z" fill="white"/>
<path d="M36.0409 73.0021C34.6141 73.0021 33.4221 72.7428 32.4649 72.2241C31.5077 71.6876 30.7853 70.8739 30.2976 69.7831C29.8281 68.6922 29.5933 67.3062 29.5933 65.6252C29.5933 63.9441 29.8371 62.5671 30.3247 61.4941C30.8124 60.4032 31.5348 59.5895 32.492 59.053C33.4673 58.5165 34.6592 58.2483 36.068 58.2483C37.0432 58.2483 37.8921 58.3735 38.6145 58.6238C39.3369 58.8563 39.951 59.214 40.4566 59.6968C40.9623 60.1618 41.3326 60.743 41.5674 61.4405C41.8202 62.1379 41.9466 62.9337 41.9466 63.8279H39.1021C39.1021 63.0768 38.9938 62.4598 38.777 61.977C38.5603 61.4941 38.2262 61.1364 37.7747 60.904C37.3232 60.6536 36.7362 60.5284 36.0138 60.5284C35.2552 60.5284 34.6141 60.7072 34.0903 61.0649C33.5666 61.4047 33.1693 61.9323 32.8983 62.6476C32.6274 63.345 32.492 64.266 32.492 65.4106V65.8666C32.492 66.9575 32.6184 67.8695 32.8713 68.6028C33.1422 69.3181 33.5395 69.8546 34.0632 70.2123C34.6051 70.552 35.2914 70.7219 36.1221 70.7219C36.8446 70.7219 37.4225 70.5968 37.8559 70.3464C38.3075 70.0781 38.6416 69.7026 38.8583 69.2197C39.0931 68.719 39.2105 68.1199 39.2105 67.4224H41.9466C41.9466 68.263 41.8202 69.023 41.5674 69.7026C41.3326 70.3821 40.9623 70.9723 40.4566 71.473C39.969 71.9559 39.355 72.3314 38.6145 72.5997C37.874 72.8679 37.0161 73.0021 36.0409 73.0021Z" fill="white"/>
<path d="M44.7973 72.6802V53.2856H47.6147V60.2602H47.8044C48.1475 59.831 48.5358 59.4733 48.9693 59.1871C49.4027 58.8831 49.8903 58.6506 50.4322 58.4897C50.974 58.3287 51.57 58.2483 52.2201 58.2483C53.1232 58.2483 53.9178 58.4092 54.6041 58.7311C55.2904 59.0351 55.8232 59.5359 56.2025 60.2333C56.5998 60.9308 56.7985 61.8697 56.7985 63.05V72.6802H53.981V63.4792C53.981 62.9427 53.9088 62.4956 53.7643 62.1379C53.6379 61.7802 53.4483 61.4941 53.1954 61.2795C52.9426 61.0649 52.6446 60.9129 52.3014 60.8235C51.9583 60.7341 51.579 60.6894 51.1636 60.6894C50.5134 60.6894 49.9174 60.8414 49.3756 61.1454C48.8519 61.4494 48.4274 61.8786 48.1024 62.433C47.7773 62.9874 47.6147 63.6491 47.6147 64.418V72.6802H44.7973Z" fill="white"/>
<path d="M63.9299 73.0021C63.4784 73.0021 62.9907 72.9484 62.467 72.8411C61.9432 72.7338 61.4466 72.5371 60.977 72.251C60.5255 71.9648 60.1552 71.5714 59.8663 71.0707C59.5773 70.552 59.4328 69.8814 59.4328 69.0588C59.4328 68.0931 59.6586 67.2973 60.1101 66.6713C60.5616 66.0454 61.1937 65.5536 62.0064 65.196C62.8192 64.8383 63.7854 64.5879 64.9051 64.4449C66.043 64.3018 67.2801 64.2303 68.6166 64.2303V62.8354C68.6166 62.3704 68.5353 61.9591 68.3727 61.6014C68.2283 61.2437 67.9483 60.9665 67.5329 60.7698C67.1356 60.5731 66.5577 60.4748 65.7991 60.4748C65.0406 60.4748 64.4446 60.5731 64.0111 60.7698C63.5958 60.9487 63.2978 61.1811 63.1172 61.4673C62.9546 61.7355 62.8733 62.0306 62.8733 62.3525V62.7549H60.1643C60.1462 62.6655 60.1372 62.576 60.1372 62.4866C60.1372 62.3972 60.1372 62.2899 60.1372 62.1647C60.1372 61.3242 60.372 60.6178 60.8415 60.0456C61.3292 59.4554 62.0064 59.0083 62.8733 58.7043C63.7402 58.4003 64.7426 58.2483 65.8804 58.2483C67.1085 58.2483 68.1289 58.4271 68.9417 58.7848C69.7724 59.1246 70.3955 59.6163 70.8109 60.2602C71.2263 60.904 71.434 61.6819 71.434 62.5939V69.7562C71.434 70.096 71.5153 70.3374 71.6778 70.4805C71.8584 70.6236 72.0661 70.6951 72.3009 70.6951H73.2762V72.5729C73.0594 72.6623 72.7885 72.7517 72.4634 72.8411C72.1384 72.9305 71.7591 72.9752 71.3256 72.9752C70.838 72.9752 70.4226 72.8858 70.0795 72.707C69.7544 72.546 69.4835 72.3136 69.2667 72.0095C69.0681 71.6876 68.9326 71.33 68.8604 70.9365H68.6978C68.3727 71.3479 67.9754 71.7145 67.5059 72.0364C67.0543 72.3404 66.5306 72.5729 65.9346 72.7338C65.3386 72.9127 64.6704 73.0021 63.9299 73.0021ZM64.7155 70.6951C65.2754 70.6951 65.7901 70.6146 66.2597 70.4537C66.7473 70.2748 67.1627 70.0334 67.5059 69.7294C67.849 69.4075 68.1199 69.032 68.3186 68.6028C68.5172 68.1557 68.6166 67.6728 68.6166 67.1542V66.2153C67.3704 66.2153 66.2777 66.2869 65.3386 66.4299C64.3994 66.573 63.668 66.8412 63.1442 67.2347C62.6205 67.6102 62.3586 68.1378 62.3586 68.8174C62.3586 69.2287 62.4489 69.5774 62.6295 69.8635C62.8101 70.1318 63.081 70.3374 63.4422 70.4805C63.8035 70.6236 64.2279 70.6951 64.7155 70.6951Z" fill="white"/>
<path d="M81.1272 73.0021C79.6643 73.0021 78.4362 72.7428 77.4428 72.2241C76.4676 71.6876 75.7271 70.8739 75.2214 69.7831C74.7157 68.6922 74.4629 67.3062 74.4629 65.6252C74.4629 63.9263 74.7157 62.5403 75.2214 61.4673C75.7271 60.3764 76.4766 59.5716 77.4699 59.053C78.4632 58.5165 79.7004 58.2483 81.1814 58.2483C82.5359 58.2483 83.6647 58.5076 84.5677 59.0262C85.4888 59.5269 86.1841 60.2959 86.6537 61.3332C87.1232 62.3704 87.358 63.6759 87.358 65.2496V66.3226H77.3616C77.3977 67.3241 77.5512 68.1646 77.8221 68.8442C78.093 69.5059 78.4994 69.9977 79.0412 70.3196C79.6011 70.6236 80.3054 70.7756 81.1543 70.7756C81.678 70.7756 82.1476 70.713 82.563 70.5878C82.9784 70.4447 83.3305 70.248 83.6195 69.9977C83.9085 69.7294 84.1342 69.4165 84.2968 69.0588C84.4593 68.6832 84.5406 68.263 84.5406 67.798H87.3038C87.3038 68.6385 87.1594 69.3807 86.8704 70.0245C86.5814 70.6683 86.157 71.2137 85.5971 71.6608C85.0553 72.09 84.4051 72.4209 83.6466 72.6533C82.8881 72.8858 82.0483 73.0021 81.1272 73.0021ZM77.4157 64.2839H84.4051C84.4051 63.5865 84.3239 63.0053 84.1613 62.5403C84.0168 62.0574 83.8001 61.664 83.5112 61.36C83.2222 61.056 82.879 60.8414 82.4817 60.7162C82.0844 60.5731 81.6329 60.5016 81.1272 60.5016C80.3686 60.5016 79.7185 60.6357 79.1766 60.904C78.6529 61.1722 78.2465 61.5925 77.9576 62.1647C77.6686 62.7191 77.488 63.4255 77.4157 64.2839Z" fill="white"/>
<path d="M90.2218 72.6802V53.2856H93.0392V72.6802H90.2218Z" fill="white"/>
<path d="M100.58 72.6802L107.868 54.2782H111.742L119.056 72.6802H115.805L114.153 68.415H105.348L103.696 72.6802H100.58ZM106.323 65.8666H113.15L111.064 60.4748C111.01 60.3138 110.929 60.0903 110.82 59.8041C110.712 59.518 110.595 59.205 110.468 58.8652C110.36 58.5255 110.243 58.1857 110.116 57.8459C110.008 57.4882 109.908 57.1663 109.818 56.8802H109.656C109.547 57.22 109.412 57.6224 109.249 58.0873C109.087 58.5523 108.924 58.9994 108.762 59.4286C108.617 59.8578 108.491 60.2065 108.382 60.4748L106.323 65.8666Z" fill="white"/>
<path d="M121.069 72.6802V58.5702H123.399L123.643 60.8503H123.805C123.968 60.4032 124.176 59.983 124.428 59.5895C124.699 59.1961 125.043 58.8742 125.458 58.6238C125.891 58.3735 126.415 58.2483 127.029 58.2483C127.318 58.2483 127.571 58.2751 127.788 58.3288C128.022 58.3824 128.203 58.4271 128.329 58.4629V61.0917H127.381C126.803 61.0917 126.289 61.1811 125.837 61.36C125.404 61.5388 125.033 61.8071 124.726 62.1647C124.437 62.5045 124.221 62.9248 124.076 63.4255C123.95 63.9262 123.887 64.4896 123.887 65.1155V72.6802H121.069Z" fill="white"/>
<path d="M135.832 73.0021C134.405 73.0021 133.213 72.7428 132.256 72.2241C131.299 71.6876 130.576 70.8739 130.089 69.7831C129.619 68.6922 129.384 67.3062 129.384 65.6252C129.384 63.9441 129.628 62.5671 130.116 61.4941C130.603 60.4032 131.326 59.5895 132.283 59.053C133.258 58.5165 134.45 58.2483 135.859 58.2483C136.834 58.2483 137.683 58.3735 138.406 58.6238C139.128 58.8563 139.742 59.214 140.248 59.6968C140.753 60.1618 141.124 60.743 141.358 61.4405C141.611 62.1379 141.738 62.9337 141.738 63.8279H138.893C138.893 63.0768 138.785 62.4598 138.568 61.977C138.351 61.4941 138.017 61.1364 137.566 60.904C137.114 60.6536 136.527 60.5284 135.805 60.5284C135.046 60.5284 134.405 60.7072 133.881 61.0649C133.358 61.4047 132.96 61.9323 132.689 62.6476C132.419 63.345 132.283 64.266 132.283 65.4106V65.8666C132.283 66.9575 132.409 67.8695 132.662 68.6028C132.933 69.3181 133.331 69.8546 133.854 70.2123C134.396 70.552 135.082 70.7219 135.913 70.7219C136.636 70.7219 137.214 70.5968 137.647 70.3464C138.099 70.0781 138.433 69.7026 138.649 69.2197C138.884 68.719 139.002 68.1199 139.002 67.4224H141.738C141.738 68.263 141.611 69.023 141.358 69.7026C141.124 70.3821 140.753 70.9723 140.248 71.473C139.76 71.9559 139.146 72.3314 138.406 72.5997C137.665 72.8679 136.807 73.0021 135.832 73.0021Z" fill="white"/>
<path d="M144.588 72.6802V53.2856H147.406V60.2602H147.595C147.939 59.831 148.327 59.4733 148.76 59.1871C149.194 58.8831 149.681 58.6506 150.223 58.4897C150.765 58.3287 151.361 58.2483 152.011 58.2483C152.914 58.2483 153.709 58.4092 154.395 58.7311C155.081 59.0351 155.614 59.5359 155.994 60.2333C156.391 60.9308 156.59 61.8697 156.59 63.05V72.6802H153.772V63.4792C153.772 62.9427 153.7 62.4956 153.555 62.1379C153.429 61.7802 153.239 61.4941 152.986 61.2795C152.734 61.0649 152.436 60.9129 152.092 60.8235C151.749 60.7341 151.37 60.6894 150.955 60.6894C150.305 60.6894 149.708 60.8414 149.167 61.1454C148.643 61.4494 148.219 61.8786 147.893 62.433C147.568 62.9874 147.406 63.6491 147.406 64.418V72.6802H144.588Z" fill="white"/>
<path d="M166.024 73.0021C164.561 73.0021 163.333 72.7428 162.339 72.2241C161.364 71.6876 160.624 70.8739 160.118 69.7831C159.612 68.6922 159.359 67.3062 159.359 65.6252C159.359 63.9263 159.612 62.5403 160.118 61.4673C160.624 60.3764 161.373 59.5716 162.366 59.053C163.36 58.5165 164.597 58.2483 166.078 58.2483C167.432 58.2483 168.561 58.5076 169.464 59.0262C170.385 59.5269 171.081 60.2959 171.55 61.3332C172.02 62.3704 172.255 63.6759 172.255 65.2496V66.3226H162.258C162.294 67.3241 162.448 68.1646 162.719 68.8442C162.989 69.5059 163.396 69.9977 163.938 70.3196C164.498 70.6236 165.202 70.7756 166.051 70.7756C166.574 70.7756 167.044 70.713 167.459 70.5878C167.875 70.4447 168.227 70.248 168.516 69.9977C168.805 69.7294 169.031 69.4165 169.193 69.0588C169.356 68.6832 169.437 68.263 169.437 67.798H172.2C172.2 68.6385 172.056 69.3807 171.767 70.0245C171.478 70.6683 171.053 71.2137 170.494 71.6608C169.952 72.09 169.302 72.4209 168.543 72.6533C167.785 72.8858 166.945 73.0021 166.024 73.0021ZM162.312 64.2839H169.302C169.302 63.5865 169.22 63.0053 169.058 62.5403C168.913 62.0574 168.697 61.664 168.408 61.36C168.119 61.056 167.776 60.8414 167.378 60.7162C166.981 60.5731 166.529 60.5016 166.024 60.5016C165.265 60.5016 164.615 60.6357 164.073 60.904C163.549 61.1722 163.143 61.5925 162.854 62.1647C162.565 62.7191 162.384 63.4255 162.312 64.2839Z" fill="white"/>
<path d="M175.118 72.6802V58.5702H177.448L177.692 60.8503H177.854C178.017 60.4032 178.225 59.983 178.478 59.5895C178.748 59.1961 179.092 58.8742 179.507 58.6238C179.94 58.3735 180.464 58.2483 181.078 58.2483C181.367 58.2483 181.62 58.2751 181.837 58.3288C182.072 58.3824 182.252 58.4271 182.379 58.4629V61.0917H181.43C180.852 61.0917 180.338 61.1811 179.886 61.36C179.453 61.5388 179.083 61.8071 178.776 62.1647C178.487 62.5045 178.27 62.9248 178.125 63.4255C177.999 63.9262 177.936 64.4896 177.936 65.1155V72.6802H175.118Z" fill="white"/>
</svg>
