<svg width="37" height="37" viewBox="0 0 37 37" fill="none" xmlns="http://www.w3.org/2000/svg">
<path d="M15.5976 17.4743L19.2277 13.8462C19.4195 13.6544 19.5086 13.4249 19.4949 13.1576C19.4826 12.8918 19.3798 12.6622 19.1866 12.469C18.9947 12.2772 18.7569 12.1812 18.4733 12.1812C18.1896 12.1812 17.9567 12.2772 17.7744 12.469L12.9027 17.3407C12.5711 17.6723 12.4053 18.0594 12.4053 18.5021C12.4053 18.9447 12.5711 19.3318 12.9027 19.6635L17.8114 24.5742C18.0032 24.766 18.2328 24.862 18.5 24.862C18.7672 24.862 18.9968 24.766 19.1886 24.5742C19.3805 24.3823 19.4764 24.1439 19.4764 23.8589C19.4764 23.5752 19.3805 23.3422 19.1886 23.16L15.5976 19.5299H24.6667C24.9586 19.5299 25.2025 19.4312 25.3984 19.2339C25.5958 19.0365 25.6944 18.7919 25.6944 18.5C25.6944 18.2081 25.5958 17.9642 25.3984 17.7682C25.2025 17.5723 24.9586 17.4743 24.6667 17.4743H15.5976ZM18.4938 0.00207901C21.0509 0.00207901 23.4559 0.48719 25.7088 1.45741C27.9604 2.429 29.9193 3.7473 31.5857 5.4123C33.252 7.07593 34.571 9.03282 35.5426 11.283C36.5142 13.5331 37 15.9374 37 18.4959C37 21.053 36.5149 23.458 35.5447 25.7109C34.5731 27.9624 33.2548 29.9214 31.5898 31.5877C29.9261 33.2541 27.9693 34.5731 25.7191 35.5447C23.469 36.5163 21.0647 37.0021 18.5062 37.0021C15.9491 37.0021 13.5441 36.517 11.2912 35.5467C9.03965 34.5751 7.08071 33.2569 5.41434 31.5919C3.74797 29.9282 2.42899 27.9713 1.45739 25.7212C0.485798 23.471 3.8147e-06 21.0667 3.8147e-06 18.5082C3.8147e-06 15.9511 0.485115 13.5461 1.45534 11.2932C2.42693 9.04173 3.74522 7.08278 5.41022 5.41641C7.07385 3.75004 9.03074 2.43106 11.2809 1.45947C13.531 0.487873 15.9354 0.00207901 18.4938 0.00207901ZM18.5 2.05763C13.9093 2.05763 10.0208 3.65069 6.83473 6.8368C3.64862 10.0229 2.05556 13.9113 2.05556 18.5021C2.05556 23.0928 3.64862 26.9812 6.83473 30.1674C10.0208 33.3535 13.9093 34.9465 18.5 34.9465C23.0907 34.9465 26.9792 33.3535 30.1653 30.1674C33.3514 26.9812 34.9444 23.0928 34.9444 18.5021C34.9444 13.9113 33.3514 10.0229 30.1653 6.8368C26.9792 3.65069 23.0907 2.05763 18.5 2.05763Z" fill="#F1F7F7"/>
</svg>
